<svg width="36" height="22" viewBox="0 0 36 22" fill="none" xmlns="http://www.w3.org/2000/svg">
<g clip-path="url(#clip0_489_37183)">
<path fill-rule="evenodd" clip-rule="evenodd" d="M25.2064 21.9199L25.7624 21.9048L26.3113 21.8645L26.8489 21.7939L27.383 21.6973L27.903 21.5749L28.4153 21.4265L28.9169 21.2521L29.4073 21.0555L29.887 20.8329L30.352 20.5915L30.8028 20.3243L31.2424 20.039L31.6643 19.7307L32.0714 19.4043L32.4637 19.0593L32.8384 18.6919L33.1975 18.3093L33.5354 17.9088L33.8558 17.4931L34.157 17.063L34.4371 16.6135L34.6989 16.1539L34.9345 15.6785L35.1526 15.1886L35.3452 14.6879L35.5166 14.1757L35.662 13.6527L35.7819 13.1225L35.8765 12.5765L35.9449 12.0275L35.9851 11.4671L35.9999 10.8994L35.9851 10.3353L35.9449 9.77918L35.8765 9.22953L35.7819 8.69139L35.662 8.16119L35.5166 7.64179L35.3452 7.12959L35.1526 6.63252L34.9345 6.14626L34.6989 5.67152L34.4371 5.21479L34.157 4.76599L33.8558 4.33519L33.5354 3.92385L33.1975 3.52259L32.8384 3.14079L32.4637 2.77699L32.0714 2.43192L31.6643 2.10559L31.2424 1.79726L30.8028 1.51198L30.352 1.24832L29.887 1.00699L29.4073 0.78439L28.9169 0.587724L28.4153 0.413389L27.903 0.264989L27.383 0.142522L26.8489 0.0459902L26.3113 -0.0246081L25.7624 -0.0649499L25.2064 -0.0800781L24.654 -0.0649499L24.1051 -0.0246081L23.5674 0.0459902L23.0368 0.142522L22.5169 0.264989L22.0046 0.413389L21.5065 0.587724L21.0162 0.78439L20.5399 1.00699L20.0785 1.24832L19.6276 1.51198L19.1916 1.79726L18.7704 2.10559L18.3633 2.43192L17.9745 2.77699L17.5999 3.14079L17.2436 3.52259L16.9056 3.92385L16.586 4.33519L16.2883 4.76599L16.0082 5.21479L15.7499 5.67152L15.5107 6.14626L15.2963 6.63252L15.1036 7.12959L14.9364 7.64179L14.7911 8.16119L14.6711 8.69139L14.5766 9.22953L14.5075 9.77918L14.4672 10.3353L14.4531 10.8994L14.4672 11.4671L14.5075 12.0275L14.5766 12.5765L14.6711 13.1225L14.7911 13.6527L14.9364 14.1757L15.1036 14.6879L15.2963 15.1886L15.5107 15.6785L15.7499 16.1539L16.0082 16.6135L16.2883 17.063L16.586 17.4931L16.9056 17.9088L17.2436 18.3093L17.5999 18.6919L17.9745 19.0593L18.3633 19.4043L18.7704 19.7307L19.1916 20.039L19.6276 20.3243L20.0785 20.5915L20.5399 20.8329L21.0162 21.0555L21.5065 21.2521L22.0046 21.4265L22.5169 21.5749L23.0368 21.6973L23.5674 21.7939L24.1051 21.8645L24.654 21.9048L25.2064 21.9199Z" fill="#FAB51D"/>
<path fill-rule="evenodd" clip-rule="evenodd" d="M10.7935 21.9199L11.346 21.9048L11.8942 21.8645L12.4325 21.7939L12.9631 21.6973L13.4824 21.5749L13.9953 21.4265L14.4927 21.2521L14.9838 21.0555L15.4593 20.8329L15.9214 20.5915L16.3716 20.3243L16.8076 20.039L17.2295 19.7307L17.6366 19.4043L18.0254 19.0593L18.3993 18.6919L18.7556 18.3093L19.0936 17.9088L19.4132 17.4931L19.7117 17.063L19.9911 16.6135L20.2493 16.1539L20.4892 15.6785L20.7037 15.1886L20.8963 14.6879L21.0635 14.1757L21.2088 13.6527L21.3288 13.1225L21.4233 12.5765L21.4925 12.0275L21.532 11.4671L21.5468 10.8994L21.532 10.3353L21.4925 9.77918L21.4233 9.22953L21.3288 8.69139L21.2088 8.16119L21.0635 7.64179L20.8963 7.12959L20.7037 6.63252L20.4892 6.14626L20.2493 5.67152L19.9911 5.21479L19.7117 4.76599L19.4132 4.33519L19.0936 3.92385L18.7556 3.52259L18.3993 3.14079L18.0254 2.77699L17.6366 2.43192L17.2295 2.10559L16.8076 1.79726L16.3716 1.51198L15.9214 1.24832L15.4593 1.00699L14.9838 0.78439L14.4927 0.587724L13.9953 0.413389L13.4824 0.264989L12.9631 0.142522L12.4325 0.0459902L11.8942 -0.0246081L11.346 -0.0649499L10.7935 -0.0800781L10.2375 -0.0649499L9.68862 -0.0246081L9.15099 0.0459902L8.61618 0.142522L8.0969 0.264989L7.58467 0.413389L7.08302 0.587724L6.59196 0.78439L6.11289 1.00699L5.64722 1.24832L5.19708 1.51198L4.75682 1.79726L4.33561 2.10559L3.9285 2.43192L3.53622 2.77699L3.16157 3.14079L2.80174 3.52259L2.46378 3.92385L2.14417 4.33519L1.84219 4.76599L1.56279 5.21479L1.30103 5.67152L1.06468 6.14626L0.84666 6.63252L0.654045 7.12959L0.483302 7.64179L0.337959 8.16119L0.218015 8.69139L0.123471 9.22953L0.0543274 9.77918L0.014111 10.3353L0 10.8994L0.014111 11.4671L0.0543274 12.0275L0.123471 12.5765L0.218015 13.1225L0.337959 13.6527L0.483302 14.1757L0.654045 14.6879L0.84666 15.1886L1.06468 15.6785L1.30103 16.1539L1.56279 16.6135L1.84219 17.063L2.14417 17.4931L2.46378 17.9088L2.80174 18.3093L3.16157 18.6919L3.53622 19.0593L3.9285 19.4043L4.33561 19.7307L4.75682 20.039L5.19708 20.3243L5.64722 20.5915L6.11289 20.8329L6.59196 21.0555L7.08302 21.2521L7.58467 21.4265L8.0969 21.5749L8.61618 21.6973L9.15099 21.7939L9.68862 21.8645L10.2375 21.9048L10.7935 21.9199Z" fill="#E40420"/>
<path fill-rule="evenodd" clip-rule="evenodd" d="M16.7383 4.13822H22.4624V3.54102H17.2329L16.7383 4.13822Z" fill="#FAB51D"/>
<path fill-rule="evenodd" clip-rule="evenodd" d="M15.8809 5.46634H22.4622V4.86914H16.2259L15.8809 5.46634Z" fill="#FAB51D"/>
<path fill-rule="evenodd" clip-rule="evenodd" d="M15.2422 6.79056H22.4635V6.19336H15.4969L15.2422 6.79056Z" fill="#FAB51D"/>
<path fill-rule="evenodd" clip-rule="evenodd" d="M14.8008 8.11869H22.4616V7.52148H14.9828L14.8008 8.11869Z" fill="#FAB51D"/>
<path fill-rule="evenodd" clip-rule="evenodd" d="M15.057 14.5406H22.4815V13.9434H14.875L15.057 14.5406Z" fill="#FAB51D"/>
<path fill-rule="evenodd" clip-rule="evenodd" d="M15.6044 15.8687H22.4807V15.2715H15.332L15.6044 15.8687Z" fill="#FAB51D"/>
<path fill-rule="evenodd" clip-rule="evenodd" d="M16.3747 17.1929H22.4805V16.5957H16.0078L16.3747 17.1929Z" fill="#FAB51D"/>
<path fill-rule="evenodd" clip-rule="evenodd" d="M17.4361 18.5207H22.4807V17.9199H16.9238L17.4361 18.5207Z" fill="#FAB51D"/>
<path fill-rule="evenodd" clip-rule="evenodd" d="M14.543 9.44681H22.4621V8.84961H14.6559L14.543 9.44681Z" fill="#FAB51D"/>
<path fill-rule="evenodd" clip-rule="evenodd" d="M19.3711 13.2124H22.3908V12.6152H19.4797L19.3711 13.2124Z" fill="#FAB51D"/>
<path fill-rule="evenodd" clip-rule="evenodd" d="M19.6094 11.8918H22.3892V11.291H19.718L19.6094 11.8918Z" fill="#FAB51D"/>
<path fill-rule="evenodd" clip-rule="evenodd" d="M14.3438 11.291H15.129V11.8918H14.3804L14.3438 11.291Z" fill="#FAB51D"/>
<path fill-rule="evenodd" clip-rule="evenodd" d="M12.8784 10.5659L12.8276 10.5623L12.7768 10.5544L12.7295 10.5472L12.6822 10.54L12.6385 10.5321L12.5912 10.5249L12.544 10.5177L12.4932 10.5097L12.4424 10.5025L12.3845 10.4989L12.3189 10.4953L12.2497 10.4917H12.1735L12.0903 10.4953L11.9957 10.5025L11.8899 10.5097L11.8172 10.5213L11.7481 10.5321L11.6867 10.5544L11.6324 10.5767L11.5809 10.6027L11.5343 10.6322L11.4976 10.6697L11.4652 10.7028L11.4433 10.7439L11.4249 10.7849L11.4179 10.8289V10.8735L11.4285 10.9218L11.4433 10.9701L11.4722 11.0183L11.5082 11.0666L11.5809 11.1372L11.6684 11.1927L11.77 11.2409L11.8793 11.282L11.9957 11.3187L12.1157 11.3598L12.2356 11.4045L12.3513 11.4527L12.4607 11.5154L12.5623 11.5932L12.6533 11.6861L12.7295 11.8014L12.7881 11.9426L12.8241 12.109L12.8389 12.3093L12.8241 12.5434L12.7987 12.7177L12.7549 12.8697L12.6971 13.0109L12.6244 13.1334L12.5404 13.2407L12.4459 13.3337L12.3443 13.4151L12.2314 13.4857L12.1157 13.5411L11.9957 13.5901L11.8723 13.6269L11.7446 13.6564L11.6211 13.6787L11.5011 13.6903L11.3812 13.6975L11.2683 13.7011H11.1124L10.967 13.6975H10.84L10.7201 13.6939L10.6107 13.6903L10.5127 13.6823L10.4259 13.6751L10.3419 13.6643L10.2657 13.6564L10.1966 13.642L10.1274 13.6305L10.0661 13.6117L10.004 13.5973L9.94612 13.575L9.88755 13.5527L9.82617 13.5303L9.98915 12.7105L10.0223 12.7177L10.0618 12.7285L10.1133 12.7437L10.1747 12.7588L10.2403 12.7732L10.313 12.7883L10.3927 12.8071L10.4802 12.8215L10.5712 12.8366L10.6651 12.8517L10.7638 12.8625L10.8654 12.8733L10.9706 12.8777L11.0764 12.8813H11.1815L11.2867 12.8777L11.3925 12.8553L11.4757 12.8251L11.5414 12.7847L11.5922 12.7329L11.6281 12.681L11.6578 12.6212L11.6754 12.5621L11.6902 12.5059L11.6973 12.3986L11.6648 12.3057L11.6027 12.2315L11.5124 12.1688L11.4031 12.1126L11.2761 12.0571L11.1343 12.0053L10.9924 11.9462L10.8471 11.8792L10.7088 11.8014L10.5818 11.7049L10.4654 11.5896L10.3744 11.4484L10.3095 11.282L10.2763 11.0817L10.2805 10.844L10.2982 10.6992L10.3236 10.5623L10.3603 10.4355L10.404 10.3174L10.4619 10.2057L10.5275 10.1092L10.6037 10.0163L10.6947 9.93486L10.7998 9.86427L10.9162 9.80519L11.0468 9.749L11.1921 9.70866L11.3558 9.6748L11.5343 9.64887L11.7305 9.63446L11.9449 9.63086H12.079L12.2025 9.63446L12.3154 9.63806L12.417 9.64166L12.508 9.64887L12.5912 9.65679L12.6639 9.664L12.7295 9.6712L12.7916 9.67913L12.8424 9.68993L12.8897 9.69714L12.9334 9.70506L12.9694 9.71226L13.0026 9.71586L13.035 9.72307L13.0639 9.72739L12.8784 10.5659Z" fill="white"/>
<path d="M12.8784 10.5659L12.8276 10.5623L12.7768 10.5544L12.7295 10.5472L12.6822 10.54L12.6385 10.5321L12.5912 10.5249L12.544 10.5177L12.4932 10.5097L12.4424 10.5025L12.3845 10.4989L12.3189 10.4953L12.2497 10.4917H12.1735L12.0903 10.4953L11.9957 10.5025L11.8899 10.5097L11.8172 10.5213L11.7481 10.5321L11.6867 10.5544L11.6324 10.5767L11.5809 10.6027L11.5343 10.6322L11.4976 10.6697L11.4652 10.7028L11.4433 10.7439L11.4249 10.7849L11.4179 10.8289V10.8735L11.4285 10.9218L11.4433 10.9701L11.4722 11.0183L11.5082 11.0666L11.5809 11.1372L11.6684 11.1927L11.77 11.2409L11.8793 11.282L11.9957 11.3187L12.1157 11.3598L12.2356 11.4045L12.3513 11.4527L12.4607 11.5154L12.5623 11.5932L12.6533 11.6861L12.7295 11.8014L12.7881 11.9426L12.8241 12.109L12.8389 12.3093L12.8241 12.5434L12.7987 12.7177L12.7549 12.8697L12.6971 13.0109L12.6244 13.1334L12.5404 13.2407L12.4459 13.3337L12.3443 13.4151L12.2314 13.4857L12.1157 13.5411L11.9957 13.5901L11.8723 13.6269L11.7446 13.6564L11.6211 13.6787L11.5011 13.6903L11.3812 13.6975L11.2683 13.7011H11.1124L10.967 13.6975H10.84L10.7201 13.6939L10.6107 13.6903L10.5127 13.6823L10.4259 13.6751L10.3419 13.6643L10.2657 13.6564L10.1966 13.642L10.1274 13.6305L10.0661 13.6117L10.004 13.5973L9.94612 13.575L9.88755 13.5527L9.82617 13.5303L9.98915 12.7105L10.0223 12.7177L10.0618 12.7285L10.1133 12.7437L10.1747 12.7588L10.2403 12.7732L10.313 12.7883L10.3927 12.8071L10.4802 12.8215L10.5712 12.8366L10.6651 12.8517L10.7638 12.8625L10.8654 12.8733L10.9706 12.8777L11.0764 12.8813H11.1815L11.2867 12.8777L11.3925 12.8553L11.4757 12.8251L11.5414 12.7847L11.5922 12.7329L11.6281 12.681L11.6578 12.6212L11.6754 12.5621L11.6902 12.5059L11.6973 12.3986L11.6648 12.3057L11.6027 12.2315L11.5124 12.1688L11.4031 12.1126L11.2761 12.0571L11.1343 12.0053L10.9924 11.9462L10.8471 11.8792L10.7088 11.8014L10.5818 11.7049L10.4654 11.5896L10.3744 11.4484L10.3095 11.282L10.2763 11.0817L10.2805 10.844L10.2982 10.6992L10.3236 10.5623L10.3603 10.4355L10.404 10.3174L10.4619 10.2057L10.5275 10.1092L10.6037 10.0163L10.6947 9.93486L10.7998 9.86427L10.9162 9.80519L11.0468 9.749L11.1921 9.70866L11.3558 9.6748L11.5343 9.64887L11.7305 9.63446L11.9449 9.63086H12.079L12.2025 9.63446L12.3154 9.63806L12.417 9.64166L12.508 9.64887L12.5912 9.65679L12.6639 9.664L12.7295 9.6712L12.7916 9.67913L12.8424 9.68993L12.8897 9.69714L12.9334 9.70506L12.9694 9.71226L13.0026 9.71586L13.035 9.72307L13.0639 9.72739L12.8784 10.5659Z" stroke="white" stroke-width="0.22" stroke-miterlimit="2.61"/>
<path fill-rule="evenodd" clip-rule="evenodd" d="M13.7396 8.81055H14.7464L14.5975 9.70887H15.2043L15.0731 10.5474L14.4338 10.5287L14.0846 12.5991L14.0811 12.6733L14.0994 12.7367L14.1361 12.7849L14.1827 12.8253L14.2483 12.8519L14.3209 12.8735L14.4007 12.8887L14.4882 12.8959L14.5679 12.8923L14.6406 12.8851L14.7062 12.8735L14.7647 12.8591L14.812 12.844L14.8445 12.8332L14.8663 12.8253L14.8734 12.8217L14.7464 13.5118L14.721 13.5305L14.6956 13.5457L14.6702 13.5601L14.6448 13.5752L14.6194 13.586L14.5898 13.5975L14.5573 13.6083L14.5248 13.6199L14.4882 13.6307L14.4522 13.6379L14.4084 13.6458L14.3647 13.653L14.3174 13.6602L14.2631 13.6681L14.2045 13.6753L14.1431 13.6825H13.8666L13.7212 13.6717L13.5942 13.6566L13.4778 13.6343L13.3797 13.6083L13.2965 13.5752L13.2273 13.5377L13.1653 13.4938L13.118 13.4455L13.082 13.3929L13.0566 13.3303L13.0383 13.2669L13.0277 13.197L13.0234 13.1185V13.0371L13.0347 12.9521L13.0453 12.8591L13.7396 8.81055Z" fill="white"/>
<path d="M13.7396 8.81055H14.7464L14.5975 9.70887H15.2043L15.0731 10.5474L14.4338 10.5287L14.0846 12.5991L14.0811 12.6733L14.0994 12.7367L14.1361 12.7849L14.1827 12.8253L14.2483 12.8519L14.3209 12.8735L14.4007 12.8887L14.4882 12.8959L14.5679 12.8923L14.6406 12.8851L14.7062 12.8735L14.7647 12.8591L14.812 12.844L14.8445 12.8332L14.8663 12.8253L14.8734 12.8217L14.7464 13.5118L14.721 13.5305L14.6956 13.5457L14.6702 13.5601L14.6448 13.5752L14.6194 13.586L14.5898 13.5975L14.5573 13.6083L14.5248 13.6199L14.4882 13.6307L14.4522 13.6379L14.4084 13.6458L14.3647 13.653L14.3174 13.6602L14.2631 13.6681L14.2045 13.6753L14.1431 13.6825H13.8666L13.7212 13.6717L13.5942 13.6566L13.4778 13.6343L13.3797 13.6083L13.2965 13.5752L13.2273 13.5377L13.1653 13.4938L13.118 13.4455L13.082 13.3929L13.0566 13.3303L13.0383 13.2669L13.0277 13.197L13.0234 13.1185V13.0371L13.0347 12.9521L13.0453 12.8591L13.7396 8.81055Z" stroke="white" stroke-width="0.22" stroke-miterlimit="2.61"/>
<path fill-rule="evenodd" clip-rule="evenodd" d="M16.0084 11.9462L15.9978 12.0089L15.9943 12.0759L16.0014 12.1465L16.0155 12.2171L16.0416 12.2877L16.0705 12.3539L16.11 12.4245L16.1538 12.4879L16.2046 12.5506L16.2596 12.6061L16.3174 12.6623L16.3831 12.7069L16.448 12.7473L16.5206 12.7811L16.5933 12.8071L16.666 12.8215L16.7605 12.8366L16.8515 12.8474L16.9461 12.8589L17.0406 12.8661L17.1352 12.8697H17.2332L17.3278 12.8661L17.4259 12.8589L17.5239 12.8438L17.622 12.8251L17.7236 12.8035L17.8217 12.7696L17.924 12.7285L18.0291 12.6846L18.1307 12.6248L18.2365 12.5621L18.0912 13.4749L18.0326 13.5044L17.9748 13.5339L17.9162 13.5563L17.8619 13.5786L17.8076 13.5973L17.749 13.6161L17.6912 13.6305L17.6291 13.642L17.5642 13.6528L17.4915 13.66L17.4153 13.6679L17.3313 13.6751L17.2368 13.6787H17.1387L17.0258 13.6823H16.9059L16.7281 13.6787L16.546 13.66L16.3647 13.6341L16.1827 13.5901L16.0049 13.5339L15.8341 13.4633L15.6705 13.3711L15.5181 13.2631L15.3762 13.137L15.2528 12.985L15.1469 12.8143L15.0602 12.6176L14.9981 12.3986L14.9586 12.1501L14.9473 11.8756L14.9656 11.5709L14.9797 11.4527L15.0016 11.3151L15.0312 11.1703L15.0707 11.0147L15.1258 10.8548L15.1907 10.6956L15.2746 10.5321L15.3762 10.3765L15.4927 10.2281L15.6345 10.0869L15.7939 9.9608L15.976 9.84986L16.1869 9.75693L16.4226 9.68993L16.6843 9.64527L16.9785 9.63086L17.1204 9.63446L17.2692 9.64887L17.4188 9.6748L17.5677 9.71226L17.713 9.76773L17.8548 9.83473L17.9854 9.92406L18.1053 10.0278L18.2147 10.1539L18.305 10.3023L18.3777 10.473L18.4292 10.6697L18.4581 10.8923L18.4616 11.1444L18.4362 11.4268L18.3819 11.738L18.3635 11.9642H15.7142L15.8814 11.2337H17.4731L17.4802 11.1408L17.4767 11.0515L17.4696 10.9701L17.4548 10.8959L17.4294 10.8253L17.404 10.7626L17.368 10.7064L17.3313 10.6545L17.2876 10.6099L17.2403 10.5731L17.186 10.54L17.1316 10.5097L17.0731 10.4874L17.0152 10.473L16.9531 10.4615L16.8882 10.4543L16.8191 10.4579L16.7535 10.4694L16.6914 10.4838L16.63 10.5061L16.5679 10.5357L16.5136 10.5695L16.4593 10.6099L16.412 10.6545L16.3647 10.7064L16.321 10.7626L16.2808 10.8217L16.2483 10.8851L16.2158 10.9513L16.1904 11.0255L16.1686 11.0997L16.1538 11.1775L16.0084 11.9462Z" fill="white"/>
<path d="M16.0084 11.9462L15.9978 12.0089L15.9943 12.0759L16.0014 12.1465L16.0155 12.2171L16.0416 12.2877L16.0705 12.3539L16.11 12.4245L16.1538 12.4879L16.2046 12.5506L16.2596 12.6061L16.3174 12.6623L16.3831 12.7069L16.448 12.7473L16.5206 12.7811L16.5933 12.8071L16.666 12.8215L16.7605 12.8366L16.8515 12.8474L16.9461 12.8589L17.0406 12.8661L17.1352 12.8697H17.2332L17.3278 12.8661L17.4259 12.8589L17.5239 12.8438L17.622 12.8251L17.7236 12.8035L17.8217 12.7696L17.924 12.7285L18.0291 12.6846L18.1307 12.6248L18.2365 12.5621L18.0912 13.4749L18.0326 13.5044L17.9748 13.5339L17.9162 13.5563L17.8619 13.5786L17.8076 13.5973L17.749 13.6161L17.6912 13.6305L17.6291 13.642L17.5642 13.6528L17.4915 13.66L17.4153 13.6679L17.3313 13.6751L17.2368 13.6787H17.1387L17.0258 13.6823H16.9059L16.7281 13.6787L16.546 13.66L16.3647 13.6341L16.1827 13.5901L16.0049 13.5339L15.8341 13.4633L15.6705 13.3711L15.5181 13.2631L15.3762 13.137L15.2528 12.985L15.1469 12.8143L15.0602 12.6176L14.9981 12.3986L14.9586 12.1501L14.9473 11.8756L14.9656 11.5709L14.9797 11.4527L15.0016 11.3151L15.0312 11.1703L15.0707 11.0147L15.1258 10.8548L15.1907 10.6956L15.2746 10.5321L15.3762 10.3765L15.4927 10.2281L15.6345 10.0869L15.7939 9.9608L15.976 9.84986L16.1869 9.75693L16.4226 9.68993L16.6843 9.64527L16.9785 9.63086L17.1204 9.63446L17.2692 9.64887L17.4188 9.6748L17.5677 9.71226L17.713 9.76773L17.8548 9.83473L17.9854 9.92406L18.1053 10.0278L18.2147 10.1539L18.305 10.3023L18.3777 10.473L18.4292 10.6697L18.4581 10.8923L18.4616 11.1444L18.4362 11.4268L18.3819 11.738L18.3635 11.9642H15.7142L15.8814 11.2337H17.4731L17.4802 11.1408L17.4767 11.0515L17.4696 10.9701L17.4548 10.8959L17.4294 10.8253L17.404 10.7626L17.368 10.7064L17.3313 10.6545L17.2876 10.6099L17.2403 10.5731L17.186 10.54L17.1316 10.5097L17.0731 10.4874L17.0152 10.473L16.9531 10.4615L16.8882 10.4543L16.8191 10.4579L16.7535 10.4694L16.6914 10.4838L16.63 10.5061L16.5679 10.5357L16.5136 10.5695L16.4593 10.6099L16.412 10.6545L16.3647 10.7064L16.321 10.7626L16.2808 10.8217L16.2483 10.8851L16.2158 10.9513L16.1904 11.0255L16.1686 11.0997L16.1538 11.1775L16.0084 11.9462Z" stroke="white" stroke-width="0.22" stroke-miterlimit="2.61"/>
<path fill-rule="evenodd" clip-rule="evenodd" d="M24.6757 9.93382L24.6284 9.90789L24.5812 9.88556L24.5304 9.85962L24.4753 9.83369L24.421 9.81136L24.3596 9.78902L24.2975 9.76669L24.2319 9.74436L24.1635 9.72563L24.0943 9.71122L24.0174 9.69609L23.9412 9.68529L23.858 9.67736L23.774 9.67016H23.6872H23.5962H23.5052L23.4107 9.67736L23.3126 9.68889L23.211 9.70762L23.1094 9.73716L23.0078 9.77822L22.9055 9.83009L22.8039 9.89636L22.7058 9.97849L22.6113 10.075L22.5203 10.1932L22.4335 10.3308L22.353 10.4943L22.2768 10.6794L22.2077 10.8876L22.1498 11.1246L22.128 11.2586L22.1132 11.3883L22.1061 11.518L22.1096 11.644L22.1209 11.7701L22.1463 11.889L22.1788 12.0006L22.219 12.1116L22.2733 12.2117L22.3389 12.3082L22.4151 12.394L22.5026 12.4718L22.6007 12.5388L22.7129 12.5942L22.8363 12.6425L22.9746 12.6756L23.0219 12.6872L23.0762 12.698L23.1418 12.7052L23.2145 12.7131L23.2942 12.7203H23.3782H23.4692L23.5595 12.7131L23.6541 12.7016L23.7486 12.6836L23.8396 12.6576L23.9306 12.6274L24.0217 12.587L24.1049 12.5388L24.1811 12.479L24.2538 12.4127L24.0901 13.4032L24.0689 13.422L24.0471 13.4436L24.0174 13.4702L23.985 13.4918L23.9448 13.5221L23.894 13.548L23.8361 13.574L23.7705 13.5963L23.6872 13.6222L23.5927 13.6402L23.4833 13.6554L23.3563 13.6705L23.2145 13.6777L23.0508 13.6813L22.866 13.6777L22.6621 13.6669L22.4949 13.6482L22.3276 13.6107L22.1604 13.5552L21.9939 13.481L21.8338 13.3917L21.6814 13.2808L21.5353 13.1511L21.4013 13.002L21.2813 12.8356L21.1797 12.6497L21.0922 12.4422L21.0266 12.216L20.9836 11.9668L20.9688 11.7038L20.9758 11.4142L21.016 11.1059L21.0449 10.9539L21.0774 10.8055L21.1141 10.6607L21.1501 10.5238L21.1903 10.3942L21.2376 10.2638L21.2848 10.1413L21.3356 10.0268L21.39 9.91149L21.445 9.80415L21.5064 9.6997L21.572 9.60316L21.6376 9.51095L21.7103 9.42162L21.783 9.34022L21.8592 9.26242L21.9424 9.18822L22.0264 9.11762L22.1132 9.05423L22.2042 8.99515L22.3022 8.93896L22.4003 8.8907L22.5026 8.84675L22.6077 8.80569L22.7206 8.76823L22.8328 8.73869L22.9492 8.71276L23.0727 8.69043L23.1962 8.6717L23.3274 8.65729L23.4579 8.65009L23.5962 8.64648L23.7126 8.65009L23.8255 8.65729L23.9342 8.6681L24.0435 8.68322L24.1451 8.69835L24.2432 8.72068L24.3378 8.73869L24.4245 8.76103L24.5085 8.78336L24.5812 8.80569L24.6503 8.82802L24.7082 8.85035L24.759 8.86909L24.8027 8.88349L24.8352 8.89862L24.857 8.90582L24.6757 9.93382Z" fill="white"/>
<path d="M24.6757 9.93382L24.6284 9.90789L24.5812 9.88556L24.5304 9.85962L24.4753 9.83369L24.421 9.81136L24.3596 9.78902L24.2975 9.76669L24.2319 9.74436L24.1635 9.72563L24.0943 9.71122L24.0174 9.69609L23.9412 9.68529L23.858 9.67736L23.774 9.67016H23.6872H23.5962H23.5052L23.4107 9.67736L23.3126 9.68889L23.211 9.70762L23.1094 9.73716L23.0078 9.77822L22.9055 9.83009L22.8039 9.89636L22.7058 9.97849L22.6113 10.075L22.5203 10.1932L22.4335 10.3308L22.353 10.4943L22.2768 10.6794L22.2077 10.8876L22.1498 11.1246L22.128 11.2586L22.1132 11.3883L22.1061 11.518L22.1096 11.644L22.1209 11.7701L22.1463 11.889L22.1788 12.0006L22.219 12.1116L22.2733 12.2117L22.3389 12.3082L22.4151 12.394L22.5026 12.4718L22.6007 12.5388L22.7129 12.5942L22.8363 12.6425L22.9746 12.6756L23.0219 12.6872L23.0762 12.698L23.1418 12.7052L23.2145 12.7131L23.2942 12.7203H23.3782H23.4692L23.5595 12.7131L23.6541 12.7016L23.7486 12.6836L23.8396 12.6576L23.9306 12.6274L24.0217 12.587L24.1049 12.5388L24.1811 12.479L24.2538 12.4127L24.0901 13.4032L24.0689 13.422L24.0471 13.4436L24.0174 13.4702L23.985 13.4918L23.9448 13.5221L23.894 13.548L23.8361 13.574L23.7705 13.5963L23.6872 13.6222L23.5927 13.6402L23.4833 13.6554L23.3563 13.6705L23.2145 13.6777L23.0508 13.6813L22.866 13.6777L22.6621 13.6669L22.4949 13.6482L22.3276 13.6107L22.1604 13.5552L21.9939 13.481L21.8338 13.3917L21.6814 13.2808L21.5353 13.1511L21.4013 13.002L21.2813 12.8356L21.1797 12.6497L21.0922 12.4422L21.0266 12.216L20.9836 11.9668L20.9688 11.7038L20.9758 11.4142L21.016 11.1059L21.0449 10.9539L21.0774 10.8055L21.1141 10.6607L21.1501 10.5238L21.1903 10.3942L21.2376 10.2638L21.2848 10.1413L21.3356 10.0268L21.39 9.91149L21.445 9.80415L21.5064 9.6997L21.572 9.60316L21.6376 9.51095L21.7103 9.42162L21.783 9.34022L21.8592 9.26242L21.9424 9.18822L22.0264 9.11762L22.1132 9.05423L22.2042 8.99515L22.3022 8.93896L22.4003 8.8907L22.5026 8.84675L22.6077 8.80569L22.7206 8.76823L22.8328 8.73869L22.9492 8.71276L23.0727 8.69043L23.1962 8.6717L23.3274 8.65729L23.4579 8.65009L23.5962 8.64648L23.7126 8.65009L23.8255 8.65729L23.9342 8.6681L24.0435 8.68322L24.1451 8.69835L24.2432 8.72068L24.3378 8.73869L24.4245 8.76103L24.5085 8.78336L24.5812 8.80569L24.6503 8.82802L24.7082 8.85035L24.759 8.86909L24.8027 8.88349L24.8352 8.89862L24.857 8.90582L24.6757 9.93382Z" stroke="white" stroke-width="0.22" stroke-miterlimit="2.61"/>
<path fill-rule="evenodd" clip-rule="evenodd" d="M33.6237 13.6794H32.6169L32.6896 13.2674V13.2306L32.6317 13.3048L32.5696 13.3718L32.5082 13.4309L32.4426 13.4828L32.377 13.531L32.3121 13.5721L32.2465 13.6052L32.1773 13.6391L32.1082 13.665L32.039 13.683L31.9699 13.7018L31.8972 13.7133L31.8246 13.7241L31.7554 13.7313L31.6827 13.7356H31.6101L31.4217 13.7205L31.2467 13.6794L31.0873 13.6168L30.9419 13.531L30.8107 13.4237L30.6943 13.2976L30.5927 13.16L30.5059 13.0044L30.4332 12.8373L30.3746 12.663L30.3351 12.4814L30.3055 12.292L30.2949 12.1025L30.2985 11.9094L30.3168 11.7207L30.3493 11.5312L30.4036 11.3122L30.4692 11.1048L30.5454 10.9153L30.6364 10.7374L30.731 10.5702L30.8403 10.4218L30.9525 10.2878L31.0724 10.1654L31.1994 10.058L31.3342 9.96511L31.4725 9.88371L31.6101 9.82031L31.7554 9.76844L31.9008 9.7353L32.0468 9.71297L32.1957 9.70577L32.3008 9.70937L32.4024 9.72018L32.4969 9.73891L32.5844 9.76484L32.6677 9.79438L32.7404 9.82824L32.813 9.86858L32.8786 9.90964L32.9372 9.9543L32.9915 10.0026L33.0388 10.0508L33.0826 10.0991L33.1185 10.1474L33.151 10.1956L33.1806 10.2403L33.2025 10.2842L33.4565 8.82617H34.445L33.6237 13.6794Z" fill="white"/>
<path d="M33.6237 13.6794H32.6169L32.6896 13.2674V13.2306L32.6317 13.3048L32.5696 13.3718L32.5082 13.4309L32.4426 13.4828L32.377 13.531L32.3121 13.5721L32.2465 13.6052L32.1773 13.6391L32.1082 13.665L32.039 13.683L31.9699 13.7018L31.8972 13.7133L31.8246 13.7241L31.7554 13.7313L31.6827 13.7356H31.6101L31.4217 13.7205L31.2467 13.6794L31.0873 13.6168L30.9419 13.531L30.8107 13.4237L30.6943 13.2976L30.5927 13.16L30.5059 13.0044L30.4332 12.8373L30.3746 12.663L30.3351 12.4814L30.3055 12.292L30.2949 12.1025L30.2985 11.9094L30.3168 11.7207L30.3493 11.5312L30.4036 11.3122L30.4692 11.1048L30.5454 10.9153L30.6364 10.7374L30.731 10.5702L30.8403 10.4218L30.9525 10.2878L31.0724 10.1654L31.1994 10.058L31.3342 9.96511L31.4725 9.88371L31.6101 9.82031L31.7554 9.76844L31.9008 9.7353L32.0468 9.71297L32.1957 9.70577L32.3008 9.70937L32.4024 9.72018L32.4969 9.73891L32.5844 9.76484L32.6677 9.79438L32.7404 9.82824L32.813 9.86858L32.8786 9.90964L32.9372 9.9543L32.9915 10.0026L33.0388 10.0508L33.0826 10.0991L33.1185 10.1474L33.151 10.1956L33.1806 10.2403L33.2025 10.2842L33.4565 8.82617H34.445L33.6237 13.6794Z" stroke="white" stroke-width="0.22" stroke-miterlimit="2.61"/>
<path fill-rule="evenodd" clip-rule="evenodd" d="M31.9778 12.7856L32.0794 12.7777L32.1739 12.756L32.2607 12.7294L32.3447 12.689L32.4209 12.6444L32.4935 12.5889L32.5627 12.5255L32.6248 12.4585L32.6791 12.3843L32.7299 12.3029L32.7772 12.2179L32.8174 12.1286L32.8534 12.0357L32.8823 11.9391L32.9077 11.839L32.926 11.7389L32.9444 11.6351L32.955 11.5278V11.4276L32.9514 11.3232L32.9409 11.2267L32.926 11.1344L32.9006 11.0451L32.8717 10.9601L32.835 10.8859L32.7913 10.8153L32.7447 10.7555L32.6897 10.7036L32.6283 10.659L32.5627 10.6294L32.4935 10.6107L32.4173 10.6035L32.3193 10.6107L32.2282 10.6258L32.145 10.6554L32.061 10.6928L31.9884 10.7411L31.9157 10.8002L31.8543 10.8636L31.7922 10.9342L31.7379 11.0156L31.6871 11.1006L31.6398 11.1899L31.5996 11.2864L31.5629 11.3866L31.534 11.4867L31.5051 11.5941L31.4832 11.7021L31.4648 11.8649L31.4726 12.0436L31.498 12.2251L31.5453 12.3994L31.6179 12.5515L31.7125 12.6739L31.8324 12.756L31.9778 12.7856Z" fill="#FAB51D"/>
<path fill-rule="evenodd" clip-rule="evenodd" d="M9.6588 12.8606L9.51346 13.684H8.59766L8.62306 13.532L8.6414 13.3945L8.65551 13.2907L8.67033 13.2352L8.61953 13.2943L8.56097 13.3541L8.49182 13.4096L8.41562 13.4614L8.32884 13.5133L8.23782 13.558L8.14328 13.6026L8.04521 13.6394L7.93938 13.6732L7.83425 13.6992L7.72912 13.7215L7.61976 13.7359L7.51464 13.7438L7.4088 13.7474L7.3072 13.7359L7.20913 13.7215L7.08213 13.6876L6.96572 13.6509L6.86412 13.6026L6.7731 13.5472L6.69338 13.4874L6.6207 13.4211L6.56214 13.3505L6.51134 13.2763L6.4676 13.1985L6.43162 13.1164L6.40269 13.035L6.38082 12.9536L6.366 12.8678L6.35542 12.7828L6.34766 12.7007V12.6193L6.35894 12.4745L6.38082 12.3376L6.4168 12.2072L6.46407 12.0812L6.52263 11.9623L6.58754 11.855L6.66374 11.7512L6.75123 11.6583L6.84225 11.5726L6.94385 11.4948L7.04897 11.4242L7.15833 11.3651L7.27475 11.3132L7.39469 11.2722L7.51816 11.239L7.64516 11.2167H7.65222L7.67056 11.2131L7.69596 11.2095L7.73618 11.2059L7.77992 11.198L7.83072 11.1944L7.88505 11.1872L7.94714 11.1793L8.00852 11.172L8.07061 11.1648L8.13623 11.1612L8.19408 11.1533L8.25194 11.1497L8.30697 11.1461L8.35777 11.1425H8.39728H8.48124L8.56873 11.1461L8.64846 11.1497H8.72818L8.7938 11.1533L8.8446 11.1576L8.88058 11.1612H8.89187L8.89893 11.1353L8.9208 11.0683L8.93914 10.9905L8.9462 10.9199L8.93209 10.8385L8.89893 10.7643L8.85518 10.6973L8.79733 10.6418L8.72818 10.5936L8.65198 10.5597L8.5645 10.5374L8.46995 10.5302L8.36835 10.5266L8.2597 10.523H8.14681L8.03039 10.5266L7.91045 10.5338L7.79403 10.5453L7.67832 10.5561L7.56544 10.5712L7.45608 10.5856L7.35095 10.6044L7.2564 10.6231L7.16962 10.6418L7.08919 10.6642L7.02357 10.6858L6.97277 10.7124L6.93326 10.734L7.19079 9.84004L7.27122 9.80691L7.35095 9.77737L7.43844 9.75072L7.52522 9.73271L7.61271 9.71398L7.70725 9.69885L7.80179 9.68444L7.89987 9.67652L8.00147 9.66931L8.10659 9.66571L8.21595 9.66211H8.32884H8.44455H8.5645L8.6922 9.66571L8.8192 9.66931L8.9208 9.67652L9.03016 9.69525L9.14234 9.72118L9.25876 9.75504L9.37164 9.79898L9.4803 9.85157L9.58966 9.91425L9.69126 9.98484L9.78227 10.0662L9.862 10.1556L9.93467 10.2557L9.989 10.3667L10.0257 10.4855L10.0476 10.6116V10.7528L10.0257 10.9012L9.6588 12.8606Z" fill="white"/>
<path d="M9.6588 12.8606L9.51346 13.684H8.59766L8.62306 13.532L8.6414 13.3945L8.65551 13.2907L8.67033 13.2352L8.61953 13.2943L8.56097 13.3541L8.49182 13.4096L8.41562 13.4614L8.32884 13.5133L8.23782 13.558L8.14328 13.6026L8.04521 13.6394L7.93938 13.6732L7.83425 13.6992L7.72912 13.7215L7.61976 13.7359L7.51464 13.7438L7.4088 13.7474L7.3072 13.7359L7.20913 13.7215L7.08213 13.6876L6.96572 13.6509L6.86412 13.6026L6.7731 13.5472L6.69338 13.4874L6.6207 13.4211L6.56214 13.3505L6.51134 13.2763L6.4676 13.1985L6.43162 13.1164L6.40269 13.035L6.38082 12.9536L6.366 12.8678L6.35542 12.7828L6.34766 12.7007V12.6193L6.35894 12.4745L6.38082 12.3376L6.4168 12.2072L6.46407 12.0812L6.52263 11.9623L6.58754 11.855L6.66374 11.7512L6.75123 11.6583L6.84225 11.5726L6.94385 11.4948L7.04897 11.4242L7.15833 11.3651L7.27475 11.3132L7.39469 11.2722L7.51816 11.239L7.64516 11.2167H7.65222L7.67056 11.2131L7.69596 11.2095L7.73618 11.2059L7.77992 11.198L7.83072 11.1944L7.88505 11.1872L7.94714 11.1793L8.00852 11.172L8.07061 11.1648L8.13623 11.1612L8.19408 11.1533L8.25194 11.1497L8.30697 11.1461L8.35777 11.1425H8.39728H8.48124L8.56873 11.1461L8.64846 11.1497H8.72818L8.7938 11.1533L8.8446 11.1576L8.88058 11.1612H8.89187L8.89893 11.1353L8.9208 11.0683L8.93914 10.9905L8.9462 10.9199L8.93209 10.8385L8.89893 10.7643L8.85518 10.6973L8.79733 10.6418L8.72818 10.5936L8.65198 10.5597L8.56449 10.5374L8.46995 10.5302L8.36835 10.5266L8.2597 10.523H8.14681L8.03039 10.5266L7.91045 10.5338L7.79403 10.5453L7.67832 10.5561L7.56544 10.5712L7.45608 10.5856L7.35095 10.6044L7.2564 10.6231L7.16962 10.6418L7.08919 10.6642L7.02357 10.6858L6.97277 10.7124L6.93326 10.734L7.19079 9.84004L7.27122 9.80691L7.35095 9.77737L7.43844 9.75072L7.52522 9.73271L7.61271 9.71398L7.70725 9.69885L7.80179 9.68444L7.89987 9.67652L8.00147 9.66931L8.10659 9.66571L8.21595 9.66211H8.32884H8.44455H8.56449L8.6922 9.66571L8.8192 9.66931L8.9208 9.67652L9.03016 9.69525L9.14234 9.72118L9.25876 9.75504L9.37164 9.79898L9.4803 9.85157L9.58966 9.91425L9.69126 9.98484L9.78227 10.0662L9.862 10.1556L9.93467 10.2557L9.989 10.3667L10.0257 10.4855L10.0476 10.6116V10.7528L10.0257 10.9012L9.6588 12.8606Z" stroke="white" stroke-width="0.22" stroke-miterlimit="2.61"/>
<path fill-rule="evenodd" clip-rule="evenodd" d="M8.78308 11.8924L8.77955 11.8744L8.76544 11.8557L8.74357 11.8442L8.70688 11.837L8.66737 11.8298L8.6201 11.8262H8.56506H8.51074L8.45288 11.8298L8.39079 11.837L8.33294 11.8442L8.27438 11.8521L8.22005 11.8593L8.16925 11.8708L8.12551 11.8816L8.08529 11.8924L8.05989 11.9004L8.03096 11.9112L7.99075 11.9263L7.95123 11.945L7.90396 11.9666L7.85669 11.9933L7.80589 12.0192L7.75862 12.0488L7.70782 12.0855L7.66055 12.123L7.6168 12.1676L7.57659 12.2116L7.5406 12.2598L7.5152 12.3117L7.49333 12.3715L7.48204 12.4306L7.47852 12.5566L7.49686 12.6575L7.53355 12.731L7.58012 12.7872L7.63515 12.8239L7.69653 12.8462L7.75509 12.8578L7.81295 12.8614L7.92231 12.8578L8.02038 12.8462L8.11492 12.8318L8.19818 12.8095L8.27085 12.7836L8.33999 12.7497L8.40208 12.7166L8.45641 12.6755L8.50368 12.6388L8.54742 12.5941L8.58341 12.553L8.61233 12.5084L8.63773 12.4644L8.65961 12.4198L8.67795 12.3787L8.68853 12.3384L8.71817 12.2303L8.74357 12.1078L8.76544 11.989L8.78308 11.8924Z" fill="#E40420"/>
<path fill-rule="evenodd" clip-rule="evenodd" d="M2.01191 13.6825H1.02344L1.84893 8.81055H3.56765L3.73134 11.7015L4.91949 8.81055H6.71511L5.87198 13.6825H4.8835L5.50862 10.0424H5.4684L3.98957 13.6825H2.87339L2.86633 13.5305L2.84093 13.1264L2.80777 12.5508L2.77179 11.8902L2.7351 11.226L2.70265 10.6439L2.67725 10.2211L2.67019 10.0424H2.6589H2.63703H2.61516L2.01191 13.6825Z" fill="white"/>
<path d="M2.01191 13.6825H1.02344L1.84893 8.81055H3.56765L3.73134 11.7015L4.91949 8.81055H6.71511L5.87198 13.6825H4.8835L5.50862 10.0424H5.4684L3.98957 13.6825H2.87339L2.86633 13.5305L2.84093 13.1264L2.80777 12.5508L2.77179 11.8902L2.7351 11.226L2.70265 10.6439L2.67725 10.2211L2.67019 10.0424H2.6589H2.63703H2.61516L2.01191 13.6825Z" stroke="white" stroke-width="0.22" stroke-miterlimit="2.61"/>
<path fill-rule="evenodd" clip-rule="evenodd" d="M27.6951 12.8606L27.5463 13.684H26.634L26.6411 13.532L26.6453 13.3988V13.2986L26.6523 13.254L26.6051 13.3094L26.5507 13.3649L26.4851 13.4168L26.4125 13.4694L26.3363 13.5169L26.2488 13.5616L26.1578 13.6062L26.0674 13.6437L25.9687 13.6732L25.8671 13.7028L25.7655 13.7215L25.6639 13.7359L25.558 13.7438L25.4564 13.7474L25.3584 13.7359L25.2603 13.7215L25.1298 13.6876L25.0134 13.6509L24.9118 13.6026L24.8172 13.5472L24.7368 13.4874L24.6676 13.4211L24.6098 13.3505L24.559 13.2763L24.5152 13.1985L24.4828 13.1164L24.4538 13.035L24.4355 12.9536L24.4207 12.8678L24.4101 12.7828L24.4023 12.7007V12.6193L24.4101 12.4745L24.432 12.3376L24.4644 12.2072L24.5117 12.0812L24.566 11.9623L24.6352 11.855L24.7114 11.7512L24.7953 11.6583L24.8899 11.5726L24.988 11.4948L25.0931 11.4242L25.206 11.3651L25.3181 11.3132L25.4381 11.2722L25.558 11.239L25.6822 11.2167H25.6893L25.7076 11.2131L25.733 11.2095L25.769 11.2059L25.8163 11.198L25.8671 11.1944L25.9214 11.1872L25.98 11.1793L26.042 11.172L26.107 11.1648L26.169 11.1612L26.2304 11.1533L26.289 11.1497L26.3398 11.1461L26.3906 11.1425H26.4308H26.5176L26.6051 11.1461L26.6883 11.1497H26.7688L26.8372 11.1533L26.8958 11.1576L26.9282 11.1612H26.943L26.9501 11.1353L26.9614 11.0683L26.972 10.9905L26.979 10.9199L26.9649 10.8385L26.936 10.7643L26.8887 10.6973L26.8337 10.6418L26.7688 10.5936L26.6919 10.5597L26.6121 10.5374L26.5253 10.5302L26.423 10.5266L26.3144 10.523H26.2015L26.0851 10.5266L25.9651 10.5338L25.8487 10.5453L25.733 10.5561L25.6201 10.5712L25.5108 10.5856L25.4056 10.6044L25.3111 10.6231L25.2243 10.6418L25.1439 10.6642L25.079 10.6858L25.0275 10.7124L24.988 10.734L25.2419 9.84004L25.3224 9.80691L25.4056 9.77737L25.4896 9.75072L25.5764 9.73271L25.6674 9.71398L25.7584 9.69885L25.853 9.68444L25.951 9.67652L26.0526 9.66931L26.1578 9.66571L26.2636 9.66211H26.3758H26.4887H26.6051L26.7285 9.66571L26.852 9.66931L26.9536 9.67652L27.063 9.69525L27.1759 9.72118L27.2916 9.75504L27.4045 9.79898L27.5173 9.85157L27.626 9.91425L27.7276 9.98484L27.8186 10.0662L27.9026 10.1556L27.9753 10.2557L28.0296 10.3667L28.0698 10.4855L28.0952 10.6116V10.7528L28.0769 10.9012L27.6951 12.8606Z" fill="white"/>
<path fill-rule="evenodd" clip-rule="evenodd" d="M27.5473 13.7065L27.5691 13.6841L27.718 12.8607L27.6743 12.8535L27.5254 13.6769L27.5473 13.6546V13.7065L27.5656 13.7029L27.5691 13.6841L27.5473 13.7065Z" fill="white"/>
<path fill-rule="evenodd" clip-rule="evenodd" d="M26.6129 13.6845L26.6348 13.7108H27.547V13.6582H26.6348L26.6566 13.6845H26.6129L26.6094 13.7108H26.6348L26.6129 13.6845Z" fill="white"/>
<path fill-rule="evenodd" clip-rule="evenodd" d="M26.6718 13.2659L26.6387 13.2363L26.6246 13.2961L26.6203 13.3963V13.5295L26.6133 13.6815H26.657L26.6641 13.5295L26.6718 13.3963L26.6676 13.2961V13.2659L26.6352 13.2363L26.6718 13.2659Z" fill="white"/>
<path fill-rule="evenodd" clip-rule="evenodd" d="M25.2578 13.7413L25.3594 13.7557L25.4575 13.7673L25.5591 13.7637L25.6649 13.7557L25.77 13.7413L25.8716 13.7226L25.9739 13.6931L26.0755 13.6635L26.1666 13.6261L26.2604 13.5814L26.3479 13.5367L26.4241 13.4849L26.5003 13.433L26.5659 13.3811L26.6245 13.3221L26.6717 13.2659L26.635 13.2363L26.5878 13.2918L26.537 13.3444L26.4714 13.3963L26.4022 13.4481L26.326 13.4928L26.2392 13.5367L26.1517 13.5814L26.0607 13.6189L25.9662 13.6484L25.8646 13.6779L25.763 13.6967L25.6649 13.7111L25.5591 13.719L25.4575 13.7226L25.3594 13.7111L25.2649 13.6967L25.2578 13.7413Z" fill="white"/>
<path fill-rule="evenodd" clip-rule="evenodd" d="M24.377 12.6152L24.3812 12.6966L24.3882 12.7788L24.3988 12.8674L24.4136 12.9531L24.432 13.0345L24.4609 13.1202L24.4934 13.2052L24.5406 13.283L24.5914 13.3608L24.65 13.4314L24.7227 13.502L24.8059 13.5611L24.9005 13.6209L25.0056 13.6692L25.1255 13.7059L25.2568 13.7398L25.2638 13.6951L25.1333 13.662L25.0204 13.6245L24.9223 13.5762L24.8278 13.5244L24.7516 13.4653L24.686 13.4019L24.6281 13.3313L24.5773 13.2607L24.5371 13.1829L24.5047 13.1051L24.475 13.0273L24.4574 12.9452L24.4426 12.8602L24.432 12.7788L24.4242 12.6966L24.4278 12.6152H24.377Z" fill="white"/>
<path fill-rule="evenodd" clip-rule="evenodd" d="M25.6822 11.1934L25.5545 11.2157L25.431 11.2488L25.3111 11.2899L25.1947 11.3418L25.0825 11.4016L24.9731 11.4758L24.8751 11.5536L24.7805 11.6422L24.6937 11.7351L24.6168 11.8388L24.5442 11.9505L24.4898 12.073L24.4426 12.199L24.4101 12.3323L24.3882 12.4735L24.377 12.6183H24.4278L24.432 12.4735L24.4539 12.3402L24.4863 12.2142L24.5336 12.0874L24.5879 11.9728L24.6535 11.8691L24.7297 11.7646L24.8095 11.6724L24.904 11.5903L25.0021 11.5125L25.1044 11.4455L25.2166 11.3864L25.3259 11.3346L25.4459 11.2935L25.5623 11.2604L25.6822 11.238V11.1934Z" fill="white"/>
<path fill-rule="evenodd" clip-rule="evenodd" d="M26.4322 11.1152H26.392L26.3412 11.1224L26.2904 11.126L26.2318 11.1304L26.1704 11.1376L26.1083 11.1412L26.0434 11.1484L25.9813 11.1563L25.9228 11.1635L25.8684 11.1707L25.8176 11.1743L25.7704 11.1822L25.7344 11.1858L25.7048 11.1894L25.6906 11.193H25.6836V11.2377H25.6906L25.7125 11.2341L25.7344 11.2305L25.7704 11.2262L25.8176 11.219L25.8684 11.2154L25.9228 11.2082L25.9813 11.2002L26.0434 11.193L26.1083 11.1858L26.1704 11.1822L26.2318 11.1743L26.2904 11.1707L26.3412 11.1671H26.392H26.4322V11.1152Z" fill="white"/>
<path fill-rule="evenodd" clip-rule="evenodd" d="M26.922 11.1563L26.9439 11.1376H26.9291L26.8966 11.134L26.838 11.1304L26.7696 11.1224H26.6892H26.6059L26.5184 11.1152H26.4316V11.1671H26.5184H26.6059L26.6892 11.1743H26.7696H26.838L26.8966 11.1779L26.9291 11.1822H26.9439L26.9657 11.1635L26.9439 11.1822L26.9622 11.1858L26.9657 11.1635L26.922 11.1563Z" fill="white"/>
<path fill-rule="evenodd" clip-rule="evenodd" d="M26.9579 10.9199H26.9543L26.9508 10.9905L26.9402 11.0647L26.9289 11.1317L26.9219 11.1577L26.9656 11.1649L26.9727 11.1389L26.984 11.0719L26.9945 10.9905L27.0051 10.9199H27.0016H26.9579Z" fill="white"/>
<path fill-rule="evenodd" clip-rule="evenodd" d="M26.5254 10.5502V10.5538L26.6086 10.5574L26.6848 10.5798L26.7575 10.6136L26.8196 10.6576L26.8704 10.7101L26.9141 10.7728L26.9431 10.8398L26.9572 10.9176H27.0009L26.9868 10.8319L26.9572 10.7505L26.9064 10.6799L26.8485 10.6208L26.7794 10.5689L26.6997 10.5351L26.6157 10.5128L26.5254 10.502V10.5056V10.5502Z" fill="white"/>
<path fill-rule="evenodd" clip-rule="evenodd" d="M24.9668 10.7315L25.0028 10.7538L25.0395 10.7351L25.0867 10.7091L25.1481 10.6868L25.2286 10.6652L25.3153 10.6464L25.4099 10.6277L25.5157 10.609L25.6208 10.5946L25.7337 10.5795L25.8494 10.5686L25.9659 10.5571L26.0858 10.5499H26.2022H26.3151H26.4238L26.5261 10.5535V10.5089L26.4238 10.5053L26.3151 10.498H26.2022L26.0858 10.5053L25.9659 10.5125L25.8494 10.524L25.7337 10.5348L25.6208 10.5499L25.508 10.565L25.4028 10.5831L25.3083 10.6018L25.2208 10.6205L25.1411 10.6428L25.0719 10.6652L25.0176 10.6911L24.9739 10.717L25.0105 10.7394L24.9668 10.7315Z" fill="white"/>
<path fill-rule="evenodd" clip-rule="evenodd" d="M25.2356 9.81836L25.2208 9.83709L24.9668 10.7311L25.0105 10.739L25.2645 9.84429L25.2504 9.86302L25.2356 9.81836L25.225 9.82196L25.2208 9.83709L25.2356 9.81836Z" fill="white"/>
<path fill-rule="evenodd" clip-rule="evenodd" d="M26.8534 9.64557L26.73 9.63837L26.6065 9.63477H26.4901H26.3772H26.265L26.1592 9.64197L26.0541 9.64557L25.9525 9.6535L25.8544 9.6607L25.7563 9.67511L25.6653 9.69023L25.5743 9.70897L25.4868 9.7277L25.4 9.75363L25.3161 9.78317L25.2363 9.8163L25.2511 9.86097L25.3309 9.82783L25.4141 9.79757L25.4946 9.77164L25.5813 9.75363L25.6724 9.7349L25.7634 9.71977L25.8544 9.70536L25.9525 9.69744L26.0541 9.69023L26.1592 9.68663H26.265H26.3772H26.4901H26.6065L26.73 9.69023H26.8534V9.64557Z" fill="white"/>
<path fill-rule="evenodd" clip-rule="evenodd" d="M28.0983 10.9043L28.1166 10.7523V10.6111L28.0912 10.4814L28.051 10.359L27.9931 10.2444L27.9198 10.14L27.833 10.0477L27.742 9.96562L27.6368 9.89502L27.5275 9.82874L27.4111 9.77687L27.2989 9.73221L27.1789 9.69835L27.0661 9.67242L26.9532 9.65441L26.8516 9.64648V9.69115L26.9532 9.69835L27.059 9.71708L27.1712 9.74302L27.2841 9.77687L27.397 9.82082L27.5056 9.87269L27.615 9.93248L27.713 10.0031L27.8041 10.0845L27.8838 10.1695L27.9565 10.266L28.0073 10.3741L28.0475 10.4886L28.0729 10.6111V10.7523L28.0545 10.8971L28.0983 10.9043Z" fill="white"/>
<path fill-rule="evenodd" clip-rule="evenodd" d="M27.7176 12.8631L28.0993 10.9037L28.0555 10.8965L27.6738 12.8559L27.7176 12.8631Z" fill="white"/>
<path fill-rule="evenodd" clip-rule="evenodd" d="M26.8166 11.8882L26.8088 11.8666L26.7947 11.8479L26.7693 11.8364L26.7326 11.8256L26.6924 11.822L26.6459 11.8184H26.5908L26.5365 11.822L26.4786 11.8292L26.4201 11.8364L26.3622 11.8443L26.3072 11.8515L26.2529 11.8623L26.2056 11.8702L26.1583 11.881L26.1223 11.8882L26.0969 11.8926L26.068 11.9034L26.0313 11.9142L25.9911 11.9293L25.9438 11.9516L25.9008 11.974L25.8493 11.9999L25.802 12.033L25.7555 12.0669L25.7082 12.1072L25.668 12.1483L25.6277 12.1966L25.5953 12.2484L25.5699 12.3039L25.548 12.3637L25.5374 12.4264L25.5332 12.5524L25.5515 12.6533L25.5805 12.7268L25.6242 12.783L25.6785 12.8197L25.7406 12.842L25.802 12.8536L25.8641 12.8572L25.9735 12.8536L26.0751 12.842L26.1696 12.8233L26.2529 12.7974L26.3333 12.7678L26.4017 12.7347L26.4674 12.6972L26.5259 12.6533L26.5767 12.6122L26.6198 12.564L26.66 12.5193L26.6924 12.471L26.7185 12.4264L26.7362 12.3817L26.751 12.3378L26.7616 12.2967L26.7764 12.193L26.7947 12.0849L26.8088 11.9812L26.8166 11.8882Z" fill="#FAB51D"/>
<path fill-rule="evenodd" clip-rule="evenodd" d="M34.3027 13.1752L34.3105 13.0895L34.3394 12.9894L34.3902 12.9L34.4516 12.8222L34.5285 12.7596L34.6153 12.7149L34.7098 12.6854L34.8114 12.6738L34.9137 12.6854L35.0076 12.7149L35.0951 12.7596L35.1713 12.8222L35.2334 12.9L35.2842 12.9894L35.3131 13.0895L35.3201 13.1752H35.2115L35.208 13.1082L35.1861 13.0268L35.1494 12.9526L35.1021 12.8892L35.0443 12.8374L34.9751 12.7999L34.8954 12.774L34.8114 12.7668L34.7282 12.774L34.6485 12.7999L34.5793 12.8374L34.5207 12.8892L34.4735 12.9526L34.4375 13.0268L34.4156 13.1082L34.4086 13.1752H34.3027Z" fill="white"/>
<path fill-rule="evenodd" clip-rule="evenodd" d="M34.6289 13.1738V12.9512H34.8286L34.8723 12.9548L34.9125 12.962L34.9415 12.9728L34.9669 12.9879L34.9852 13.0102L34.9993 13.0326L35.0064 13.0585L35.0106 13.0844L35.0064 13.1176L34.9993 13.1435L34.9887 13.1658L34.981 13.1738H34.8286L34.8434 13.1695L34.8688 13.1658L34.8907 13.1586L34.9083 13.1514L34.9231 13.1399L34.9302 13.1291L34.9379 13.1104V13.0844L34.9337 13.0657L34.9266 13.0513L34.9161 13.0434L34.9048 13.0362L34.8864 13.0326L34.8688 13.029H34.8504H34.8286H34.7199V13.1738H34.6289Z" fill="white"/>
<path fill-rule="evenodd" clip-rule="evenodd" d="M34.3024 13.1738L34.2988 13.1962L34.3101 13.3035L34.339 13.4036L34.3898 13.493L34.4512 13.5672L34.5281 13.6298L34.6149 13.6781L34.7095 13.7076L34.8111 13.7192L34.9134 13.7076L35.0072 13.6781L35.0947 13.6298L35.1709 13.5672L35.233 13.493L35.2838 13.4036L35.3127 13.3035L35.324 13.1962L35.3198 13.1738H35.2111L35.2146 13.1962L35.2076 13.2848L35.1857 13.3662L35.149 13.4368L35.1017 13.5002L35.0439 13.552L34.9747 13.5931L34.895 13.619L34.8111 13.6262L34.7278 13.619L34.6481 13.5931L34.5789 13.552L34.5204 13.5002L34.4731 13.4368L34.4371 13.3662L34.4152 13.2848L34.4082 13.1962V13.1738H34.3024Z" fill="white"/>
<path fill-rule="evenodd" clip-rule="evenodd" d="M34.6289 13.1738V13.4H34.7199V13.2142H34.8102L34.9196 13.4H34.9923L34.8829 13.2142H34.9083L34.9337 13.207L34.9556 13.1998L34.9739 13.1846L34.981 13.1738H34.8286L34.8102 13.1774H34.7199V13.1738H34.6289Z" fill="white"/>
<path d="M34.8118 13.1781L34.8442 13.1709L34.8696 13.1673L34.8915 13.1601L34.9098 13.1529L34.9247 13.1421L34.9317 13.1313L34.9388 13.1125V13.0866L34.9352 13.0679L34.9282 13.0528L34.9176 13.0455L34.907 13.0383L34.8887 13.0347L34.8703 13.0311H34.7215V13.1795H34.8125M34.2988 13.1968L34.3094 13.0895L34.3383 12.9894L34.3891 12.9L34.4512 12.8222L34.5274 12.7588L34.6149 12.7142L34.7095 12.6846L34.8111 12.6738L34.9127 12.6846L35.0072 12.7142L35.0947 12.7588L35.1709 12.8222L35.233 12.9L35.2838 12.9894L35.3127 13.0895L35.3233 13.1968L35.3127 13.3042L35.2838 13.4043L35.233 13.4936L35.1709 13.5678L35.0947 13.6312L35.0072 13.6795L34.9127 13.709L34.8111 13.7198L34.7095 13.709L34.6149 13.6795L34.5274 13.6312L34.4512 13.5678L34.3891 13.4936L34.3383 13.4043L34.3094 13.3042L34.2988 13.1968ZM34.7207 13.4007H34.6297V12.9519H34.8294L34.8731 12.9555L34.9134 12.9627L34.9423 12.9735L34.9677 12.9886L34.986 13.011L35.0008 13.0333L35.0079 13.0592L35.0114 13.0852L35.0079 13.1183L35.0008 13.1442L34.9903 13.1666L34.9755 13.1853L34.9571 13.2004L34.9352 13.2076L34.9098 13.2148H34.8844L34.9938 13.4007H34.9211L34.8118 13.2148H34.7207V13.4007ZM34.8125 13.6283L34.8964 13.6211L34.9762 13.5952L35.0453 13.5541L35.1032 13.5023L35.1504 13.4396L35.1871 13.369L35.209 13.2876L35.216 13.1983L35.209 13.1089L35.1871 13.0275L35.1504 12.9533L35.1032 12.8899L35.0453 12.8381L34.9762 12.8013L34.8964 12.7754L34.8125 12.7682L34.7292 12.7754L34.6495 12.8013L34.5803 12.8381L34.5225 12.8899L34.4752 12.9533L34.4392 13.0275L34.4174 13.1089L34.4103 13.1983L34.4174 13.2876L34.4392 13.369L34.4752 13.4396L34.5225 13.5023L34.5803 13.5541L34.6495 13.5952L34.7292 13.6211L34.8125 13.6283Z" stroke="white" stroke-width="0.22" stroke-miterlimit="2.61"/>
<path fill-rule="evenodd" clip-rule="evenodd" d="M27.9688 13.6847H28.9939L29.3608 11.5732L29.3756 11.4918L29.3975 11.4104L29.4194 11.3283L29.4483 11.2469L29.4843 11.1655L29.528 11.0877L29.5753 11.0135L29.6331 10.9429L29.6988 10.8795L29.7714 10.8204L29.8554 10.7649L29.9499 10.7203L30.0551 10.6828L30.1715 10.6533L30.2985 10.6309L30.4403 10.6237H30.4911H30.52H30.5313L30.6943 9.66992L30.5927 9.67713L30.4946 9.68865L30.4036 9.70738L30.3168 9.73332L30.2371 9.76285L30.1602 9.79959L30.0875 9.84065L30.0184 9.88532L29.9535 9.93719L29.8914 9.98906L29.8335 10.0488L29.775 10.1079L29.7206 10.1706L29.6663 10.2412L29.612 10.3082L29.5605 10.3824L29.6698 9.71098H28.6489L27.9688 13.6847Z" fill="white"/>
<path d="M27.9688 13.6847H28.9939L29.3608 11.5732L29.3756 11.4918L29.3975 11.4104L29.4194 11.3283L29.4483 11.2469L29.4843 11.1655L29.528 11.0877L29.5753 11.0135L29.6331 10.9429L29.6988 10.8795L29.7714 10.8204L29.8554 10.7649L29.9499 10.7203L30.0551 10.6828L30.1715 10.6533L30.2985 10.6309L30.4403 10.6237H30.4911H30.52H30.5313L30.6943 9.66992L30.5927 9.67713L30.4946 9.68865L30.4036 9.70738L30.3168 9.73332L30.2371 9.76285L30.1602 9.79959L30.0875 9.84065L30.0184 9.88532L29.9535 9.93719L29.8914 9.98906L29.8335 10.0488L29.775 10.1079L29.7206 10.1706L29.6663 10.2412L29.612 10.3082L29.5605 10.3824L29.6698 9.71098H28.6489L27.9688 13.6847Z" stroke="white" stroke-width="0.22" stroke-miterlimit="2.61"/>
<path fill-rule="evenodd" clip-rule="evenodd" d="M18.3457 13.6847H19.3709H19.3885L19.7378 11.5732L19.7519 11.4918L19.7702 11.414L19.7886 11.3362L19.814 11.262L19.8429 11.1878L19.8796 11.1172L19.9233 11.0502L19.9741 10.9875L20.032 10.9313L20.0976 10.8759L20.1773 10.8312L20.2648 10.7908L20.3664 10.757L20.4793 10.7275L20.6028 10.7087L20.7446 10.6979H20.7552L20.77 10.7015L20.7876 10.7051H20.806L20.8243 10.7087L20.8391 10.713L20.8497 10.7166H20.8532L20.8568 10.7015L20.868 10.6569L20.8822 10.5906L20.9005 10.5085L20.9259 10.4119L20.9513 10.3082L20.9845 10.2045L21.0169 10.1007L21.0458 10.0301L21.0825 9.95952L21.1185 9.88892L21.1552 9.82553L21.1877 9.77006L21.2131 9.72539L21.2314 9.69946L21.2385 9.68865H21.2349L21.2201 9.68505L21.2025 9.68145L21.1771 9.67713H21.151L21.122 9.67352L21.0966 9.66992H21.0712L20.9584 9.67713L20.8568 9.68865L20.7622 9.70738L20.6754 9.72971L20.5915 9.75925L20.5153 9.79599L20.4461 9.83345L20.3812 9.87811L20.3191 9.92638L20.2613 9.98185L20.2062 10.0373L20.1519 10.1007L20.0976 10.1634L20.0468 10.234L19.9918 10.3082L19.9374 10.3824L20.0687 9.71098H19.0251L18.3457 13.6847Z" fill="white"/>
<path d="M18.3457 13.6847H19.3709H19.3885L19.7378 11.5732L19.7519 11.4918L19.7702 11.414L19.7886 11.3362L19.814 11.262L19.8429 11.1878L19.8796 11.1172L19.9233 11.0502L19.9741 10.9875L20.032 10.9313L20.0976 10.8759L20.1773 10.8312L20.2648 10.7908L20.3664 10.757L20.4793 10.7275L20.6028 10.7087L20.7446 10.6979H20.7552L20.77 10.7015L20.7876 10.7051H20.806L20.8243 10.7087L20.8391 10.713L20.8497 10.7166H20.8532L20.8568 10.7015L20.868 10.6569L20.8822 10.5906L20.9005 10.5085L20.9259 10.4119L20.9513 10.3082L20.9845 10.2045L21.0169 10.1007L21.0458 10.0301L21.0825 9.95952L21.1185 9.88892L21.1552 9.82553L21.1877 9.77006L21.2131 9.72539L21.2314 9.69946L21.2385 9.68865H21.2349L21.2201 9.68505L21.2025 9.68145L21.1771 9.67713H21.151L21.122 9.67352L21.0966 9.66992H21.0712L20.9584 9.67713L20.8568 9.68865L20.7622 9.70738L20.6754 9.72971L20.5915 9.75925L20.5153 9.79599L20.4461 9.83345L20.3812 9.87811L20.3191 9.92638L20.2613 9.98185L20.2062 10.0373L20.1519 10.1007L20.0976 10.1634L20.0468 10.234L19.9918 10.3082L19.9374 10.3824L20.0687 9.71098H19.0251L18.3457 13.6847Z" stroke="white" stroke-width="0.22" stroke-miterlimit="2.61"/>
</g>
<defs>
<clipPath id="clip0_489_37183">
<rect width="36" height="22.0035" fill="white"/>
</clipPath>
</defs>
</svg>
