<svg width="32" height="32" viewBox="0 0 32 32" fill="none" xmlns="http://www.w3.org/2000/svg">
<line x1="2" y1="29.8002" x2="30" y2="29.8002" stroke="black" stroke-width="2"/>
<path d="M10.6436 26.631L3 28.0244L4.39338 20.3763" stroke="black" stroke-width="2" stroke-linecap="round" stroke-linejoin="round"/>
<path d="M10.6435 26.6312L28.7174 8.5573C28.8068 8.47057 28.8778 8.36678 28.9264 8.25207C28.9749 8.13737 28.9999 8.01409 28.9999 7.88954C28.9999 7.765 28.9749 7.64172 28.9264 7.52701C28.8778 7.41231 28.8068 7.30852 28.7174 7.22179L23.7805 2.30712C23.6937 2.21773 23.5899 2.14666 23.4752 2.09813C23.3605 2.0496 23.2372 2.0246 23.1127 2.0246C22.9882 2.0246 22.8649 2.0496 22.7502 2.09813C22.6355 2.14666 22.5317 2.21773 22.4449 2.30712L4.39331 20.3766L10.6435 26.6312Z" stroke="black" stroke-width="2" stroke-linecap="round" stroke-linejoin="round"/>
<path d="M20.7444 4.02521L26.999 10.2754" stroke="black" stroke-width="2" stroke-linecap="round" stroke-linejoin="round"/>
</svg>
