<svg width="32" height="32" viewBox="0 0 32 32" fill="none" xmlns="http://www.w3.org/2000/svg">
<path d="M7.22274 24.5081L6.42146 23.9098L7.22274 24.5081ZM3.34093 29.7069L2.53965 29.1086L3.34093 29.7069ZM2.69993 2.83749H28.9123V0.837494H2.69993V2.83749ZM2.89993 22.3247V2.63749H0.899927V22.3247H2.89993ZM2.8999 29.2283V22.3247H0.899902V29.2283H2.8999ZM6.42146 23.9098L2.53965 29.1086L4.14221 30.3052L8.02402 25.1064L6.42146 23.9098ZM28.9123 23.1867H7.86377V25.1867H28.9123V23.1867ZM28.7123 2.63749V23.3867H30.7123V2.63749H28.7123ZM28.9123 25.1867C29.9064 25.1867 30.7123 24.3808 30.7123 23.3867H28.7123C28.7123 23.2762 28.8018 23.1867 28.9123 23.1867V25.1867ZM8.02402 25.1064C7.98627 25.1569 7.92687 25.1867 7.86377 25.1867V23.1867C7.29585 23.1867 6.76124 23.4547 6.42146 23.9098L8.02402 25.1064ZM0.899902 29.2283C0.899902 30.9601 3.1061 31.6929 4.14221 30.3052L2.53965 29.1086C2.55705 29.0853 2.59619 29.0533 2.65017 29.0381C2.69693 29.0249 2.73565 29.0294 2.76295 29.0385C2.79024 29.0476 2.82398 29.0671 2.85356 29.1056C2.88771 29.1501 2.8999 29.1992 2.8999 29.2283H0.899902ZM1.89991 21.3247C1.34719 21.3247 0.899902 21.7729 0.899902 22.3247H2.8999C2.8999 22.8766 2.45262 23.3247 1.89991 23.3247V21.3247ZM0.899927 22.3247C0.899927 21.7724 1.34764 21.3247 1.89991 21.3247V23.3247C2.45221 23.3247 2.89993 22.877 2.89993 22.3247H0.899927ZM28.9123 2.83749C28.8018 2.83749 28.7123 2.74795 28.7123 2.63749H30.7123C30.7123 1.64338 29.9064 0.837494 28.9123 0.837494V2.83749ZM2.69993 0.837494C1.70581 0.837494 0.899927 1.64338 0.899927 2.63749H2.89993C2.89993 2.74795 2.81038 2.83749 2.69993 2.83749V0.837494Z" fill="black"/>
<circle cx="9.72205" cy="13.0121" r="1.86243" fill="black"/>
<circle cx="15.3092" cy="13.0125" r="1.86243" fill="black"/>
<circle cx="20.8966" cy="13.0125" r="1.86243" fill="black"/>
</svg>
