<svg width="75" height="22" viewBox="0 0 75 22" fill="none" xmlns="http://www.w3.org/2000/svg">
<g clip-path="url(#clip0_489_37294)">
<path d="M71.672 15.7811L72.6075 18.2936C72.7049 18.5751 72.8107 18.9087 72.8809 19.1631H72.8987C72.9783 18.9087 73.0663 18.5835 73.1721 18.2759L74.0196 15.7811H74.8409L73.675 18.8128C73.1187 20.2724 72.7395 21.0189 72.2084 21.4755C71.9786 21.6814 71.7086 21.8379 71.4154 21.9353C71.3515 21.8216 71.0602 21.3254 71.0602 21.3254C71.3089 21.2438 71.5397 21.1157 71.7401 20.948C72.0223 20.7154 72.2461 20.4205 72.3938 20.0868C72.4252 20.0294 72.4461 19.967 72.4556 19.9023C72.4485 19.8325 72.4305 19.7643 72.4022 19.7L70.8214 15.7811H71.672ZM53.7784 15.6841C55.0847 15.6841 55.4032 16.5713 55.4032 17.4241V19.0151C55.3973 19.3563 55.4208 19.6974 55.4734 20.0347H54.7673L54.7055 19.4988H54.6804C54.5287 19.6999 54.3312 19.8622 54.104 19.9723C53.8768 20.0823 53.6266 20.137 53.374 20.1317C52.5087 20.1317 52.0677 19.5249 52.0677 18.9098C52.0677 17.8818 52.9854 17.3199 54.6374 17.3282V17.2407C54.6374 16.8893 54.54 16.2565 53.6663 16.2565C53.3085 16.2583 52.9569 16.3486 52.6428 16.5192L52.3757 16.0626C52.7988 15.8092 53.2846 15.6785 53.7784 15.6852V15.6841ZM68.3177 15.6841C69.624 15.6841 69.9425 16.5713 69.9425 17.4241V19.0151C69.9366 19.3563 69.9601 19.6974 70.0127 20.0347H69.3066L69.2448 19.4988H69.2186C69.067 19.6999 68.8694 19.8622 68.6422 19.9723C68.4151 20.0823 68.1649 20.137 67.9123 20.1317C67.047 20.1317 66.6059 19.5249 66.6059 18.9098C66.6059 17.8818 67.5247 17.3199 69.1756 17.3282V17.2407C69.1756 16.8893 69.0782 16.2565 68.2045 16.2565C67.8468 16.2583 67.4951 16.3486 67.1811 16.5192L66.916 16.0626C67.3388 15.8094 67.8243 15.6787 68.3177 15.6852V15.6841ZM44.6331 14.016C45.3748 14.016 45.843 14.1745 46.0452 14.2798C46.0452 14.2798 45.8106 14.6864 45.7142 14.8407C45.3768 14.716 45.0192 14.6541 44.6593 14.6582C43.2639 14.6582 42.3368 15.5455 42.3368 17.101C42.3368 18.5512 43.1749 19.4822 44.6237 19.4822C44.9972 19.4843 45.3685 19.4233 45.7215 19.3018C45.7917 19.4238 46.0358 19.8429 46.0358 19.8429C45.7529 19.9836 45.1883 20.1244 44.4644 20.1244C42.7883 20.1244 41.5239 19.0703 41.5239 17.1281C41.5249 15.2744 42.7873 14.015 44.6331 14.015V14.016ZM38.8599 15.6841C40.2553 15.6841 40.6261 16.906 40.6261 17.6879C40.6249 17.8086 40.6161 17.9291 40.5999 18.0486H37.5976C37.6154 19.0912 38.2858 19.5249 39.0642 19.5249C39.4124 19.5339 39.7594 19.4805 40.0887 19.3675C40.1599 19.4842 40.3799 19.8585 40.3799 19.8585C39.9301 20.0452 39.4456 20.1351 38.9584 20.1223C37.6426 20.1223 36.8569 19.2611 36.8569 17.9777C36.8569 16.6944 37.6143 15.6852 38.862 15.6852L38.8599 15.6841ZM57.821 14.5592V15.7811H58.9335V16.3701H57.8231V18.6637C57.8231 19.1913 57.9729 19.4895 58.4055 19.4895C58.4694 19.4895 58.5271 19.4895 58.5805 19.4822C58.6716 19.6354 58.8948 20.0159 58.8948 20.0159C58.6737 20.0925 58.4404 20.1278 58.2065 20.1202C57.844 20.1202 57.5528 20.0055 57.3684 19.7949C57.1474 19.5666 57.0678 19.1892 57.0678 18.6877V16.3701H56.4057V15.7811H57.0678V14.5602L57.821 14.5592ZM63.7094 14.0671C64.4689 14.0671 65.0252 14.2433 65.3782 14.5592C65.705 14.8407 65.902 15.2713 65.902 15.7978C65.902 16.3243 65.7427 16.7559 65.4431 17.0634C65.0367 17.494 64.3746 17.714 63.6245 17.714C63.4171 17.7204 63.2097 17.7026 63.0065 17.6608V20.0337H62.2386V14.1818C62.7249 14.1035 63.2168 14.0655 63.7094 14.0682V14.0671ZM30.0226 14.1109L30.7286 17.1072C30.9057 17.8453 31.0639 18.5835 31.1697 19.1548H31.1875C31.2849 18.5657 31.4703 17.8631 31.6735 17.0989L32.4718 14.112H33.2753L33.9992 17.1166C34.1668 17.8193 34.326 18.522 34.4182 19.1465H34.436C34.5596 18.4959 34.7272 17.837 34.9126 17.0989L35.6983 14.1109H36.484L34.7974 20.0337H33.9939L33.2439 16.9498C33.0786 16.3131 32.9489 15.6678 32.8552 15.0169H32.8374C32.7156 15.6691 32.5586 16.3144 32.367 16.9498L31.529 20.0337H30.7255L29.2159 14.1109H30.0226ZM48.0136 13.7981V16.4514H48.0314C48.1629 16.2223 48.3554 16.0336 48.5877 15.9062C48.8288 15.7649 49.103 15.6891 49.3828 15.6862C49.9569 15.6862 50.8745 16.0375 50.8745 17.5055V20.0358H50.0972V17.592C50.0972 16.907 49.8416 16.3263 49.1083 16.3263C48.8751 16.3307 48.6492 16.4076 48.4622 16.5464C48.2752 16.6851 48.1367 16.8787 48.066 17.0999C48.0235 17.2181 48.0054 17.3436 48.0126 17.469V20.0347H47.2353V13.7961L48.0136 13.7981ZM52.8419 18.8191C52.8419 19.3195 53.1771 19.5572 53.5752 19.5572C53.801 19.5631 54.0229 19.4973 54.2086 19.3693C54.3943 19.2412 54.5343 19.0577 54.6081 18.8452C54.6355 18.7659 54.6503 18.6829 54.6521 18.5991V17.861C53.8046 17.8464 52.8419 17.9955 52.8419 18.8191ZM67.3811 18.8191C67.3811 19.3195 67.7164 19.5572 68.1144 19.5572C68.3403 19.5631 68.5622 19.4973 68.7479 19.3693C68.9336 19.2412 69.0735 19.0577 69.1474 18.8452C69.1748 18.7659 69.1896 18.6829 69.1914 18.5991V17.861C68.3439 17.8464 67.3811 17.9955 67.3811 18.8191ZM38.7981 16.2388C38.0124 16.2388 37.6678 16.9592 37.606 17.495H39.875C39.8834 17.003 39.6718 16.2388 38.7981 16.2388ZM63.7304 14.6749C63.4875 14.6682 63.2447 14.6889 63.0065 14.7364V17.0384C63.2151 17.085 63.4287 17.1057 63.6424 17.0999C64.5695 17.0999 65.1341 16.6516 65.1341 15.8343C65.131 15.0523 64.5747 14.6739 63.7272 14.6739L63.7304 14.6749ZM58.4988 1.32293V2.87842H63.1228V3.6864H58.4988V5.37534H62.2313C62.2313 5.37534 61.7525 7.80241 58.9555 9.84581C60.0869 10.439 61.5744 10.8592 63.3951 11.1428C63.3951 11.1428 63.1008 11.664 62.8493 12.0654C60.859 11.7214 59.3075 11.1188 58.0902 10.4119C56.8635 11.1365 55.2775 11.7672 53.2263 12.1217C53.0839 11.9132 52.6942 11.2251 52.6942 11.2251C54.5536 10.9353 56.0841 10.4672 57.2281 9.85624C54.4164 7.84932 53.8758 5.37325 53.8758 5.37325H57.5979V3.68431H52.7947V2.87842H57.5979V1.32293H58.4988ZM31.11 4.2963L31.8307 4.67683C31.4881 5.48689 31.1697 6.0384 31.0817 6.21147V12.0894H30.2719V7.4813C29.8068 8.10683 29.5386 8.4269 29.3982 8.58015L28.9404 7.79094C29.8078 6.87453 30.5767 5.61617 31.11 4.2963ZM66.8437 1.35525L67.7866 1.56376L67.7572 1.64091C67.3738 2.63863 67.0145 3.48832 66.6898 4.16598V12.0894H65.7846V5.87264C65.455 6.40475 65.0959 6.91813 64.7088 7.41041L64.2133 6.543C65.2755 5.10427 66.1691 3.35695 66.8196 1.41572L66.8437 1.35525ZM43.1309 1.35525L43.9846 1.56376C43.9846 1.56376 43.4409 3.26833 43.0251 4.17014V12.0936H42.1231V5.90391C41.7617 6.58157 41.5197 7.02675 41.2138 7.425L40.7256 6.58366C41.9901 4.99481 43.1277 1.35316 43.1277 1.35316L43.1309 1.35525ZM37.3891 1.3125L38.201 1.4741L38.1821 1.54707C38.0145 2.18616 37.8291 2.81378 37.6311 3.41429H40.0604V4.17849H39.4748C39.324 6.34804 38.9374 8.02864 38.3277 9.17545C38.8117 10.1138 39.7441 10.9916 40.0039 11.2293C39.9452 11.3408 39.5387 12.0331 39.5387 12.0331C39.5387 12.0331 38.1884 10.6569 37.8825 9.99073C37.5389 10.5652 36.9051 11.3096 36.0461 12.0758L35.6145 11.3127C35.6145 11.3127 36.7899 10.3421 37.4562 9.17024C37.0352 8.08974 36.76 6.95843 36.638 5.80591C36.4955 6.05508 36.418 6.18958 36.2745 6.4033C36.2745 6.4033 35.8953 5.74753 35.8178 5.62451C36.4997 4.43078 37.0109 3.02438 37.3755 1.38027L37.3891 1.3125ZM73.4382 1.40425V3.94808H75.0033V4.80089H73.4319V10.3389C73.4317 10.7623 73.2628 11.1683 72.9624 11.468C72.662 11.7678 72.2545 11.9368 71.8291 11.9382H70.7816V10.9999H71.8291C72.0063 10.9996 72.1762 10.9295 72.3014 10.8048C72.4267 10.6801 72.4972 10.5111 72.4975 10.3348V4.7988H67.487V3.946H72.4965V1.40216L73.4382 1.40425ZM50.9782 8.17147V11.8924H44.6237V8.16939L50.9782 8.17147ZM35.3694 7.72734V9.78222C35.5213 9.65399 35.9864 9.24739 36.1425 9.10873L36.5165 9.75303L34.8027 11.1928C34.8027 11.1928 34.4402 10.5673 34.3669 10.4515C34.4716 10.34 34.6026 10.1096 34.6026 9.66962V8.48841H33.0448C33.0448 10.2462 32.9736 10.8863 31.7961 11.7985C31.7961 11.7985 31.5122 11.3002 31.3855 11.0917C32.3974 10.2962 32.277 9.20881 32.277 7.72526L35.3694 7.72734ZM50.1203 8.97841H45.5256V11.1271H50.1182L50.1203 8.97841ZM60.9658 6.17289H55.1622C55.4943 6.86098 56.3146 8.1892 58.0955 9.34435C59.8596 8.17147 60.6578 6.8297 60.9658 6.17289ZM69.3118 6.11764L70.9502 8.7063L70.0965 9.17024L68.5628 6.56385L69.3118 6.11764ZM38.7049 4.1764H37.3682C37.3545 4.23061 37.2288 4.54546 37.2005 4.60698C37.3671 6.19791 37.6133 7.42187 37.9339 8.23611C38.3309 7.28738 38.5907 5.92372 38.7049 4.1764ZM51.0662 6.39079V7.15498H44.5346V6.39079H51.0662ZM35.7717 5.99045V6.75464H32.1051V5.99566L35.7717 5.99045ZM51.0662 4.61219V5.37638H44.5346V4.61219H51.0662ZM34.3847 1.50121V4.30255H35.2143V2.30084H35.9372V5.02087H32.0213V2.34672H32.7861V4.30255H33.6147V1.50121H34.3847ZM31.1487 1.31563L31.8569 1.77748C31.2805 2.97648 30.4827 4.05692 29.5051 4.96249L29.0777 4.22332C29.8529 3.47893 30.5862 2.42908 31.1498 1.31459L31.1487 1.31563ZM47.7947 1.3542L48.4316 2.79085H51.6895V3.59778H43.9543V2.7898H47.5286L47.0645 1.66906L47.7947 1.3542Z" fill="#4D4D4D"/>
<path d="M9.11075 13.9191C8.91855 14.0147 8.69681 14.0331 8.49133 13.9706C8.28585 13.9082 8.11233 13.7695 8.00661 13.5834L7.95213 13.4645L5.67261 8.48112C5.64721 8.42614 5.63365 8.36648 5.6328 8.30597C5.634 8.22941 5.65634 8.15465 5.6974 8.08989C5.73846 8.02513 5.79664 7.97288 5.86557 7.93885C5.93449 7.90482 6.0115 7.89033 6.08815 7.89698C6.1648 7.90363 6.23813 7.93115 6.30011 7.97652L8.99133 9.88336C9.15382 9.98975 9.33914 10.0567 9.53237 10.0788C9.7256 10.1009 9.92135 10.0775 10.1038 10.0106L22.7596 4.40056C20.4905 1.73996 16.7549 0.000976562 12.5269 0.000976562C5.6129 0.000976562 0 4.65286 0 10.3911C0 13.5187 1.68764 16.3399 4.32857 18.2446C4.43693 18.3219 4.5252 18.4238 4.58605 18.5419C4.64691 18.6599 4.67859 18.7907 4.67846 18.9234C4.67603 19.0132 4.66123 19.1023 4.63447 19.1882L4.06982 21.2837C4.03461 21.3816 4.01208 21.4835 4.00278 21.5871C4.00278 21.6977 4.04693 21.8038 4.12551 21.882C4.20409 21.9602 4.31068 22.0041 4.42181 22.0041C4.50769 22.0007 4.59101 21.974 4.66275 21.927L7.4053 20.3517C7.60582 20.2297 7.83553 20.1634 8.07051 20.1598C8.19515 20.16 8.31907 20.1786 8.43821 20.2151C9.76674 20.5934 11.1419 20.785 12.5237 20.7843C19.4377 20.7843 25.0517 16.1324 25.0517 10.3942C25.0458 8.68711 24.5521 7.01689 23.628 5.57865L9.20398 13.867L9.11075 13.9191Z" fill="#1AAD19"/>
</g>
<defs>
<clipPath id="clip0_489_37294">
<rect width="75" height="22" fill="white"/>
</clipPath>
</defs>
</svg>
