<svg width="35" height="22" viewBox="0 0 35 22" fill="none" xmlns="http://www.w3.org/2000/svg">
<g clip-path="url(#clip0_489_37253)">
<path d="M33.2739 -0.0341797H24.6536H24.6344C23.455 0.00370596 21.9783 0.941376 21.7098 2.09689L17.625 19.9031C17.3565 21.0681 18.0852 22.0247 19.2647 22.0342H28.3165C29.4767 21.9774 30.5986 21.0492 30.8671 19.9031L34.9424 2.09689C35.2205 0.922433 34.4725 -0.0341797 33.2739 -0.0341797Z" fill="#01798A"/>
<path d="M17.6249 19.9031L21.7097 2.09689C21.9782 0.941376 23.4549 0.00370596 24.6343 -0.0341797H21.2111H15.0359C13.8469 -0.00576545 12.351 0.931904 12.0825 2.09689L8.00729 19.9031C7.7388 21.0681 8.46755 22.0247 9.64698 22.0342H19.2742C18.0947 22.0247 17.3564 21.0776 17.6249 19.9031Z" fill="#024381"/>
<path d="M8.00716 19.9031L12.0824 2.09689C12.3509 0.931904 13.8468 -0.0152369 15.0358 -0.0341797H7.12499C5.92638 -0.0341797 4.40176 0.922433 4.12368 2.10636L0.0484324 19.9031C0.0196659 20.0073 0.0100771 20.121 0.000488281 20.2252V20.5567C0.0771989 21.4091 0.738828 22.0247 1.68812 22.0437H9.64685C8.46742 22.0247 7.73867 21.0776 8.00716 19.9031Z" fill="#DD0228"/>
<path d="M15.199 12.9412H15.3524C15.4866 12.9412 15.5825 12.8939 15.6305 12.8086L16.0236 12.2309H17.0688L16.8482 12.6097H18.0948L17.9318 13.1875H16.4455C16.2729 13.4432 16.062 13.5569 15.8127 13.5474H15.036L15.199 12.9412ZM15.0264 13.7747H17.7592L17.5866 14.3998H16.4839L16.3113 15.006H17.3852L17.2126 15.6406H16.1387L15.8894 16.5403C15.8318 16.6919 15.9085 16.7582 16.1291 16.7393H17.0017L16.8387 17.3265H15.1606C14.8442 17.3265 14.7387 17.1465 14.8346 16.7866L15.151 15.6406H14.4702L14.6428 15.0155H15.3236L15.4866 14.4093H14.8346L15.0264 13.7747ZM19.3989 12.2214L19.3605 12.5908C19.3605 12.5908 19.8783 12.2119 20.3482 12.2119H22.0837L21.4221 14.5798C21.3646 14.8544 21.1344 14.987 20.7125 14.987H18.7468L18.2866 16.654C18.2578 16.7393 18.2962 16.7866 18.392 16.7866H18.7756L18.6318 17.3075H17.6537C17.2797 17.3075 17.1167 17.1939 17.1839 16.9666L18.4879 12.2309H19.3989V12.2214ZM20.866 12.8939H19.3222L19.14 13.5284C19.14 13.5284 19.3989 13.3485 19.8304 13.339C20.2619 13.3295 20.7509 13.339 20.7509 13.339L20.866 12.8939ZM20.3002 14.3809C20.4153 14.3998 20.4824 14.3525 20.4824 14.2483L20.5783 13.9073H19.0345L18.9003 14.3809H20.3002ZM19.255 15.1386H20.1468L20.1276 15.5174H20.3673C20.492 15.5174 20.5495 15.4796 20.5495 15.4038L20.6167 15.1575H21.355L21.2591 15.5174C21.1728 15.8205 20.9523 15.9721 20.5879 15.991H20.1084V16.6445C20.0989 16.7487 20.1947 16.8055 20.3961 16.8055H20.8468L20.703 17.3265H19.629C19.3318 17.3359 19.1783 17.2033 19.1879 16.9003L19.255 15.1386Z" fill="white"/>
<path d="M8.43881 9.06839C8.31415 9.65562 8.03608 10.1008 7.60458 10.4228C7.17308 10.7354 6.61693 10.8964 5.93613 10.8964C5.29367 10.8964 4.82382 10.7354 4.52657 10.4133C4.31561 10.186 4.21973 9.89241 4.21973 9.54196C4.21973 9.39989 4.2389 9.23888 4.27726 9.06839L5.00601 5.61133H6.08955L5.37039 9.03051C5.35121 9.12522 5.34162 9.21046 5.34162 9.29571C5.34162 9.46619 5.37997 9.61773 5.47586 9.72192C5.61011 9.89241 5.82106 9.96818 6.10872 9.96818C6.44433 9.96818 6.72241 9.88293 6.94295 9.72192C7.15391 9.56091 7.29774 9.32412 7.36486 9.03051L8.08402 5.61133H9.17715L8.43881 9.06839Z" fill="white"/>
<path d="M13.0415 7.71304H13.9045L13.2333 10.8007H12.3799L13.0415 7.71304ZM13.3196 6.58594H14.1826L14.0196 7.33418H13.1566L13.3196 6.58594Z" fill="white"/>
<path d="M14.6618 10.5641C14.4412 10.3557 14.3262 10.0621 14.3262 9.70217C14.3262 9.63587 14.3262 9.56957 14.3358 9.4938C14.3454 9.41803 14.3549 9.34226 14.3645 9.26648C14.47 8.7645 14.681 8.3667 15.0166 8.07309C15.3522 7.77947 15.7549 7.62793 16.2248 7.62793C16.6083 7.62793 16.9152 7.73212 17.1357 7.94996C17.3562 8.1678 17.4713 8.45194 17.4713 8.82133C17.4713 8.88763 17.4617 8.95393 17.4617 9.03917C17.4521 9.11494 17.4425 9.19071 17.4234 9.26648C17.3275 9.759 17.1069 10.1568 16.7713 10.4409C16.4357 10.7346 16.033 10.8766 15.5727 10.8766C15.1892 10.8766 14.8823 10.7724 14.6618 10.5641ZM16.3015 9.94843C16.4549 9.78741 16.5604 9.54116 16.6275 9.20966C16.6371 9.1623 16.6467 9.10547 16.6563 9.04864C16.6658 8.99181 16.6658 8.94446 16.6658 8.90657C16.6658 8.71714 16.6179 8.5656 16.522 8.46141C16.4261 8.35723 16.2823 8.3004 16.1097 8.3004C15.87 8.3004 15.6782 8.38564 15.5248 8.54666C15.3714 8.70767 15.2659 8.9634 15.1988 9.2949C15.1892 9.34226 15.1796 9.39908 15.17 9.44644C15.1604 9.4938 15.1604 9.54116 15.1604 9.58851C15.1604 9.77794 15.2083 9.92001 15.3042 10.0242C15.4001 10.1284 15.544 10.1757 15.7261 10.1757C15.9563 10.1947 16.148 10.1094 16.3015 9.94843Z" fill="white"/>
<path d="M23.0522 12.9693L23.2631 12.2495H24.3083L24.2604 12.5147C24.2604 12.5147 24.7973 12.2495 25.1809 12.2495C25.5644 12.2495 26.4754 12.2495 26.4754 12.2495L26.274 12.9693H26.0726L25.0946 16.3601H25.2959L25.1042 17.0326H24.9028L24.8165 17.3262H23.8001L23.8864 17.0326H21.8823L22.0741 16.3601H22.2755L23.2535 12.9693H23.0522ZM24.1836 12.9693L23.9152 13.8881C23.9152 13.8881 24.3754 13.7176 24.759 13.6702C24.8453 13.3482 24.9603 12.9693 24.9603 12.9693H24.1836ZM23.7905 14.3143L23.522 15.2804C23.522 15.2804 24.0302 15.0341 24.3754 15.0152C24.4713 14.6458 24.5768 14.3237 24.5768 14.3237H23.7905V14.3143ZM23.9823 16.3601L24.1836 15.6592H23.4069L23.2056 16.3601H23.9823ZM26.5137 12.2021H27.5014L27.5397 12.5621C27.5301 12.6568 27.5877 12.6947 27.7027 12.6947H27.8753L27.7027 13.3008H26.9836C26.7055 13.3103 26.5617 13.2061 26.5521 12.9883L26.5137 12.2021ZM26.2261 13.5092H29.4096L29.2178 14.1627H28.2014L28.0288 14.7689H29.0452L28.8534 15.4224H27.7219L27.463 15.8013H28.0192L28.1438 16.5685C28.163 16.6442 28.2301 16.6821 28.3452 16.6821H28.5178L28.3356 17.3072H27.7315C27.4151 17.3262 27.2521 17.222 27.2425 16.9947L27.0986 16.2938L26.6 17.0326C26.485 17.2409 26.3028 17.3357 26.0535 17.3262H25.1233L25.3055 16.7011H25.5932C25.7083 16.7011 25.8137 16.6442 25.9 16.5401L26.6863 15.413H25.6699L25.8617 14.7594H26.9644L27.137 14.1533H26.0343L26.2261 13.5092Z" fill="white"/>
<path d="M9.45499 7.7037H10.2317L10.1454 8.14886L10.2605 8.02573C10.5098 7.76053 10.8166 7.62793 11.1714 7.62793C11.4974 7.62793 11.7275 7.72264 11.881 7.91207C12.0248 8.1015 12.0632 8.35723 11.996 8.6982L11.5741 10.8009H10.7783L11.1618 8.8971C11.2002 8.6982 11.1906 8.55613 11.133 8.46141C11.0755 8.3667 10.9604 8.31934 10.7878 8.31934C10.5865 8.31934 10.4139 8.38564 10.27 8.50877C10.1262 8.6319 10.0399 8.81186 9.99197 9.0297L9.63718 10.8009H8.84131L9.45499 7.7037Z" fill="white"/>
<path d="M18.3251 7.7037H19.1018L19.0155 8.14886L19.121 8.02573C19.3703 7.76053 19.6771 7.62793 20.0415 7.62793C20.3675 7.62793 20.6073 7.72264 20.7511 7.91207C20.8949 8.1015 20.9333 8.35723 20.8662 8.6982L20.4442 10.8009H19.6484L20.0319 8.8971C20.0703 8.6982 20.0607 8.55613 20.0032 8.46141C19.936 8.3667 19.8306 8.31934 19.658 8.31934C19.4566 8.31934 19.284 8.38564 19.1402 8.50877C18.9963 8.6319 18.91 8.81186 18.8621 9.0297L18.5073 10.8009H17.7114L18.3251 7.7037Z" fill="white"/>
<path d="M22.1604 5.7998H24.4042C24.8357 5.7998 25.1713 5.89452 25.4014 6.08395C25.6316 6.27338 25.7466 6.54805 25.7466 6.90796V6.91743C25.7466 6.98373 25.7466 7.0595 25.737 7.14474C25.7275 7.22999 25.7083 7.31523 25.6891 7.40047C25.5932 7.87404 25.3631 8.26237 25.0083 8.54651C24.6535 8.84013 24.2316 8.9822 23.7426 8.9822H22.5344L22.1604 10.7912H21.1152L22.1604 5.7998ZM22.7166 8.1203H23.7138C23.9727 8.1203 24.1837 8.06347 24.3275 7.94034C24.4809 7.81721 24.5768 7.63726 24.6343 7.391C24.6439 7.34364 24.6439 7.30576 24.6535 7.26787C24.6535 7.22999 24.6631 7.1921 24.6631 7.16369C24.6631 6.98373 24.596 6.8606 24.4713 6.77536C24.3467 6.69012 24.1453 6.65223 23.8672 6.65223H23.0138L22.7166 8.1203Z" fill="white"/>
<path d="M30.4259 11.3885C30.0998 12.0799 29.7834 12.4872 29.5916 12.6766C29.4095 12.866 29.0355 13.2922 28.1533 13.2638L28.23 12.7334C28.9684 12.5061 29.3711 11.4927 29.6012 11.038L29.3327 7.71357L29.9081 7.7041H30.3875L30.4355 9.78781L31.3368 7.7041H32.2477L30.4259 11.3885Z" fill="white"/>
<path d="M27.8655 7.95894L27.5011 8.2052C27.1175 7.91158 26.7723 7.73163 26.1107 8.03471C25.1998 8.45145 24.4423 11.6528 26.9449 10.6015L27.0888 10.7719L28.0764 10.8004L28.7285 7.89264L27.8655 7.95894ZM27.2997 9.55014C27.1367 10.0142 26.7915 10.3173 26.5134 10.2321C26.2354 10.1468 26.1395 9.70168 26.3025 9.23758C26.4655 8.77348 26.8203 8.4704 27.0888 8.55564C27.3669 8.64088 27.4627 9.08604 27.2997 9.55014Z" fill="white"/>
</g>
<defs>
<clipPath id="clip0_489_37253">
<rect width="35" height="22" fill="white"/>
</clipPath>
</defs>
</svg>
