<svg width="100" height="100" viewBox="0 0 100 100" fill="none" xmlns="http://www.w3.org/2000/svg">
<rect x="0.5" y="0.5" width="99" height="99" fill="white" stroke="#DDDDDD"/>
<path d="M38.9551 53.7646V55.125H33.958V53.7646H38.9551ZM34.4365 45.1719V55.125H32.7207V45.1719H34.4365ZM47.7666 49.875V50.4219C47.7666 51.1738 47.6686 51.8483 47.4727 52.4453C47.2767 53.0423 46.9964 53.5505 46.6318 53.9697C46.2718 54.389 45.8389 54.7103 45.333 54.9336C44.8271 55.1523 44.2666 55.2617 43.6514 55.2617C43.0407 55.2617 42.4824 55.1523 41.9766 54.9336C41.4753 54.7103 41.04 54.389 40.6709 53.9697C40.3018 53.5505 40.0146 53.0423 39.8096 52.4453C39.609 51.8483 39.5088 51.1738 39.5088 50.4219V49.875C39.5088 49.123 39.609 48.4508 39.8096 47.8584C40.0101 47.2614 40.2926 46.7533 40.6572 46.334C41.0264 45.9102 41.4616 45.5889 41.9629 45.3701C42.4688 45.1468 43.027 45.0352 43.6377 45.0352C44.2529 45.0352 44.8135 45.1468 45.3193 45.3701C45.8252 45.5889 46.2604 45.9102 46.625 46.334C46.9896 46.7533 47.2699 47.2614 47.4658 47.8584C47.6663 48.4508 47.7666 49.123 47.7666 49.875ZM46.0508 50.4219V49.8613C46.0508 49.3053 45.9961 48.8154 45.8867 48.3916C45.7819 47.9632 45.6247 47.6055 45.415 47.3184C45.21 47.0267 44.957 46.8079 44.6562 46.6621C44.3555 46.5117 44.016 46.4365 43.6377 46.4365C43.2594 46.4365 42.9222 46.5117 42.626 46.6621C42.3298 46.8079 42.0768 47.0267 41.8672 47.3184C41.6621 47.6055 41.5049 47.9632 41.3955 48.3916C41.2861 48.8154 41.2314 49.3053 41.2314 49.8613V50.4219C41.2314 50.9779 41.2861 51.4701 41.3955 51.8984C41.5049 52.3268 41.6644 52.6891 41.874 52.9854C42.0882 53.277 42.3434 53.498 42.6396 53.6484C42.9359 53.7943 43.2731 53.8672 43.6514 53.8672C44.0342 53.8672 44.3737 53.7943 44.6699 53.6484C44.9661 53.498 45.2168 53.277 45.4219 52.9854C45.627 52.6891 45.7819 52.3268 45.8867 51.8984C45.9961 51.4701 46.0508 50.9779 46.0508 50.4219ZM57.125 50.0391V53.8398C56.9837 54.0267 56.7627 54.2318 56.4619 54.4551C56.1657 54.6738 55.7715 54.863 55.2793 55.0225C54.7871 55.182 54.1742 55.2617 53.4404 55.2617C52.8161 55.2617 52.2441 55.1569 51.7246 54.9473C51.2051 54.7331 50.7562 54.4209 50.3779 54.0107C50.0042 53.6006 49.7148 53.1016 49.5098 52.5137C49.3047 51.9212 49.2021 51.2467 49.2021 50.4902V49.7998C49.2021 49.0479 49.2956 48.3779 49.4824 47.79C49.6738 47.1976 49.9473 46.6963 50.3027 46.2861C50.6582 45.876 51.0866 45.5661 51.5879 45.3564C52.0938 45.1423 52.6657 45.0352 53.3037 45.0352C54.1195 45.0352 54.7939 45.1719 55.3271 45.4453C55.8649 45.7142 56.2796 46.0879 56.5713 46.5664C56.863 47.0449 57.0475 47.5918 57.125 48.207H55.4434C55.3887 47.8607 55.2816 47.5508 55.1221 47.2773C54.9671 47.0039 54.7438 46.7897 54.4521 46.6348C54.165 46.4753 53.7913 46.3955 53.3311 46.3955C52.9346 46.3955 52.5859 46.4707 52.2852 46.6211C51.9844 46.7715 51.7337 46.9925 51.5332 47.2842C51.3372 47.5758 51.1891 47.9313 51.0889 48.3506C50.9886 48.7699 50.9385 49.2484 50.9385 49.7861V50.4902C50.9385 51.0371 50.9954 51.5225 51.1094 51.9463C51.2279 52.3701 51.3965 52.7279 51.6152 53.0195C51.8385 53.3112 52.1097 53.5322 52.4287 53.6826C52.7477 53.8285 53.1077 53.9014 53.5088 53.9014C53.9007 53.9014 54.222 53.8695 54.4727 53.8057C54.7233 53.7373 54.9215 53.6576 55.0674 53.5664C55.2178 53.4707 55.334 53.3796 55.416 53.293V51.3174H53.3447V50.0391H57.125ZM66.9619 49.875V50.4219C66.9619 51.1738 66.8639 51.8483 66.668 52.4453C66.472 53.0423 66.1917 53.5505 65.8271 53.9697C65.4671 54.389 65.0342 54.7103 64.5283 54.9336C64.0225 55.1523 63.4619 55.2617 62.8467 55.2617C62.236 55.2617 61.6777 55.1523 61.1719 54.9336C60.6706 54.7103 60.2354 54.389 59.8662 53.9697C59.4971 53.5505 59.21 53.0423 59.0049 52.4453C58.8044 51.8483 58.7041 51.1738 58.7041 50.4219V49.875C58.7041 49.123 58.8044 48.4508 59.0049 47.8584C59.2054 47.2614 59.488 46.7533 59.8525 46.334C60.2217 45.9102 60.6569 45.5889 61.1582 45.3701C61.6641 45.1468 62.2223 45.0352 62.833 45.0352C63.4482 45.0352 64.0088 45.1468 64.5146 45.3701C65.0205 45.5889 65.4557 45.9102 65.8203 46.334C66.1849 46.7533 66.4652 47.2614 66.6611 47.8584C66.8617 48.4508 66.9619 49.123 66.9619 49.875ZM65.2461 50.4219V49.8613C65.2461 49.3053 65.1914 48.8154 65.082 48.3916C64.9772 47.9632 64.82 47.6055 64.6104 47.3184C64.4053 47.0267 64.1523 46.8079 63.8516 46.6621C63.5508 46.5117 63.2113 46.4365 62.833 46.4365C62.4548 46.4365 62.1175 46.5117 61.8213 46.6621C61.5251 46.8079 61.2721 47.0267 61.0625 47.3184C60.8574 47.6055 60.7002 47.9632 60.5908 48.3916C60.4814 48.8154 60.4268 49.3053 60.4268 49.8613V50.4219C60.4268 50.9779 60.4814 51.4701 60.5908 51.8984C60.7002 52.3268 60.8597 52.6891 61.0693 52.9854C61.2835 53.277 61.5387 53.498 61.835 53.6484C62.1312 53.7943 62.4684 53.8672 62.8467 53.8672C63.2295 53.8672 63.569 53.7943 63.8652 53.6484C64.1615 53.498 64.4121 53.277 64.6172 52.9854C64.8223 52.6891 64.9772 52.3268 65.082 51.8984C65.1914 51.4701 65.2461 50.9779 65.2461 50.4219Z" fill="#999999"/>
</svg>
