<svg width="30" height="36" viewBox="0 0 30 36" fill="none" xmlns="http://www.w3.org/2000/svg">
<path d="M18.6638 6.9643C18.6638 9.15609 16.8798 10.9389 14.6717 10.9389C12.4637 10.9389 10.6797 9.15609 10.6797 6.9643C10.6797 4.77252 12.4637 2.98975 14.6717 2.98975C16.8798 2.98975 18.6638 4.77252 18.6638 6.9643Z" stroke="black" stroke-width="2"/>
<path d="M25.2197 21.862C25.641 22.7248 25.8799 23.6363 25.887 24.599C25.5342 24.2754 25.1347 23.9846 24.7253 23.7157C24.1934 23.3664 23.594 23.0223 22.9958 22.6788C22.9196 22.635 22.8434 22.5913 22.7673 22.5476C19.5561 20.7001 15.4457 21.7485 13.5987 24.9363C12.3209 27.1418 9.44689 27.904 7.16625 26.5918C4.88562 25.2797 4.111 22.4184 5.38882 20.2129C8.22885 15.3111 14.5956 13.6435 19.6218 16.5352C22.2782 18.0635 24.2543 19.8845 25.2197 21.862Z" stroke="black" stroke-width="2"/>
</svg>
