<svg width="60" height="22" viewBox="0 0 60 22" fill="none" xmlns="http://www.w3.org/2000/svg">
<mask id="mask0_489_37240" style="mask-type:luminance" maskUnits="userSpaceOnUse" x="0" y="2" width="58" height="20">
<path d="M17.0995 2.64254L12.2216 14.9599L10.2476 4.48868C10.0163 3.31998 9.10222 2.64478 8.08488 2.64478H0.110044L0 3.16969C1.63719 3.52635 3.49671 4.09836 4.6241 4.71075C5.31356 5.08537 5.51119 5.41063 5.73802 6.30117L9.47502 20.7428H14.4293L22.0223 2.64254H17.0995ZM24.0345 2.64254L20.1583 20.7383H24.8453L28.7193 2.64254H24.0345ZM50.9055 7.53268L52.3249 14.3273H48.4374L50.9055 7.53268ZM50.2183 2.64254C49.3177 2.64254 48.5587 3.1652 48.224 3.9705L41.1902 20.7405H46.1107L47.0877 18.0375H53.0997L53.6656 20.7405H58L54.2181 2.64254H50.2183ZM29.9949 8.29312C29.9634 10.8997 32.3215 12.351 34.098 13.2192C35.9238 14.1052 36.5347 14.675 36.5279 15.4691C36.5144 16.6826 35.0704 17.2188 33.7229 17.2389C31.3671 17.2748 29.9994 16.6041 28.9102 16.0949L28.0613 20.0609C29.155 20.5633 31.1762 21.0008 33.2738 21.0232C38.1988 21.0232 41.417 18.5938 41.4327 14.832C41.453 10.0563 34.8211 9.79381 34.866 7.6583C34.8817 7.01002 35.4993 6.31912 36.8536 6.14191C37.5251 6.05442 39.3778 5.98713 41.4732 6.9517L42.2974 3.11361C41.17 2.70535 39.7192 2.31055 37.9113 2.31055C33.2782 2.31055 30.0196 4.77132 29.9926 8.29088" fill="white"/>
</mask>
<g mask="url(#mask0_489_37240)">
<path d="M58.6919 2.31738H0V22.732H58.6919V2.31738Z" fill="url(#paint0_linear_489_37240)"/>
</g>
<defs>
<linearGradient id="paint0_linear_489_37240" x1="-0.26486" y1="11.9221" x2="58.4025" y2="11.9221" gradientUnits="userSpaceOnUse">
<stop stop-color="#241F5D"/>
<stop offset="1" stop-color="#034EA1"/>
</linearGradient>
</defs>
</svg>
