<svg width="28" height="28" viewBox="0 0 28 28" fill="none" xmlns="http://www.w3.org/2000/svg">
<mask id="path-1-inside-1_903_4690" fill="white">
<path fill-rule="evenodd" clip-rule="evenodd" d="M3 1C1.89543 1 1 1.89543 1 3V19C1 20.1046 1.89543 21 3 21H10.305L13.0922 27.0345C13.4498 27.8087 14.5502 27.8087 14.9078 27.0345L17.695 21H23C24.1046 21 25 20.1046 25 19V3C25 1.89543 24.1046 1 23 1H3Z"/>
</mask>
<path d="M10.305 21L12.1206 20.1614L11.5842 19H10.305V21ZM13.0922 27.0345L14.9078 26.1958L13.0922 27.0345ZM14.9078 27.0345L13.0922 26.1958V26.1958L14.9078 27.0345ZM17.695 21V19H16.4158L15.8794 20.1614L17.695 21ZM3 3V3V-1C0.79086 -1 -1 0.790862 -1 3H3ZM3 19V3H-1V19H3ZM3 19H3H-1C-1 21.2091 0.79086 23 3 23V19ZM10.305 19H3V23H10.305V19ZM14.9078 26.1958L12.1206 20.1614L8.48928 21.8386L11.2765 27.8731L14.9078 26.1958ZM13.0922 26.1958C13.4498 25.4216 14.5502 25.4216 14.9078 26.1958L11.2765 27.8731C12.3493 30.1958 15.6507 30.1958 16.7235 27.8731L13.0922 26.1958ZM15.8794 20.1614L13.0922 26.1958L16.7235 27.8731L19.5107 21.8386L15.8794 20.1614ZM23 19H17.695V23H23V19ZM23 19V23C25.2091 23 27 21.2091 27 19H23ZM23 3V19H27V3H23ZM23 3H27C27 0.790862 25.2091 -1 23 -1V3ZM3 3H23V-1H3V3Z" fill="black" mask="url(#path-1-inside-1_903_4690)"/>
<path d="M8 14H14.2174M8 9H19" stroke="black" stroke-width="2" stroke-linecap="round"/>
</svg>
