<svg width="87" height="22" viewBox="0 0 87 22" fill="none" xmlns="http://www.w3.org/2000/svg">
<g clip-path="url(#clip0_489_37270)">
<path d="M18.2684 0H3.48445C1.55915 0 0 1.5774 0 3.52448V18.4761C0 20.422 1.55915 22 3.48445 22H18.2684C20.1933 22 21.7516 20.422 21.7516 18.4761V3.52448C21.7516 1.5774 20.1933 0 18.2684 0Z" fill="#1677FF"/>
<path d="M5.87731 16.9182C2.49334 16.9182 1.49288 14.2223 3.16524 12.7473C3.72331 12.2488 4.74309 12.0055 5.28677 11.9509C7.29694 11.75 9.15772 12.5256 11.3536 13.6097C9.81011 15.6462 7.84412 16.9182 5.87731 16.9182ZM17.9087 13.8141C17.0383 13.5192 15.8704 13.0684 14.5695 12.5924C15.3508 11.2187 15.9748 9.65453 16.3849 7.95452H12.0973V6.39257H17.3496V5.52072H12.0973V2.91692H9.95374C9.57772 2.91692 9.57772 3.29237 9.57772 3.29237V5.52072H4.26556V6.39257H9.57772V7.95452H5.19184V8.82616H13.6981C13.3868 9.91087 12.9689 10.9292 12.4729 11.8544C9.71271 10.9334 6.76743 10.1868 4.91712 10.6463C3.73379 10.9412 2.97168 11.4675 2.52395 12.0189C0.468993 14.5477 1.94287 18.3887 6.28271 18.3887C8.84869 18.3887 11.3206 16.9417 13.2364 14.5572C16.094 15.9464 21.7515 18.3318 21.7515 18.3318V14.9322C21.7515 14.9322 21.041 14.8749 17.9087 13.8141Z" fill="white"/>
<path d="M47.2319 3.22078C47.2319 4.35886 48.0612 5.125 49.2181 5.125C50.3749 5.125 51.2042 4.35886 51.2042 3.22078C51.2042 2.10454 50.3749 1.31636 49.2181 1.31636C48.0612 1.31636 47.2319 2.10454 47.2319 3.22078Z" fill="#1677FF"/>
<path d="M41.688 17.7763H45.1365V1.79785H41.688V17.7763Z" fill="black"/>
<path d="M30.6223 12.2394L32.6737 5.12576H32.7613L34.7038 12.2394H30.6223ZM35.6424 2.34598H31.0151L25.8423 17.7773H29.029L29.9021 14.7567H35.3805L36.2095 17.7773H40.2913L35.6424 2.34598Z" fill="black"/>
<path d="M47.4937 17.7761H50.9421V6.04395H47.4937V17.7761Z" fill="black"/>
<path d="M86.9785 6.06571L87.0001 6.04387H83.748L81.6966 13.1794H81.5875L79.2303 6.04387H75.3667L80.016 17.8199L78.0734 21.4095V21.4971H81.1073L86.9785 6.06571Z" fill="black"/>
<g clip-path="url(#clip1_489_37270)">
<path d="M162.337 -56.0127C160.502 -55.096 158.385 -54.919 156.424 -55.5183C154.462 -56.1175 152.806 -57.4472 151.797 -59.2327L151.277 -60.3727L129.517 -108.173C129.274 -108.7 129.145 -109.272 129.137 -109.853C129.148 -110.587 129.361 -111.304 129.753 -111.925C130.145 -112.546 130.701 -113.048 131.359 -113.374C132.017 -113.7 132.752 -113.839 133.483 -113.776C134.215 -113.712 134.915 -113.448 135.507 -113.013L161.197 -94.7227C162.748 -93.7022 164.517 -93.0602 166.361 -92.8483C168.206 -92.6364 170.075 -92.8606 171.817 -93.5027L292.627 -147.313C270.967 -172.833 235.307 -189.513 194.947 -189.513C128.947 -189.513 75.3667 -144.893 75.3667 -89.8527C75.3667 -59.8527 91.4767 -32.7927 116.687 -14.5227C117.721 -13.7814 118.564 -12.8041 119.145 -11.6719C119.725 -10.5397 120.028 -9.28523 120.027 -8.0127C120.003 -7.1508 119.862 -6.29617 119.607 -5.47269L114.217 14.6273C113.881 15.5662 113.665 16.544 113.577 17.5373C113.577 18.5982 113.998 19.6156 114.748 20.3657C115.498 21.1159 116.516 21.5373 117.577 21.5373C118.396 21.5049 119.192 21.249 119.877 20.7973L146.057 5.68732C147.971 4.51747 150.164 3.88206 152.407 3.84729C153.597 3.84897 154.779 4.02762 155.917 4.37732C168.599 8.00626 181.726 9.84404 194.917 9.83731C260.917 9.83731 314.507 -34.7827 314.507 -89.8227C314.451 -106.197 309.737 -122.217 300.917 -136.013L163.227 -56.5127L162.337 -56.0127Z" fill="#1AAD19"/>
</g>
<path d="M57.3378 15.7624C56.9451 15.7624 56.5738 15.7187 56.1594 15.5872V9.23968C56.8795 8.73627 57.4688 8.49539 58.2108 8.49539C59.4987 8.49539 60.5245 9.52425 60.5245 11.713C60.5245 14.5147 59.0185 15.7624 57.3378 15.7624ZM59.5205 5.80318C58.2546 5.80318 57.2724 6.28475 56.1594 7.20399V6.04387H52.7104V21.4971H56.1594V17.6666C56.814 17.8417 57.4251 17.9293 58.1673 17.9293C61.2447 17.9293 64.0167 15.6529 64.0167 11.6036C64.0167 7.97013 62.0084 5.80318 59.5205 5.80318Z" fill="black"/>
<path d="M71.2417 14.9312C70.325 15.4346 69.8009 15.6316 69.1902 15.6316C68.3607 15.6316 67.8369 15.0845 67.8369 14.2089C67.8369 13.8805 67.9023 13.5522 68.1641 13.2897C68.5789 12.8737 69.3866 12.5672 71.2417 12.1296V14.9312ZM74.6902 14.8436V9.94077C74.6902 7.27021 73.1189 5.80387 70.347 5.80387C68.5789 5.80387 67.3567 6.11008 65.1304 6.78864L65.7413 9.48105C67.7712 8.5616 68.6662 8.16761 69.6049 8.16761C70.7399 8.16761 71.2417 8.97743 71.2417 10.2251V10.3127C67.291 11.057 66.0688 11.4728 65.3049 12.239C64.7376 12.8081 64.4976 13.6179 64.4976 14.559C64.4976 16.8136 66.2437 18.0176 67.8807 18.0176C69.1029 18.0176 70.0848 17.5579 71.4165 16.5508L71.6565 17.7767H75.105L74.6902 14.8436Z" fill="black"/>
</g>
<defs>
<clipPath id="clip0_489_37270">
<rect width="87" height="22" fill="white"/>
</clipPath>
<clipPath id="clip1_489_37270">
<rect width="715.94" height="211.02" fill="white" transform="translate(75.3667 -189.522)"/>
</clipPath>
</defs>
</svg>
