<svg width="24" height="24" viewBox="0 0 24 24" fill="none" xmlns="http://www.w3.org/2000/svg">
<path d="M3.0791 12.0552C3.0791 13.8352 3.60694 15.5753 4.59587 17.0553C5.58481 18.5353 6.99041 19.6889 8.63495 20.3701C10.2795 21.0513 12.0891 21.2295 13.8349 20.8822C15.5807 20.535 17.1844 19.6778 18.4431 18.4191C19.7017 17.1605 20.5589 15.5568 20.9062 13.811C21.2534 12.0652 21.0752 10.2556 20.394 8.61103C19.7128 6.96649 18.5593 5.56089 17.0792 4.57195C15.5992 3.58302 13.8591 3.05518 12.0791 3.05518C9.50091 3.05233 7.02102 4.04428 5.15602 5.82441" stroke="black" stroke-width="2" stroke-linecap="round" stroke-linejoin="round"/>
<path d="M4.10576 2.72193L4.01083 6.88091L8.13371 6.83763" stroke="black" stroke-width="2" stroke-linecap="round" stroke-linejoin="round"/>
</svg>
