<svg width="72" height="72" viewBox="0 0 72 72" fill="none" xmlns="http://www.w3.org/2000/svg">
<path d="M60.0696 34.394H9.28847C8.02459 34.394 7 35.4145 7 36.6732V62.9039C7 64.1626 8.02459 65.1831 9.28847 65.1831H60.0696C61.3335 65.1831 62.3581 64.1626 62.3581 62.9039V36.6732C62.3581 35.4145 61.3335 34.394 60.0696 34.394Z" fill="#0175E4" stroke="black" stroke-width="2" stroke-linecap="round" stroke-linejoin="round"/>
<path d="M60.0696 34.394H9.28847C8.68153 34.394 8.09945 34.6342 7.67028 35.0616C7.24111 35.489 7 36.0687 7 36.6732V37.6045L34.2812 50.9281L62.3581 37.6045V36.6732C62.3581 36.0687 62.117 35.489 61.6878 35.0616C61.2587 34.6342 60.6766 34.394 60.0696 34.394Z" fill="white" stroke="#1A1A1A" stroke-width="2" stroke-linecap="round" stroke-linejoin="round"/>
<path d="M28.7692 48.543L7 60.9844" stroke="#1A1A1A" stroke-width="2" stroke-linecap="round" stroke-linejoin="round"/>
<path d="M40.2852 48.8208L62.0462 61.2622" stroke="#1A1A1A" stroke-width="2" stroke-linecap="round" stroke-linejoin="round"/>
<path d="M64.3597 11.7251C64.3597 10.9538 64.052 10.2141 63.5044 9.66868C62.9568 9.12329 62.214 8.81689 61.4396 8.81689C60.6651 8.81689 59.9224 9.12329 59.3748 9.66868C58.8272 10.2141 58.5195 10.9538 58.5195 11.7251V18.6851H64.3597V11.7251Z" fill="white" stroke="black" stroke-width="2" stroke-linecap="round" stroke-linejoin="round"/>
<path d="M22.4853 8.81708H13.881C13.1066 8.81708 12.3638 9.12347 11.8162 9.66886C11.2686 10.2142 10.9609 10.954 10.9609 11.7252V39.4999L34.3214 50.9365L58.4858 39.4999V15.965C58.4736 15.75 58.4736 15.5346 58.4858 15.3196V11.7252C58.4857 11.3406 58.5623 10.9597 58.7111 10.6047C58.8599 10.2498 59.0779 9.9277 59.3526 9.65722C59.6272 9.38674 59.953 9.17321 60.3111 9.029C60.6692 8.88479 61.0524 8.81276 61.4386 8.81708H22.4853Z" fill="white" stroke="black" stroke-width="2" stroke-linecap="round" stroke-linejoin="round"/>
<path d="M40.1391 31.6903C38.8971 32.9511 37.254 33.7431 35.4906 33.9311C33.7272 34.119 31.953 33.6912 30.4713 32.7207C28.9895 31.7502 27.8922 30.2973 27.3669 28.6104C26.8416 26.9234 26.9208 25.1071 27.5911 23.4719C28.2615 21.8367 29.4812 20.4841 31.0419 19.6453C32.6026 18.8065 34.4074 18.5336 36.1478 18.8732C37.8881 19.2128 39.456 20.1438 40.5835 21.5072C41.711 22.8705 42.328 24.5815 42.3292 26.3478H27.2695" stroke="#1A1A1A" stroke-width="2" stroke-linecap="round" stroke-linejoin="round"/>
</svg>
