<svg width="72" height="72" viewBox="0 0 72 72" fill="none" xmlns="http://www.w3.org/2000/svg">
<path d="M61.6922 12H10.3127C8.83263 12 7.63281 13.2013 7.63281 14.6831V51.211C7.63281 52.6928 8.83263 53.8941 10.3127 53.8941H61.6922C63.1723 53.8941 64.3721 52.6928 64.3721 51.211V14.6831C64.3721 13.2013 63.1723 12 61.6922 12Z" fill="white" stroke="black" stroke-width="2" stroke-linecap="round" stroke-linejoin="round"/>
<path d="M3.76707 52.3667H68.2398C68.8204 52.3667 69.3772 52.5976 69.7877 53.0086C70.1982 53.4196 70.4288 53.977 70.4288 54.5583V59.8492H1.57812V54.5525C1.57965 53.9722 1.81095 53.4163 2.22129 53.0065C2.63163 52.5968 3.18752 52.3667 3.76707 52.3667Z" fill="white" stroke="black" stroke-width="2" stroke-linecap="round" stroke-linejoin="round"/>
<path d="M46 33.4219C46 39.497 41.0751 44.4219 35 44.4219C28.9249 44.4219 24 39.497 24 33.4219C24 27.3467 28.9249 22.4219 35 22.4219C41.0751 22.4219 46 27.3467 46 33.4219Z" fill="#0175E4" stroke="black" stroke-width="2"/>
<path d="M30 30.9219L34.2857 35.4219L40 29.4219" stroke="white" stroke-width="2" stroke-linecap="round"/>
</svg>
