<svg width="73" height="72" viewBox="0 0 73 72" fill="none" xmlns="http://www.w3.org/2000/svg">
<path d="M29.6602 40.5412V37.1772" stroke="black" stroke-width="2" stroke-linejoin="round"/>
<path d="M29.6602 58.9049V55.541" stroke="black" stroke-width="2" stroke-linejoin="round"/>
<path d="M51 33.0559H7C5.89543 33.0559 5 33.9513 5 35.0559V63.0559C5 64.1605 5.89543 65.0559 7 65.0559H51C52.1046 65.0559 53 64.1605 53 63.0559V35.0559C53 33.9513 52.1046 33.0559 51 33.0559Z" fill="#0175E4" stroke="black" stroke-width="2" stroke-linejoin="round"/>
<path d="M44.8949 23.0625C44.7932 19.0331 43.1211 15.2029 40.2352 12.3889C37.3494 9.57496 33.4782 8 29.4475 8C25.4167 8 21.5456 9.57496 18.6597 12.3889C15.7738 15.2029 14.1017 19.0331 14 23.0625V33.0658" stroke="black" stroke-width="2" stroke-linejoin="round"/>
<path d="M32.9998 44.0442L32.9999 44.0442L32.9999 44.0357C33.004 43.3441 32.8214 42.6651 32.4725 42.0669C32.1237 41.4689 31.6217 40.9738 31.0194 40.6285C30.4172 40.2834 29.7345 40.0992 29.0394 40.0925C28.3442 40.0858 27.6581 40.2568 27.0492 40.5901C26.4402 40.9236 25.9284 41.4087 25.5677 41.9996C25.2068 42.5907 25.0104 43.2659 25.0004 43.9575C24.9904 44.649 25.1671 45.3296 25.511 45.9307C25.7548 46.357 26.0762 46.7321 26.4563 47.0391V51.4342C26.4365 51.7684 26.4847 52.1028 26.5979 52.418C26.716 52.7467 26.9019 53.0463 27.1423 53.2987C27.3827 53.5509 27.6724 53.7506 27.9925 53.8865C28.3125 54.0225 28.6569 54.0923 29.0043 54.0923C29.3517 54.0923 29.6961 54.0225 30.0161 53.8865C30.3362 53.7506 30.6259 53.5509 30.8663 53.2986C31.1067 53.0463 31.2926 52.7467 31.4107 52.418C31.5239 52.1028 31.5722 51.7684 31.5523 51.4342V47.0041C31.9158 46.7095 32.2252 46.3524 32.4641 45.9475C32.8051 45.3695 32.9902 44.7144 32.9998 44.0442Z" fill="white" stroke="black" stroke-width="2"/>
<path d="M66.2071 36.2099C68.9686 36.2099 71.2072 33.9575 71.2072 31.179C71.2072 28.4006 68.9686 26.1482 66.2071 26.1482C63.4457 26.1482 61.207 28.4006 61.207 31.179C61.207 33.9575 63.4457 36.2099 66.2071 36.2099Z" stroke="black" stroke-width="2" stroke-miterlimit="10"/>
<path d="M71.5844 12.21H67.125C66.5727 12.21 66.125 12.6577 66.125 13.21V26.148" stroke="black" stroke-width="2" stroke-miterlimit="10"/>
<path d="M71.5844 17.1951H66.125" stroke="black" stroke-width="2" stroke-miterlimit="10"/>
</svg>
