<svg width="33" height="33" viewBox="0 0 33 33" fill="none" xmlns="http://www.w3.org/2000/svg">
<path d="M8.62409 3.87196C11.7649 1.90225 15.5215 1.15922 19.1756 1.78491C22.8297 2.41061 26.1251 4.36114 28.4316 7.26359C30.7382 10.166 31.8941 13.8168 31.6783 17.5178C31.4626 21.2189 29.8903 24.7106 27.2622 27.3253C24.634 29.9401 21.1343 31.4946 17.4322 31.6914C13.7302 31.8883 10.0854 30.7138 7.19471 28.3925C4.30406 26.0712 2.37035 22.766 1.76329 19.1087C1.15623 15.4514 1.9184 11.6987 3.90409 8.56796" stroke="black" stroke-width="2" stroke-miterlimit="10"/>
<path d="M5 12.1999L4.72559 8.19992L1 8.41522" stroke="black" stroke-width="2" stroke-miterlimit="10"/>
<path d="M16.2 8.19992V17.7999H25.8" stroke="black" stroke-width="2" stroke-miterlimit="10"/>
</svg>
