<svg width="22" height="22" viewBox="0 0 22 22" fill="none" xmlns="http://www.w3.org/2000/svg">
<g clip-path="url(#clip0_489_37246)">
<path d="M0 21.9199H3.85C5.20385 21.9199 6.76923 20.6433 6.76923 18.9838V-0.0800781H3.04615C1.31154 -0.0800781 0 1.0263 0 2.9412V21.9199Z" fill="#0097E0"/>
<path d="M7.61523 21.9199H11.4652C12.8191 21.9199 14.3845 20.6433 14.3845 18.9838V-0.0800781H10.6614C8.92677 -0.0800781 7.61523 1.0263 7.61523 2.9412V21.9199Z" fill="#E60012"/>
<path d="M15.2305 21.9199H19.0805C20.4343 21.9199 21.9997 20.6433 21.9997 18.9838V-0.0800781H18.2766C16.542 -0.0800781 15.2305 1.0263 15.2305 2.9412V21.9199Z" fill="#009944"/>
<path d="M1.05769 11.4533H0C0.296154 12.6448 1.69231 13.581 3.25769 13.581C4.69615 13.581 6.64231 12.7725 6.64231 11.2406V8.47461H4.23077V11.2406C4.23077 12.0491 3.59615 12.6874 2.70769 12.6874C1.90385 12.6874 1.18462 12.1767 1.05769 11.4533Z" fill="white"/>
<path d="M22.0004 12.0065C22.0004 12.6448 21.4504 13.1555 20.7312 13.1555H15.4004V8.47461H20.7312C21.3658 8.47461 21.9158 9.0278 21.9158 9.6661C21.9158 10.3044 21.3658 10.8576 20.7312 10.8576C21.4504 10.8576 22.0004 11.3682 22.0004 12.0065ZM17.4312 10.6023H19.0812C19.5042 10.6023 19.885 10.2193 19.885 9.79376C19.885 9.36823 19.5042 8.98525 19.0812 8.98525H17.4312V10.6023ZM19.1235 12.6448C19.5465 12.6448 19.9273 12.2618 19.9273 11.8363C19.9273 11.4108 19.5465 11.0278 19.1235 11.0278H17.4312V12.6448H19.1235Z" fill="white"/>
<path d="M14.2146 12.347V13.1555H10.1531C8.88386 13.1555 7.82617 12.0916 7.82617 10.815C7.82617 9.53844 8.88386 8.47461 10.1531 8.47461H14.2146V9.32567C13.2416 9.11291 12.3108 8.98525 11.8454 8.98525C10.83 8.98525 10.0262 9.79376 10.0262 10.815C10.0262 11.8363 10.83 12.6448 11.8454 12.6448C12.3108 12.6448 13.2416 12.5597 14.2146 12.347Z" fill="white"/>
</g>
<defs>
<clipPath id="clip0_489_37246">
<rect width="22" height="22.0035" fill="white"/>
</clipPath>
</defs>
</svg>
