<svg width="24" height="24" viewBox="0 0 24 24" fill="none" xmlns="http://www.w3.org/2000/svg">
<path d="M5 8.07833C6.02616 6.45504 7.53177 5.21761 9.29286 4.55016C11.0539 3.88271 12.9764 3.82088 14.7742 4.3739C16.572 4.92691 18.1491 6.0652 19.2708 7.61942C20.3926 9.17365 20.999 11.0608 21 13" stroke="black" stroke-width="1.4" stroke-linecap="round" stroke-linejoin="round"/>
<path d="M23 11L20.9957 14L18 11.8497" stroke="black" stroke-width="1.4" stroke-linecap="round" stroke-linejoin="round"/>
<path d="M19 17.3726C18.0385 18.8161 16.6272 19.9165 14.9761 20.5103C13.325 21.1041 11.5225 21.1594 9.83673 20.668C8.151 20.1766 6.67223 19.1647 5.62054 17.7831C4.56885 16.4014 4.00047 14.7238 4 13" stroke="black" stroke-width="1.4" stroke-linecap="round" stroke-linejoin="round"/>
<path d="M1 15L3.40401 12L7 14.1503" stroke="black" stroke-width="1.4" stroke-linecap="round" stroke-linejoin="round"/>
</svg>
