<svg width="72" height="72" viewBox="0 0 72 72" fill="none" xmlns="http://www.w3.org/2000/svg">
<path d="M55.4111 10.885C55.3412 9.83095 54.8729 8.843 54.1013 8.12153C53.3297 7.40007 52.3126 6.99911 51.2563 7H10.3544C9.29982 7.00319 8.28558 7.40568 7.51576 8.12647C6.74594 8.84727 6.27767 9.83288 6.20519 10.885V11.0312C6.20244 11.0798 6.20244 11.1286 6.20519 11.1773V12.9427H55.4111V10.885Z" fill="white" stroke="black" stroke-width="2" stroke-linecap="round" stroke-linejoin="round"/>
<path d="M6.17733 15.8888V60.6869V62.4523C6.18009 62.5009 6.18009 62.5497 6.17733 62.5984V62.7446C6.10452 63.8016 5.63229 64.7912 4.85649 65.5127C4.08069 66.2342 3.05944 66.6335 2 66.6296H42.5589C43.6817 66.6296 44.7585 66.1836 45.5525 65.3896C46.3464 64.5957 46.7925 63.5188 46.7925 62.396V11.1773C46.7925 10.0694 47.2326 9.00691 48.016 8.22351C48.7994 7.44011 49.8619 7 50.9698 7H10.3547C9.24676 7 8.18424 7.44011 7.40084 8.22351C6.61744 9.00691 6.17733 10.0694 6.17733 11.1773V15.8888Z" fill="white" stroke="black" stroke-width="2" stroke-linecap="round" stroke-linejoin="round"/>
<path d="M14.5 19H37M14.5 27H37M14.5 35H37M14.5 51H28M14.5 43H37" stroke="black" stroke-width="2" stroke-linecap="round"/>
<path d="M69 55C69 63.2843 62.2843 70 54 70C45.7157 70 39 63.2843 39 55C39 46.7157 45.7157 40 54 40C62.2843 40 69 46.7157 69 55Z" fill="#0175E4" stroke="black" stroke-width="2"/>
<path d="M47 53.5L53 59.5L61 51.5" stroke="white" stroke-width="2" stroke-linecap="round"/>
</svg>
