<svg width="21" height="20" viewBox="0 0 21 20" fill="none" xmlns="http://www.w3.org/2000/svg">
<path d="M20.631 10.5C20.631 10.5 16.1475 16 10.6144 16C5.08117 16 0.597656 10.5 0.597656 10.5C0.597656 10.5 5.08117 5 10.6144 5C16.1475 5 20.631 10.5 20.631 10.5Z" fill="#999999"/>
<path d="M10.6144 14.2409C12.5712 14.2409 14.1575 12.566 14.1575 10.5C14.1575 8.43404 12.5712 6.75922 10.6144 6.75922C8.65759 6.75922 7.07129 8.43404 7.07129 10.5C7.07129 12.566 8.65759 14.2409 10.6144 14.2409Z" fill="white"/>
<rect x="17.8184" y="1.2675" width="2" height="23" transform="rotate(45 17.8184 1.2675)" fill="#999999" stroke="white"/>
</svg>
