<svg width="47" height="72" viewBox="0 0 47 72" fill="none" xmlns="http://www.w3.org/2000/svg">
<path d="M3.73047 59.677V37.4002C3.73047 37.4002 8.70619 30.0586 13.5071 29.6162C18.3081 29.1738 25.982 38.5762 25.982 38.5762V50.2802C26.059 51.3665 25.8385 52.4533 25.3453 53.418C24.8522 54.3827 24.106 55.187 23.191 55.7402V61.9002L3.73047 59.677Z" fill="white" stroke="black" stroke-width="2" stroke-linecap="round" stroke-linejoin="round"/>
<rect x="14" y="68" width="11" height="3" fill="#0175E4"/>
<path d="M24.4653 1.56006C23.9262 1.56006 23.4099 1.77769 23.0335 2.16362L10.869 14.6358C10.5047 15.0094 10.3008 15.5105 10.3008 16.0323V44.9593C10.3008 46.0638 11.1962 46.9593 12.3008 46.9593H43.4531C44.5577 46.9593 45.4531 46.0638 45.4531 44.9593V3.56006C45.4531 2.45549 44.5577 1.56006 43.4531 1.56006H24.4653Z" fill="white" stroke="black" stroke-width="2" stroke-linecap="round" stroke-linejoin="round"/>
<path d="M23.6222 15.2185V1.56006L10.3008 15.2185H23.6222Z" fill="white" stroke="black" stroke-width="2" stroke-linecap="round" stroke-linejoin="round"/>
<path d="M11.2307 51.5062C13.5112 51.5062 15.3598 49.8088 15.3598 47.715C15.3598 45.6212 13.5112 43.9238 11.2307 43.9238C8.95024 43.9238 7.10156 45.6212 7.10156 47.715C7.10156 49.8088 8.95024 51.5062 11.2307 51.5062Z" fill="white"/>
<path d="M8.33203 43.4142L20.1733 32.287C20.1733 32.287 22.5164 30.3942 23.9966 32.7966C25.4767 35.199 23.008 38.6094 23.008 38.6094L17.4587 44.6798C17.4587 44.6798 20.4191 46.5782 18.5511 53.2814" fill="white"/>
<path d="M8.33203 43.4142L20.1733 32.287C20.1733 32.287 22.5164 30.3942 23.9966 32.7966C25.4767 35.199 23.008 38.6094 23.008 38.6094L17.4587 44.6798C17.4587 44.6798 20.4191 46.5782 18.5511 53.2814" stroke="black" stroke-width="2" stroke-linecap="round" stroke-linejoin="round"/>
<path d="M3.54687 70.44C2.4423 70.44 1.54688 69.5446 1.54688 68.44V61.604C1.54688 60.4994 2.44231 59.604 3.54688 59.604H23.4751C24.5797 59.604 25.4751 60.4994 25.4751 61.604V68.44" fill="#0175E4"/>
<path d="M25.4751 68.44V61.604C25.4751 60.4994 24.5797 59.604 23.4751 59.604H3.54687C2.44231 59.604 1.54688 60.4994 1.54688 61.604V68.44C1.54688 69.5446 2.4423 70.44 3.54687 70.44H23.4751C24.5797 70.44 25.4751 69.5446 25.4751 68.44Z" stroke="black" stroke-width="2" stroke-linecap="round" stroke-linejoin="round"/>
<path d="M18.3203 21.1382H37.6825" stroke="black" stroke-width="2" stroke-linecap="round"/>
<path d="M18.3203 27.2305H29.6645" stroke="black" stroke-width="2" stroke-linecap="round"/>
</svg>
