<svg width="132" height="51" viewBox="0 0 132 51" fill="none" xmlns="http://www.w3.org/2000/svg">
<path d="M20.0374 34.812C20.0374 35.0359 19.9799 35.3138 19.9799 35.584L20.5855 34.9703L23.2301 32.6544H24.6061L21.1374 35.7036L24.9357 39.1427H23.3796L20.6967 36.5914C20.4416 36.3885 20.202 36.1666 19.9799 35.9275C19.9936 36.0199 20.0128 36.1115 20.0374 36.2016V39.1427H18.9336V32.6505H20.0374V34.812Z" fill="#6D6C6C"/>
<path d="M29.7805 36.8072C29.7942 37.1186 29.7169 37.4273 29.5582 37.6949C29.5038 37.8328 29.4221 37.958 29.3179 38.0628C29.2138 38.1677 29.0895 38.25 28.9526 38.3048C28.6921 38.4792 28.3877 38.5756 28.0749 38.5827V39.2504C28.5665 39.2553 29.0545 39.1649 29.5122 38.9841C29.9244 38.7975 30.2705 38.4893 30.5049 38.1002C30.7455 37.6975 30.8776 37.2385 30.8881 36.7686C30.8661 36.4216 30.7898 36.0803 30.662 35.7573C30.5242 35.4375 30.3173 35.1527 30.0564 34.9236C29.8018 34.6954 29.501 34.5255 29.1749 34.4256C28.8193 34.3119 28.448 34.2559 28.0749 34.2597V34.9236C28.3054 34.9188 28.533 34.9761 28.7341 35.0895C28.9554 35.1533 29.1494 35.289 29.2861 35.4755C29.4436 35.6366 29.5731 35.8232 29.6693 36.0275C29.7377 36.2792 29.775 36.5385 29.7805 36.7994V36.8072ZM28.0749 38.5981C27.8412 38.6042 27.6086 38.5633 27.3908 38.4778C27.173 38.3923 26.9743 38.2639 26.8063 38.1002C26.6387 37.9235 26.5085 37.7143 26.4235 37.4854C26.3385 37.2565 26.3005 37.0127 26.3118 36.7686C26.3192 36.4355 26.4144 36.1105 26.5878 35.8268C26.6431 35.6846 26.7273 35.5555 26.8348 35.4479C26.9424 35.3402 27.071 35.2563 27.2125 35.2015C27.4744 35.0269 27.7801 34.9305 28.0941 34.9236V34.2597C27.6025 34.2536 27.1148 34.3481 26.6606 34.5376C26.2442 34.7438 25.8995 35.0722 25.6718 35.4794C25.4132 35.8523 25.279 36.2984 25.2885 36.7531C25.2717 37.2101 25.4066 37.6596 25.6718 38.0307C25.8926 38.4394 26.2305 38.7716 26.6415 38.9841C27.0769 39.1694 27.5447 39.2652 28.0174 39.2659H28.0749V38.5981Z" fill="#6D6C6C"/>
<path d="M32.8082 34.3523L32.8619 35.186C33.024 34.9135 33.2505 34.6854 33.5211 34.5222C33.7845 34.3565 34.0928 34.2781 34.4027 34.2983C34.5883 34.2865 34.7747 34.3047 34.9546 34.3523V35.2015C34.8131 35.1451 34.6649 35.1075 34.5138 35.0896C34.1973 35.0796 33.8867 35.1775 33.6323 35.3675C33.3788 35.5182 33.1851 35.7529 33.0842 36.0314C33.0189 36.323 32.9817 36.6203 32.973 36.9191V39.1385H31.9267V36.2552C31.9267 35.8113 31.9267 35.2015 31.873 34.3678L32.8082 34.3523Z" fill="#6D6C6C"/>
<path d="M37.8173 34.9237H37.8709C38.1362 34.9134 38.3998 34.9705 38.6375 35.0897C38.8001 35.2422 38.9477 35.4103 39.0783 35.5914C39.1847 35.8194 39.2595 36.0609 39.3006 36.3094H37.8173V36.9733H40.2932C40.3059 36.503 40.2319 36.0345 40.0748 35.5914C39.9181 35.192 39.6524 34.8454 39.3082 34.5917C38.8915 34.3449 38.4109 34.2293 37.9284 34.2598H37.8211V34.9237H37.8173ZM37.8173 39.2506V38.4786C37.9393 38.526 38.0701 38.5458 38.2006 38.5365C38.4794 38.5258 38.7566 38.4883 39.0284 38.4246C39.3296 38.3384 39.6231 38.2274 39.9061 38.0926V38.9225C39.7111 39.0115 39.51 39.0863 39.3044 39.1463C39.0821 39.2004 38.9211 39.2004 38.7525 39.2583H37.8173V39.2506ZM36.3838 36.3094C36.4084 36.049 36.5039 35.8006 36.6598 35.5914C36.7866 35.3697 36.9798 35.1941 37.2117 35.0897C37.3932 34.9761 37.6037 34.9184 37.8173 34.9237V34.2598C37.498 34.2554 37.1807 34.3117 36.8821 34.4258C36.5716 34.525 36.2882 34.6954 36.0542 34.9237C35.8412 35.1463 35.6733 35.4085 35.5598 35.6957C35.3965 36.0022 35.3196 36.3479 35.3375 36.6953C35.3524 37.0554 35.4276 37.4103 35.5598 37.7452C35.6736 38.0689 35.8614 38.361 36.1079 38.5982C36.3614 38.828 36.6625 38.9981 36.9894 39.0962C37.2519 39.206 37.533 39.2637 37.8173 39.266V38.494C37.5075 38.4577 37.2174 38.3224 36.9894 38.108C36.8187 37.974 36.6769 37.8063 36.5728 37.6151C36.4686 37.424 36.4043 37.2135 36.3838 36.9964H37.8173V36.3094H36.3838Z" fill="#6D6C6C"/>
<path d="M44.6443 36.8651C44.6701 37.1467 44.6321 37.4304 44.5331 37.695C44.4313 37.9427 44.2594 38.1548 44.0387 38.3049C43.8389 38.4252 43.6081 38.483 43.3756 38.4708V39.1926C43.5887 39.1535 43.7936 39.0778 43.9812 38.9687C44.3069 38.8461 44.5786 38.6108 44.7478 38.3049V39.1386H45.6868C45.6868 38.9147 45.6293 38.7526 45.6293 38.5828V36.5872C45.6421 36.3095 45.6241 36.0311 45.5756 35.7574C45.5772 35.5837 45.5392 35.4121 45.4645 35.2556C45.3148 34.9403 45.0617 34.6867 44.7478 34.5377C44.3342 34.3477 43.8838 34.2528 43.4293 34.2598H43.3718V35.0317C43.706 35.0131 44.0364 35.1112 44.307 35.3096C44.4261 35.4335 44.5175 35.5817 44.575 35.7442C44.6325 35.9066 44.6548 36.0796 44.6404 36.2514C44.3881 36.2018 44.1308 36.1824 43.8739 36.1935C43.7058 36.1841 43.5372 36.2037 43.3756 36.2514V36.9153C43.6284 36.869 43.8855 36.8508 44.1422 36.8613L44.6443 36.8651ZM43.3756 38.4708C43.3125 38.5167 43.2346 38.5374 43.1572 38.5287C42.9683 38.523 42.7817 38.4851 42.6053 38.4168C42.4562 38.3584 42.3243 38.2628 42.222 38.1389C42.1517 38.0224 42.1134 37.8892 42.1108 37.7529C42.1108 37.3129 42.5516 36.9809 43.3756 36.923V36.2553C43.1367 36.2441 42.8973 36.2622 42.6627 36.3093C42.3479 36.3519 42.0466 36.4654 41.7812 36.6413C41.5556 36.7272 41.3625 36.8825 41.2293 37.0851C41.0846 37.2755 41.0077 37.5093 41.0108 37.749C41.0093 38.0311 41.107 38.3046 41.2868 38.521C41.3582 38.6441 41.4533 38.7515 41.5665 38.837C41.6797 38.9225 41.8087 38.9844 41.946 39.0189C42.2634 39.1375 42.6003 39.1939 42.9387 39.1849H43.3756V38.4708ZM43.3756 34.2598V35.0317H43.2683C43.0092 35.0367 42.7517 35.0743 42.5018 35.1437C42.2088 35.2051 41.9286 35.3174 41.6739 35.4756L41.6202 34.7036C42.1723 34.4453 42.7679 34.2947 43.3756 34.2598Z" fill="#6D6C6C"/>
<path d="M54.9927 33.4302H52.6815V39.1389H51.6352V33.4302H49.2129V32.6505H54.9927V33.4302Z" fill="#6D6C6C"/>
<path d="M56.5329 34.3522L56.5866 35.186C56.7486 34.912 56.9767 34.6837 57.2496 34.5221C57.5125 34.3554 57.8212 34.277 58.1312 34.2982C58.3155 34.2895 58.5001 34.3077 58.6792 34.3522V35.2014C58.5378 35.145 58.3896 35.1074 58.2385 35.0895C57.9066 35.0889 57.5817 35.1855 57.3033 35.3674C57.0792 35.5369 56.9077 35.7672 56.8089 36.0313C56.7174 36.3177 56.6797 36.6187 56.6977 36.919V39.1384H55.705V36.2551C55.705 35.8113 55.705 35.2014 55.6514 34.3677L56.5329 34.3522Z" fill="#6D6C6C"/>
<path d="M62.7536 36.8652C62.762 37.1508 62.7057 37.4347 62.5888 37.6951C62.5266 37.9485 62.3684 38.1674 62.1481 38.3049C61.9499 38.4259 61.7201 38.4837 61.4888 38.4709V39.1927C61.6995 39.1575 61.9029 39.087 62.0906 38.9842C62.4065 38.8454 62.6735 38.6141 62.8571 38.3204C62.8571 38.4863 62.7996 38.5983 62.7996 38.7642C62.7996 38.9302 62.8571 39.0421 62.8571 39.1502H63.7923C63.7476 38.9685 63.7282 38.7815 63.7348 38.5944C63.7438 38.4088 63.7257 38.2228 63.6812 38.0424V35.7574C63.6275 35.5336 63.6275 35.3714 63.5163 35.2556C63.4591 35.0889 63.3647 34.9375 63.2405 34.8131C63.1163 34.6887 62.9655 34.5945 62.7996 34.5377C62.4052 34.3475 61.9721 34.2523 61.5348 34.2598H61.4812V35.0318C61.7977 35.0124 62.1103 35.1114 62.3589 35.3097C62.4851 35.4305 62.5846 35.5769 62.6506 35.7393C62.7167 35.9016 62.7479 36.0761 62.7421 36.2515C62.4895 36.2039 62.2324 36.1845 61.9756 36.1936C61.8087 36.1842 61.6414 36.2038 61.4812 36.2515V36.9154C61.7157 36.8683 61.9551 36.8502 62.1941 36.8613L62.7536 36.8652ZM61.4888 38.4709C61.4218 38.5113 61.3446 38.5314 61.2665 38.5288C61.0777 38.5227 60.8911 38.4848 60.7146 38.4168C60.566 38.3576 60.4343 38.2621 60.3313 38.1389C60.2774 38.0908 60.2346 38.0312 60.2062 37.9645C60.1777 37.8978 60.1641 37.8255 60.1665 37.753C60.1665 37.3129 60.6073 36.981 61.4888 36.9231V36.2553C61.2486 36.2442 61.008 36.2623 60.7721 36.3094C60.4406 36.3523 60.1219 36.4655 59.8369 36.6413C59.6299 36.7576 59.4434 36.9076 59.285 37.0852C59.1788 37.2903 59.1224 37.5178 59.1202 37.7491C59.1004 38.0249 59.1792 38.2987 59.3425 38.5211C59.5114 38.7461 59.7399 38.9187 60.0017 39.019C60.3189 39.1331 60.6538 39.1893 60.9906 39.185H61.4888V38.4709ZM61.4888 34.2598V35.0318H61.3777C61.0986 35.0406 60.8212 35.0781 60.5498 35.1437C60.2799 35.217 60.0218 35.3288 59.7832 35.4757L59.7296 34.7037C60.283 34.4454 60.8799 34.2947 61.4888 34.2598Z" fill="#6D6C6C"/>
<path d="M67.4337 35.0356C67.7061 35.0244 67.9748 35.1015 68.2003 35.2556C68.4366 35.4026 68.6266 35.6141 68.7484 35.8655C68.9048 36.1341 68.9819 36.442 68.9707 36.7532C68.9771 37.2004 68.8202 37.6345 68.5299 37.9729C68.3919 38.1294 68.2225 38.2547 68.0329 38.3406C67.8433 38.4264 67.6378 38.4708 67.4299 38.4708V39.1926C67.7201 39.1981 68.0058 39.1204 68.2539 38.9688C68.5644 38.8494 68.8317 38.6381 69.0205 38.3628V39.1347H70.0132V38.0849C69.9683 37.7006 69.9491 37.3138 69.9557 36.9269V32.0983H68.9093V34.4798C68.9052 34.5101 68.9082 34.5409 68.9182 34.5697C68.9282 34.5986 68.9449 34.6246 68.9668 34.6458V35.0896C68.7465 34.8451 68.4875 34.639 68.2003 34.4798C67.9604 34.3671 67.6984 34.3104 67.4337 34.3138V35.0356ZM67.4337 38.4708H67.3762C67.1675 38.4766 66.9602 38.4348 66.7697 38.3485C66.5792 38.2623 66.4106 38.1339 66.2762 37.9729C65.9859 37.6345 65.8291 37.2004 65.8355 36.7532C65.8228 36.4424 65.8986 36.1344 66.0539 35.8655C66.1784 35.6147 66.3695 35.4036 66.6059 35.2556C66.8505 35.0932 67.1413 35.0159 67.4337 35.0356V34.3138C67.3226 34.3138 67.2651 34.2598 67.1578 34.2598C66.835 34.273 66.5177 34.3476 66.2226 34.4798C65.93 34.5791 65.6665 34.7502 65.456 34.9777C65.241 35.1994 65.0716 35.4617 64.9578 35.7497C64.851 36.0708 64.7954 36.4069 64.793 36.7455C64.7942 37.2036 64.8881 37.6567 65.0689 38.0771C65.2852 38.4069 65.5655 38.6892 65.893 38.907C66.2841 39.1106 66.7218 39.2065 67.1616 39.1849H67.4376L67.4337 38.4708Z" fill="#6D6C6C"/>
<path d="M73.5432 34.9239H73.5891C73.8386 34.9124 74.0865 34.9698 74.3059 35.0899C74.4966 35.2123 74.6493 35.3862 74.7466 35.5917C74.8756 35.8099 74.9505 36.0561 74.9651 36.3096H73.5355V36.9735H76.0114C75.9957 36.5056 75.9223 36.0414 75.793 35.5917C75.6377 35.1915 75.3716 34.8445 75.0264 34.592C74.5899 34.3457 74.0925 34.2305 73.593 34.26H73.5393V34.9239H73.5432ZM73.5432 39.2508V38.4788C73.6463 38.5262 73.7598 38.5461 73.8728 38.5367C74.1696 38.5295 74.465 38.492 74.7543 38.4248C75.038 38.3383 75.3137 38.2273 75.5783 38.0929V38.9227C75.39 39.0301 75.1854 39.1057 74.9728 39.1466C74.808 39.2006 74.6431 39.2006 74.4247 39.2585H73.5432V39.2508ZM72.1097 36.3096C72.1077 36.0437 72.2064 35.787 72.3857 35.5917C72.4912 35.3742 72.6649 35.1978 72.8801 35.0899C73.085 34.9826 73.3122 34.9257 73.5432 34.9239V34.26C73.2238 34.2556 72.9065 34.3119 72.608 34.426C72.2979 34.5261 72.0146 34.6964 71.7801 34.9239C71.55 35.1444 71.3628 35.4062 71.2282 35.6959C71.1137 36.0163 71.0591 36.3552 71.0672 36.6956C71.064 37.052 71.1184 37.4066 71.2282 37.7455C71.3671 38.0511 71.5534 38.3325 71.7801 38.5792C72.0536 38.8095 72.3723 38.9791 72.7153 39.0771C72.9744 39.1976 73.2579 39.2558 73.5432 39.2469V38.475C73.1649 38.4265 72.8135 38.2526 72.5442 37.9808C72.275 37.7089 72.1032 37.3545 72.056 36.9735H73.5432V36.3096H72.1097Z" fill="#6D6C6C"/>
<path d="M79.4334 36.3674H76.624V37.0892H79.4334V36.3674Z" fill="#6D6C6C"/>
<path d="M81.5229 32.6505H80.4766V39.135H81.5229V32.6505Z" fill="#6D6C6C"/>
<path d="M84.1097 35.1476C84.3356 34.8564 84.6275 34.6238 84.9609 34.4694C85.2943 34.3149 85.6595 34.2431 86.0261 34.2598C86.4027 34.2679 86.775 34.3423 87.1261 34.4798C87.3671 34.6394 87.5732 34.847 87.7317 35.0897C87.8635 35.3486 87.9393 35.6328 87.954 35.9234C88.0018 36.253 88.0197 36.5863 88.0076 36.9192V39.1386H87.0149V36.1975C86.9613 36.0894 86.9613 35.9234 86.9076 35.8115C86.8878 35.6963 86.8432 35.5869 86.777 35.4909C86.7108 35.3949 86.6246 35.3146 86.5244 35.2557C86.3062 35.0863 86.0319 35.0076 85.7578 35.0356C85.4439 35.0432 85.1384 35.1395 84.8763 35.3136C84.6057 35.4714 84.4065 35.7287 84.3205 36.0315C84.2753 36.1772 84.2382 36.3254 84.2094 36.4754V39.1386H83.2205V36.8228C83.2205 36.5487 83.163 36.2708 83.163 36.0508V35.3136C83.1703 34.9974 83.1524 34.6812 83.1094 34.3679H84.0982L84.1097 35.1476Z" fill="#6D6C6C"/>
<path d="M91.8177 39.1385H90.6065L88.625 34.3523H89.725L90.8365 37.143C90.8902 37.251 90.9438 37.417 91.0013 37.5289C91.045 37.6622 91.1001 37.7913 91.1661 37.9149C91.1661 38.0809 91.2198 38.189 91.2198 38.3009C91.2734 38.189 91.2734 38.0809 91.3309 37.969C91.3884 37.857 91.4421 37.691 91.4957 37.5251L92.7529 34.3523H93.7456L91.8177 39.1385Z" fill="#6D6C6C"/>
<path d="M96.5509 34.9241H96.6084C96.8566 34.913 97.1031 34.9704 97.3213 35.0901C97.5141 35.2099 97.6674 35.3845 97.762 35.5918C97.8938 35.809 97.9701 36.0557 97.9843 36.3098H96.5509V36.9737H99.0307C99.0242 36.4998 98.9306 36.0313 98.7547 35.5918C98.6193 35.1945 98.3698 34.8466 98.038 34.5921C97.6031 34.3453 97.1067 34.23 96.6084 34.2602H96.5509V34.9241ZM96.5509 39.251V38.479C96.6542 38.5257 96.7675 38.5456 96.8805 38.5369C97.1774 38.5299 97.4727 38.4924 97.762 38.425C98.0467 38.3378 98.3237 38.2268 98.5899 38.093V38.9229C98.3972 39.0204 98.194 39.0956 97.9843 39.1467C97.8157 39.2008 97.6011 39.2008 97.4324 39.2587H96.5509V39.251ZM95.0523 36.3098C95.1001 36.0561 95.1922 35.813 95.3244 35.5918C95.4647 35.3815 95.6542 35.2092 95.8763 35.0901C96.0773 34.9761 96.305 34.9188 96.5355 34.9241V34.2602C96.1991 34.2605 95.865 34.3166 95.5467 34.4262C95.261 34.5395 95.0005 34.7087 94.7801 34.9241C94.5326 35.1287 94.3424 35.3947 94.2282 35.6961C94.1105 36.0156 94.0545 36.355 94.0634 36.6957C94.0596 37.0525 94.1153 37.4074 94.2282 37.7456C94.3643 38.0528 94.5509 38.3347 94.7801 38.5793C95.04 38.7979 95.3375 38.9667 95.6578 39.0773C95.9376 39.1923 96.2372 39.2501 96.5394 39.2471V38.4751C96.2136 38.4389 95.9063 38.3044 95.6578 38.0891C95.3287 37.8033 95.1136 37.407 95.0523 36.9737H96.5355V36.3098H95.0523Z" fill="#6D6C6C"/>
<path d="M102.718 35.2017C102.366 35.0689 101.994 34.9933 101.618 34.9779C101.385 34.9669 101.154 35.026 100.955 35.1477C100.883 35.196 100.825 35.2625 100.787 35.3403C100.749 35.4182 100.731 35.5048 100.737 35.5916C100.729 35.6707 100.746 35.7503 100.785 35.8194C100.824 35.8885 100.884 35.9437 100.955 35.9776C101.23 36.1604 101.526 36.3095 101.837 36.4214C102.165 36.5756 102.478 36.7604 102.772 36.9734C102.875 37.0738 102.957 37.1937 103.013 37.3262C103.07 37.4587 103.1 37.6011 103.101 37.7454C103.12 38.0205 103.043 38.2936 102.883 38.5173C102.691 38.7434 102.444 38.915 102.166 39.0152C101.843 39.1796 101.482 39.2567 101.12 39.2391C100.63 39.2329 100.146 39.1374 99.6903 38.9573V38.1391C99.9195 38.2524 100.158 38.3454 100.403 38.417C100.603 38.4617 100.808 38.4799 101.013 38.471C101.197 38.4797 101.382 38.4615 101.561 38.417C101.688 38.3716 101.801 38.2946 101.89 38.1931C101.939 38.1522 101.98 38.1017 102.009 38.0447C102.038 37.9876 102.055 37.9251 102.059 37.8612C102.052 37.7698 102.022 37.6817 101.974 37.6043C101.925 37.527 101.858 37.4628 101.779 37.4173C101.618 37.3092 101.285 37.1973 100.901 36.9734C100.563 36.8402 100.247 36.6539 99.9663 36.4214C99.8635 36.3315 99.7806 36.2207 99.7232 36.0963C99.6657 35.972 99.6349 35.8368 99.6328 35.6997C99.6404 35.4275 99.7169 35.1617 99.8551 34.9277C100.056 34.7246 100.301 34.5724 100.572 34.4838C100.884 34.3458 101.22 34.271 101.561 34.2638C101.991 34.2873 102.416 34.3611 102.829 34.4838L102.718 35.2017Z" fill="#6D6C6C"/>
<path d="M105.523 34.3527H106.957V35.0745H105.523V37.5139C105.523 37.6799 105.581 37.7918 105.581 37.8999C105.618 38.0592 105.716 38.1975 105.853 38.2859C106.015 38.3981 106.208 38.4561 106.405 38.4518C106.634 38.4505 106.861 38.3936 107.064 38.2859V39.0578C106.756 39.1236 106.443 39.1611 106.129 39.1698C105.765 39.209 105.399 39.1306 105.082 38.9459C104.95 38.8736 104.836 38.771 104.75 38.6463C104.664 38.5216 104.609 38.3783 104.588 38.228C104.515 37.8815 104.478 37.5284 104.477 37.1742V35.0899H103.266V34.3527H104.477V33.3183L105.523 32.9863V34.3527Z" fill="#6D6C6C"/>
<path d="M108.938 35.1476C109.033 34.9737 109.164 34.8223 109.322 34.7037C109.505 34.5603 109.709 34.447 109.927 34.3679C110.161 34.3015 110.401 34.2652 110.644 34.2598C111.012 34.2493 111.375 34.3458 111.69 34.5377C111.958 34.697 112.154 34.9542 112.238 35.2556C112.423 34.9493 112.688 34.7007 113.005 34.5377C113.322 34.3534 113.682 34.2575 114.047 34.2598C114.457 34.2347 114.863 34.3519 115.197 34.5917C115.476 34.7907 115.673 35.0861 115.749 35.4216C115.846 35.8204 115.882 36.2316 115.856 36.6413V39.1386H114.868V36.8227C114.88 36.4501 114.842 36.0776 114.756 35.715C114.712 35.5072 114.594 35.3231 114.423 35.1978C114.253 35.0725 114.043 35.0148 113.833 35.0356C113.645 35.0504 113.46 35.088 113.281 35.1476C113.121 35.2603 112.973 35.3897 112.84 35.5335C112.718 35.6802 112.626 35.8493 112.568 36.0315C112.521 36.1545 112.502 36.2861 112.51 36.4174C112.459 36.6543 112.441 36.8973 112.457 37.1392V39.1348H111.464V36.6992C111.485 36.3623 111.448 36.0243 111.357 35.6995C111.313 35.4968 111.193 35.3187 111.023 35.2016C110.863 35.089 110.671 35.0309 110.475 35.0356C110.204 35.0312 109.937 35.1077 109.709 35.2556C109.483 35.3946 109.314 35.6112 109.233 35.8655C109.114 36.1265 109.056 36.4119 109.065 36.6992V39.1386H108.022V36.4753C108.022 35.5914 108.022 34.9314 107.965 34.3679H108.9L108.938 35.1476Z" fill="#6D6C6C"/>
<path d="M119.34 34.9238H119.394C119.643 34.9183 119.889 34.9753 120.111 35.0897C120.289 35.2256 120.439 35.3962 120.551 35.5915C120.683 35.8087 120.759 36.0553 120.774 36.3095H119.34V36.9733H121.763C121.775 36.5031 121.701 36.0346 121.544 35.5915C121.409 35.1942 121.159 34.8463 120.827 34.5918C120.389 34.3515 119.893 34.2367 119.394 34.2599H119.34V34.9238ZM119.34 39.2506V38.4787C119.445 38.5259 119.559 38.5458 119.674 38.5366C119.969 38.5257 120.263 38.4882 120.551 38.4246C120.836 38.3375 121.113 38.2265 121.379 38.0927V38.9226C121.187 39.0201 120.983 39.0952 120.774 39.1464C120.605 39.2005 120.39 39.2005 120.222 39.2584H119.34V39.2506ZM117.853 36.3095C117.902 36.0555 117.995 35.8124 118.129 35.5915C118.269 35.3812 118.459 35.2089 118.681 35.0897C118.879 34.9688 119.109 34.911 119.34 34.9238V34.2599C119.003 34.2559 118.669 34.3121 118.351 34.4259C118.066 34.5392 117.805 34.7084 117.585 34.9238C117.337 35.1283 117.147 35.3944 117.033 35.6957C116.915 36.0153 116.859 36.3547 116.868 36.6954C116.864 37.0522 116.92 37.4071 117.033 37.7453C117.149 38.063 117.338 38.3487 117.585 38.579C117.844 38.7984 118.142 38.9673 118.463 39.0769C118.742 39.192 119.042 39.2497 119.344 39.2468V38.4748C119.018 38.4386 118.711 38.3041 118.463 38.0888C118.292 37.9548 118.15 37.7871 118.046 37.5959C117.942 37.4048 117.877 37.1942 117.857 36.9772H119.344V36.3095H117.853Z" fill="#6D6C6C"/>
<path d="M123.798 35.1474C124.013 34.8562 124.296 34.6229 124.622 34.468C124.949 34.3132 125.308 34.2416 125.668 34.2597C126.045 34.262 126.418 34.3367 126.768 34.4797C127.021 34.624 127.23 34.8348 127.373 35.0896C127.521 35.3456 127.615 35.6293 127.649 35.9233C127.697 36.2529 127.715 36.5862 127.703 36.9191V39.1385H126.714V36.9732C126.73 36.7144 126.711 36.4547 126.657 36.2012C126.665 36.0702 126.647 35.9388 126.603 35.8152C126.541 35.5916 126.406 35.3957 126.22 35.2594C125.995 35.1045 125.726 35.0273 125.453 35.0394C125.139 35.0393 124.833 35.1363 124.576 35.3173C124.307 35.4765 124.109 35.7335 124.024 36.0352C123.955 36.1734 123.917 36.3248 123.913 36.4791V39.1424H122.866V35.3134C122.82 35.0005 122.802 34.684 122.813 34.3678H123.748L123.798 35.1474Z" fill="#6D6C6C"/>
<path d="M130.46 34.3527H131.893V35.0745H130.46V37.5139C130.46 37.6799 130.517 37.7918 130.517 37.8999C130.555 38.0601 130.654 38.1988 130.793 38.2859C130.954 38.3985 131.146 38.4566 131.341 38.4518C131.571 38.4505 131.797 38.3936 132 38.2859V39.0578C131.693 39.1236 131.38 39.1611 131.065 39.1698C130.702 39.209 130.335 39.1306 130.019 38.9459C129.887 38.8729 129.774 38.77 129.688 38.6455C129.602 38.5209 129.546 38.378 129.524 38.228C129.452 37.8815 129.415 37.5284 129.413 37.1742V35.0899H128.202V34.3527H129.413V33.3183L130.46 32.9863V34.3527Z" fill="#6D6C6C"/>
<path d="M21.3025 43.2298C21.6236 43.2447 21.932 43.3608 22.184 43.5618C22.295 43.6556 22.3827 43.7743 22.4399 43.9083C22.4972 44.0424 22.5224 44.1881 22.5137 44.3338C22.528 44.4669 22.5104 44.6016 22.4624 44.7265C22.4144 44.8515 22.3373 44.963 22.2377 45.0517C22.0569 45.2284 21.8269 45.3455 21.5785 45.3875C21.4918 45.4265 21.3974 45.445 21.3025 45.4415V46.2714C21.4151 46.2802 21.5281 46.2617 21.6321 46.2174C21.8753 46.2174 22.1171 46.1797 22.3488 46.1054C22.5473 46.0473 22.7341 45.9545 22.9008 45.8314C23.0416 45.7165 23.17 45.5872 23.284 45.4454C23.4298 45.2925 23.526 45.0987 23.56 44.8896C23.6265 44.713 23.6628 44.5264 23.6673 44.3376C23.6844 43.9327 23.5473 43.5364 23.284 43.2298C23.0473 42.9164 22.7209 42.6834 22.3488 42.5621C22.184 42.5081 22.0729 42.5081 21.9081 42.454C21.7433 42.4 21.5248 42.3961 21.3025 42.3961V43.2298ZM20.0377 43.1719C20.3863 43.1537 20.7358 43.1731 21.0802 43.2298H21.2987V42.3961H18.999V48.8806H20.0454V46.2752H21.3102V45.4454C21.0743 45.4924 20.8336 45.5106 20.5934 45.4994H20.0377V43.1719Z" fill="#6D6C6C"/>
<path d="M25.4303 44.1254L25.4878 44.9591C25.6494 44.6851 25.8759 44.4557 26.147 44.2914C26.4312 44.1287 26.7559 44.0523 27.0822 44.0713C27.2501 44.0627 27.4183 44.081 27.5805 44.1254V44.9591C27.4393 44.9018 27.291 44.8641 27.1397 44.8472C26.8231 44.8366 26.5123 44.9346 26.2582 45.1251C26.1303 45.2044 26.0201 45.3095 25.9344 45.4337C25.8486 45.5579 25.7892 45.6985 25.7599 45.8469C25.6535 46.1106 25.5976 46.3921 25.5951 46.6767V48.8923H24.5488V46.0128C24.5488 45.569 24.5488 44.9591 24.4951 44.1254H25.4303Z" fill="#6D6C6C"/>
<path d="M32.5325 46.565C32.5178 46.8729 32.4423 47.1747 32.3102 47.4528C32.1495 47.7265 31.9228 47.9548 31.651 48.1167C31.3874 48.2817 31.0793 48.3599 30.7695 48.3406V49.0623C31.2681 49.0772 31.762 48.9615 32.2029 48.7265C32.612 48.5461 32.9569 48.2445 33.1918 47.8619C33.4499 47.4873 33.584 47.0402 33.575 46.5843C33.586 46.2202 33.5097 45.8588 33.3527 45.5306C33.22 45.2408 33.034 44.9789 32.8046 44.7586C32.5483 44.4927 32.2251 44.302 31.8695 44.2067C31.5125 44.0929 31.14 44.0369 30.7656 44.0407V44.7586C31.01 44.7363 31.2561 44.7747 31.4824 44.8706C31.6875 44.9655 31.8743 45.0962 32.0343 45.2565C32.1938 45.4054 32.3081 45.5968 32.3639 45.8085C32.4762 46.0499 32.5325 46.3139 32.5287 46.5805L32.5325 46.565ZM30.7695 48.3406C30.5457 48.3491 30.3227 48.311 30.1142 48.2286C29.9058 48.1463 29.7166 48.0214 29.5583 47.8619C29.3907 47.6852 29.2605 47.476 29.1755 47.2472C29.0906 47.0183 29.0526 46.7744 29.0639 46.5303C29.0588 46.2026 29.1352 45.8788 29.2862 45.5885C29.4268 45.3254 29.6379 45.1074 29.8956 44.9593C30.1607 44.8013 30.4654 44.7236 30.7733 44.7355V44.0021C30.2769 43.9929 29.7859 44.1069 29.3437 44.334C28.9314 44.5252 28.5885 44.8408 28.3625 45.2372C28.1057 45.6261 27.9688 46.0826 27.9688 46.5496C27.9688 47.0165 28.1057 47.4731 28.3625 47.8619C28.5943 48.2517 28.9395 48.5603 29.3513 48.7458C29.7933 48.9743 30.2843 49.0897 30.781 49.0816L30.7695 48.3406Z" fill="#6D6C6C"/>
<path d="M35.5601 44.9015C35.6571 44.7303 35.7874 44.5807 35.9433 44.4615C36.134 44.3459 36.3372 44.2527 36.5489 44.1836C36.7929 44.0889 37.0548 44.0506 37.3155 44.0717C37.6601 44.0525 38.0033 44.1286 38.3081 44.2917C38.5911 44.4493 38.8066 44.7062 38.9137 45.0134C39.0645 44.698 39.3172 44.4435 39.6304 44.2917C39.9735 44.128 40.3514 44.0524 40.7304 44.0717C41.14 44.0475 41.5456 44.1646 41.8803 44.4036C42.1451 44.608 42.3232 44.9059 42.3785 45.2373C42.4952 45.6118 42.5508 46.0029 42.5433 46.3953V48.8887H41.497V46.5728C41.5178 46.2027 41.4998 45.8314 41.4433 45.465C41.3819 45.2661 41.2569 45.0931 41.0877 44.9731C40.9186 44.853 40.7149 44.7926 40.5081 44.8012C40.3113 44.7956 40.1178 44.8537 39.9562 44.9671C39.7603 45.0239 39.5864 45.1397 39.458 45.2991C39.347 45.453 39.2556 45.6202 39.1858 45.797C39.1382 45.9398 39.1187 46.0906 39.1284 46.2409C39.0729 46.4575 39.0548 46.682 39.0747 46.9048V48.9003H38.0935V46.4647C38.0935 45.963 38.036 45.631 38.036 45.465C37.9544 45.2678 37.8221 45.0959 37.6527 44.9671C37.4946 44.8467 37.2986 44.7878 37.1008 44.8012C36.8477 44.8146 36.6017 44.8901 36.3841 45.0212C36.161 45.1835 35.9742 45.3913 35.836 45.631C35.7174 45.8922 35.661 46.1777 35.6712 46.4647V48.9003H34.6785V46.2409C34.6777 45.5369 34.6406 44.8335 34.5674 44.1334H35.5064L35.5601 44.9015Z" fill="#6D6C6C"/>
<path d="M48.0017 46.5651C48.013 46.8763 47.9359 47.1842 47.7794 47.4528C47.6389 47.7238 47.4301 47.9528 47.1738 48.1167C46.9087 48.2748 46.604 48.3525 46.2961 48.3406V49.0624C46.7921 49.0641 47.2817 48.9491 47.7258 48.7266C48.1349 48.5461 48.4798 48.2446 48.7146 47.862C48.9344 47.4726 49.0493 47.0322 49.0481 46.5844C49.0497 46.2265 48.994 45.8707 48.8832 45.5306C48.7266 45.2404 48.5218 44.9793 48.2777 44.7587C48.0417 44.4943 47.736 44.3029 47.3961 44.2067C47.0405 44.093 46.6692 44.037 46.2961 44.0407V44.7587C46.5217 44.7413 46.748 44.7797 46.9554 44.8706C47.3682 45.0628 47.6997 45.3967 47.8906 45.8124C47.9573 46.0645 47.9946 46.3236 48.0017 46.5844V46.5651ZM46.2961 48.3406C46.0624 48.3473 45.8296 48.3067 45.6117 48.2212C45.3938 48.1356 45.1951 48.0069 45.0275 47.8427C44.8599 47.6659 44.7297 47.4568 44.6447 47.2279C44.5598 46.999 44.5218 46.7551 44.5331 46.511C44.5545 46.1872 44.6283 45.8691 44.7515 45.5692C44.9169 45.3119 45.1452 45.1019 45.4146 44.9594C45.6782 44.7944 45.9863 44.7161 46.2961 44.7355V44.0021C45.7813 43.9926 45.2716 44.1064 44.809 44.3341C44.4159 44.5509 44.0766 44.8544 43.8164 45.2218C43.5923 45.6275 43.4786 46.0855 43.4867 46.5496C43.4859 46.9969 43.5994 47.4369 43.8164 47.8272C44.0778 48.1926 44.417 48.4946 44.809 48.7111C45.2531 48.9336 45.7426 49.0486 46.2386 49.0469H46.2961V48.3406Z" fill="#6D6C6C"/>
<path d="M51.5241 44.1253H53.0112V44.8471H51.5241V46.7307C51.5241 46.9546 51.5778 47.1746 51.5778 47.2865C51.5638 47.418 51.5836 47.5509 51.6352 47.6725C51.6352 47.8423 51.7426 47.9504 51.9074 48.0585C52.0655 48.1789 52.2615 48.2378 52.4593 48.2245C52.6891 48.2232 52.9152 48.1662 53.1185 48.0585V48.8305C52.8151 48.9197 52.4991 48.9575 52.1833 48.9424C51.8031 48.9718 51.4223 48.8943 51.0833 48.7185C50.859 48.5607 50.7017 48.3237 50.6426 48.0546C50.573 47.7076 50.5358 47.3549 50.5314 47.0009V44.8394H49.2666V44.1176H50.5314V43.0639L51.5241 42.7319V44.1253Z" fill="#6D6C6C"/>
<path d="M54.9926 43.0177H53.8926V42.0219H54.9926V43.0177ZM54.9926 48.8923H53.9999V44.1255H54.9926V48.8923Z" fill="#6D6C6C"/>
<path d="M60.4967 46.565C60.482 46.8729 60.4064 47.1747 60.2744 47.4528C60.1137 47.7265 59.8869 47.9548 59.6152 48.1167C59.3515 48.2817 59.0435 48.3599 58.7337 48.3406V49.0623C59.2323 49.0772 59.7262 48.9615 60.1671 48.7265C60.5789 48.541 60.9241 48.2324 61.156 47.8426C61.4141 47.468 61.5482 47.0209 61.5392 46.565C61.5514 46.2012 61.4764 45.8398 61.3208 45.5113C61.1852 45.2221 60.9982 44.9605 60.7688 44.7393C60.5125 44.4734 60.1893 44.2827 59.8337 44.1874C59.4767 44.0736 59.1042 44.0176 58.7298 44.0214V44.7393C58.9742 44.717 59.2203 44.7554 59.4465 44.8513C59.6517 44.9462 59.8385 45.0769 59.9985 45.2372C60.158 45.3861 60.2722 45.5775 60.3281 45.7892C60.4404 46.0306 60.4967 46.2946 60.4929 46.5612L60.4967 46.565ZM58.7337 48.3406C58.5085 48.3466 58.2846 48.3055 58.0761 48.2197C57.8676 48.134 57.6791 48.0056 57.5225 47.8426C57.3549 47.6659 57.2247 47.4567 57.1397 47.2279C57.0548 46.999 57.0168 46.7551 57.0281 46.511C57.0215 46.1831 57.098 45.859 57.2504 45.5692C57.3928 45.3137 57.6023 45.1027 57.856 44.9593C58.1213 44.8019 58.4259 44.7242 58.7337 44.7355V44.0021C58.2373 43.9929 57.7463 44.1069 57.304 44.334C56.8955 44.5056 56.563 44.8212 56.3688 45.2218C56.1161 45.6086 55.9814 46.0615 55.9814 46.5245C55.9814 46.9875 56.1161 47.4404 56.3688 47.8272C56.5644 48.2259 56.8965 48.5399 57.304 48.7111C57.746 48.9396 58.237 49.0549 58.7337 49.0469V48.3406Z" fill="#6D6C6C"/>
<path d="M63.5239 44.9012C63.748 44.6235 64.0345 44.4035 64.3597 44.2592C64.6849 44.1149 65.0395 44.0505 65.3942 44.0714C65.7896 44.0489 66.1844 44.1245 66.5441 44.2914C66.7939 44.4155 67.0038 44.6082 67.1496 44.8472C67.2715 45.1083 67.3456 45.3894 67.3681 45.677C67.4193 46.0076 67.4385 46.3424 67.4256 46.6767V48.8923H66.4329V46.0129C66.3793 45.8469 66.3793 45.7349 66.3218 45.569C66.3022 45.4537 66.2577 45.3442 66.1914 45.2482C66.1252 45.1521 66.0389 45.0719 65.9385 45.0132C65.7057 44.8753 65.4419 44.7996 65.1719 44.7932C64.8584 44.7994 64.5529 44.8944 64.2904 45.0672C64.0224 45.2288 63.8251 45.4867 63.7385 45.789C63.6848 45.955 63.6848 46.1209 63.6312 46.2869V48.8923H62.6385V46.5764C62.6385 46.2985 62.5848 46.0785 62.5848 45.8044V45.0826C62.591 44.7677 62.5718 44.4527 62.5273 44.1408H63.52L63.5239 44.9012Z" fill="#6D6C6C"/>
<path d="M76.0728 46.4568H74.6432V47.2867H76.4599L77.2264 48.8923H78.4376L75.1912 42.4078H74.6393V43.1798C74.8 43.6775 75.0026 44.1604 75.2449 44.6234L76.0728 46.4568ZM74.6432 46.4568H73.156L73.9839 44.6813C74.3135 43.9595 74.532 43.4616 74.6432 43.1837V42.4117H74.0951L70.9561 48.8962H72.0561L72.8801 47.2905H74.6432V46.4568Z" fill="#6D6C6C"/>
<path d="M81.358 44.7932C81.6268 44.8068 81.889 44.882 82.1245 45.0132C82.35 45.174 82.5383 45.3821 82.6765 45.6231C82.8318 45.892 82.9076 46.2 82.8949 46.5108C82.9151 46.8041 82.8383 47.0959 82.6765 47.3407C82.6326 47.4759 82.5608 47.6002 82.4656 47.7054C82.3705 47.8105 82.2542 47.8941 82.1245 47.9505C81.8998 48.1068 81.6308 48.1853 81.358 48.1744V48.8923C81.6669 48.9058 81.9743 48.8424 82.253 48.7077C82.5318 48.5731 82.7733 48.3714 82.9562 48.1204V48.5643C82.9562 48.7881 82.8987 48.9502 82.8987 49.1201C82.8987 49.2899 82.8451 49.398 82.7339 49.506C82.6117 49.7432 82.4205 49.9371 82.1859 50.0619C81.9264 50.1809 81.643 50.2377 81.358 50.2278V50.9998C81.7868 50.9667 82.2115 50.8931 82.6266 50.7798C82.9405 50.6616 83.2227 50.4713 83.4507 50.224C83.6177 49.9529 83.7297 49.6512 83.7803 49.3362C83.88 48.9196 83.9175 48.4903 83.8914 48.0625V44.1254H82.9562V44.9592C82.802 44.6592 82.5485 44.423 82.2395 44.2914C81.9625 44.1615 81.6632 44.0868 81.358 44.0714V44.7932ZM81.358 44.7932V44.0714H81.1395C80.7018 44.0724 80.2694 44.1671 79.8709 44.3493C79.5152 44.5568 79.2284 44.8657 79.0468 45.2371C78.8228 45.6427 78.7091 46.1008 78.7172 46.5649C78.7089 46.9948 78.8233 47.4182 79.0468 47.7846C79.2015 48.1611 79.4977 48.4608 79.8709 48.6183C80.2559 48.8431 80.6945 48.9579 81.1395 48.9502C81.1932 48.9502 81.3043 48.8923 81.358 48.8923V48.1744H81.3043C81.0315 48.1853 80.7625 48.1068 80.5378 47.9505C80.3026 47.827 80.1101 47.6346 79.9859 47.3986C79.878 47.134 79.822 46.8509 79.821 46.5649C79.817 46.2433 79.8729 45.9238 79.9859 45.6231C80.1398 45.3941 80.3257 45.1888 80.5378 45.0132C80.7938 44.8817 81.0747 44.8067 81.3618 44.7932H81.358ZM81.358 50.224V50.9959H81.2545C80.9031 50.9904 80.5529 50.9529 80.2082 50.884C79.855 50.8335 79.5055 50.76 79.1618 50.664L79.273 49.7762C79.4804 49.8835 79.7026 49.959 79.9322 50.0001C80.1364 50.1055 80.362 50.1623 80.5914 50.1661C80.7901 50.2106 80.9937 50.2288 81.197 50.2201L81.358 50.224Z" fill="#6D6C6C"/>
<path d="M87.3593 44.7357H87.413C87.6616 44.733 87.9073 44.7899 88.1297 44.9016C88.3022 45.0214 88.4516 45.1718 88.5705 45.3455C88.6768 45.5745 88.7503 45.8175 88.789 46.0673H87.3593V46.7312H89.7816C89.7977 46.278 89.7221 45.8262 89.5593 45.4034C89.4538 44.9923 89.1996 44.6357 88.8464 44.4037C88.4234 44.1207 87.9199 43.9851 87.413 44.0177H87.3593V44.7357ZM87.3593 49.0046V48.2829H87.6889C87.9851 48.2701 88.2799 48.234 88.5705 48.1748C88.8586 48.1015 89.1357 47.9898 89.3945 47.8428V48.6727C89.1992 48.763 88.9966 48.8366 88.789 48.8927C88.6117 48.958 88.4256 48.9958 88.237 49.0046C88.0186 49.0046 87.8538 49.0625 87.6353 49.0625C87.5241 49.0625 87.413 49.0625 87.3593 49.0201V49.0046ZM85.8722 46.0673C85.9297 45.8147 86.0226 45.5717 86.1482 45.3455C86.2755 45.1392 86.4688 44.9826 86.6963 44.9016C86.8969 44.7834 87.1271 44.7258 87.3593 44.7357V44.0023C87.0213 43.998 86.6852 44.0542 86.3667 44.1683C86.0624 44.2787 85.7825 44.4479 85.5426 44.6662C85.3262 44.886 85.1578 45.149 85.0482 45.4382C84.938 45.7598 84.881 46.0976 84.8795 46.4379C84.8721 46.7952 84.9293 47.151 85.0482 47.4877C85.1642 47.8047 85.3518 48.0901 85.5963 48.3215C85.8585 48.5388 86.157 48.7074 86.4778 48.8194C86.7577 48.9335 87.0574 48.9899 87.3593 48.9853V48.2636C87.0367 48.2158 86.7325 48.0826 86.4778 47.8776C86.3063 47.7341 86.1646 47.5579 86.0607 47.3593C85.9568 47.1606 85.8927 46.9432 85.8722 46.7196H87.3593V46.0557L85.8722 46.0673Z" fill="#6D6C6C"/>
<path d="M91.818 44.9015C92.0382 44.6193 92.3241 44.396 92.6502 44.2513C92.9764 44.1066 93.3329 44.0449 93.6883 44.0716C94.069 44.0474 94.4494 44.1232 94.7922 44.2916C95.0522 44.4002 95.2664 44.5968 95.3977 44.8475C95.5119 45.1157 95.6029 45.3934 95.6699 45.6773C95.6699 45.9552 95.7274 46.2872 95.7274 46.677V48.8926H94.7347V46.789C94.7347 46.403 94.681 46.1212 94.681 46.017C94.6907 45.8667 94.6712 45.7159 94.6235 45.5731C94.5932 45.4549 94.5386 45.3444 94.4634 45.2487C94.3881 45.153 94.2939 45.0742 94.1866 45.0173C93.9727 44.8782 93.7244 44.802 93.4699 44.7973C93.1551 44.7953 92.8473 44.891 92.5883 45.0713C92.3204 45.2322 92.1242 45.4906 92.0403 45.7931C91.976 45.9517 91.9385 46.12 91.9291 46.291V48.8964H90.8828V45.8086C90.8895 45.5667 90.8716 45.3249 90.8291 45.0868V44.145H91.7643L91.818 44.9015Z" fill="#6D6C6C"/>
<path d="M100.572 45.0676C100.267 44.9045 99.9237 44.8284 99.579 44.8476C99.2533 44.8349 98.9303 44.9109 98.6439 45.0676C98.3689 45.174 98.137 45.3695 97.9846 45.6234C97.8101 45.8866 97.7143 46.1947 97.7087 46.5112C97.7104 46.7425 97.7669 46.9701 97.8735 47.1751C97.9477 47.3925 98.0804 47.5849 98.2567 47.7309C98.407 47.9027 98.5964 48.0351 98.8087 48.1168C99.0586 48.1859 99.3161 48.2235 99.5752 48.2288C99.74 48.2288 99.9585 48.1747 100.127 48.1747C100.315 48.093 100.498 48.0002 100.675 47.8968L100.786 48.7267C100.574 48.8091 100.353 48.8648 100.127 48.8927C99.8917 48.9429 99.6508 48.9624 99.4104 48.9506C98.9185 48.9763 98.4278 48.8809 97.9808 48.6727C97.5684 48.4846 97.2222 48.1751 96.9881 47.7849C96.7582 47.4014 96.6437 46.9589 96.6585 46.5112C96.6502 46.0812 96.7646 45.6579 96.9881 45.2915C97.2584 44.9003 97.6217 44.5838 98.0449 44.3707C98.4681 44.1576 98.9376 44.0548 99.4104 44.0717C99.825 44.0588 100.238 44.1337 100.622 44.2918L100.572 45.0676Z" fill="#6D6C6C"/>
<path d="M104.04 48.8382C103.818 49.3362 103.657 49.726 103.542 49.9962C103.351 50.2447 103.13 50.4678 102.883 50.6601C102.567 50.8496 102.204 50.9459 101.836 50.938C101.614 50.9181 101.394 50.8807 101.177 50.8261L101.231 50.1622C101.393 50.2013 101.559 50.2195 101.725 50.2162C102.331 50.2162 102.718 49.8302 102.936 49.1084L100.844 44.1177H101.951L103.163 47.1669C103.296 47.4721 103.406 47.7869 103.492 48.1087C103.478 48.0139 103.497 47.9171 103.546 47.8347C103.584 47.6809 103.639 47.532 103.711 47.3908L104.979 44.1177H105.968L104.04 48.8382Z" fill="#6D6C6C"/>
<path d="M10.3483 13.1232L18.0138 5.7085H12.8242L5.33887 13.1232L17.6688 25.3357H22.9542L10.3483 13.1232Z" fill="#004A98"/>
<path d="M30.3863 5.48865V7.92806C33.9086 7.92806 36.0549 9.85797 36.0549 13.1388C36.0549 16.4197 33.9086 18.4036 30.3863 18.4036V20.789C36.7716 20.789 40.8995 17.7938 40.8995 13.1388C40.8995 8.48388 36.7716 5.48865 30.3863 5.48865ZM30.3863 5.48865C24.0009 5.48865 19.873 8.49159 19.873 13.1234C19.873 17.7552 24.0009 20.789 30.3863 20.789V18.4036H30.3288C26.8065 18.4036 24.6602 16.4081 24.6602 13.1388C24.6602 9.86955 26.8065 7.92806 30.3288 7.92806H30.3863V5.48865Z" fill="#004A98"/>
<path d="M52.2942 20.5111H56.8092V18.3496H55.0461C52.1294 18.3496 51.083 17.3499 51.083 14.7446V7.92809H56.8092V5.70869H51.083V0H46.5144V5.70869H42.6816V7.92809H46.5144V16.0762C46.5144 18.9595 48.5496 20.5111 52.2942 20.5111Z" fill="#004A98"/>
<path d="M86.2565 20.5109H95.2865V11.1431C95.2865 7.53806 92.6036 5.7085 87.2377 5.7085H86.245V8.02439C88.5447 8.13633 90.5416 8.63811 90.5416 11.0737V11.9074H86.2565V14.0689H90.6067V18.2915H86.2565V20.5109ZM83.1214 20.5109H86.2565V18.2915H85.3788C83.7806 18.2915 81.9639 18.2915 81.9639 16.3616C81.9639 14.2542 83.8802 14.0882 85.7621 14.0882H86.2565V11.9267H84.9917C79.4342 11.9267 77.1768 13.2583 77.1768 16.4736C77.1768 19.0789 79.3231 20.5187 83.1214 20.5187V20.5109ZM86.2565 5.7085H78.5719V8.02439H86.2757L86.2565 5.7085Z" fill="#004A98"/>
<path d="M65.9464 5.7085C61.9259 5.7085 60.6074 6.59626 60.6074 9.25568V20.5109H65.1761V10.0894C65.1761 8.03597 68.2039 8.03597 69.5799 8.03597H74.9189L77.3412 5.72008L65.9464 5.7085Z" fill="#004A98"/>
<path d="M4.51498 20.5111V0H0V20.5111H4.51498Z" fill="#004A98"/>
</svg>
