<svg width="166" height="35" viewBox="0 0 166 35" fill="none" xmlns="http://www.w3.org/2000/svg">
<path d="M117.598 34.9774L111.883 34.9916L105.758 24.3388H101.289L101.319 34.9997H96.1685V9.19393C96.1685 9.19393 105.205 9.03154 109.385 9.33399C112.838 9.58367 114.953 12.0073 115.526 13.8241C116.098 15.6408 115.827 18.5861 115.375 19.9441C114.924 21.3021 113.741 22.7332 111.929 23.5451L111.402 23.7481L117.598 34.9774ZM108.527 19.5057C110.344 19.4549 111.352 18.4907 111.378 16.7593C111.404 15.1475 110.37 14.09 108.605 14.0636C107.878 14.0534 101.301 14.0413 101.301 14.0413V19.5219L108.527 19.5057Z" fill="#1C1C1C"/>
<path d="M120.317 9.18799H138.862V14.0008H125.337V19.5079H135.499V24.3592H125.337V30.1566H138.862V34.9958H120.317V9.18799Z" fill="#1C1C1C"/>
<path d="M166 34.9558H160.584L159.08 31.032L147.726 31.0138L146.171 34.9477H140.811C140.811 34.9477 144.404 25.9371 146.147 21.4673C147.621 17.6958 150.945 9.13379 150.945 9.13379H155.935C155.935 9.13379 157.438 13.0129 158.015 14.6144C158.447 15.806 159.019 16.9833 159.491 18.1789C161.614 23.5641 165.802 34.357 165.802 34.357L166 34.9558ZM149.713 25.8498H157.224L153.579 16.1186L149.713 25.8498Z" fill="#1C1C1C"/>
<path d="M55.5594 19.3468L64.0456 8.98633L69.6773 9.15278L59.8084 21.2407L71.6662 34.9687H64.9964L55.5594 23.9708V34.9687H50.5596V9.14872L55.5871 9.14466L55.5594 19.3468Z" fill="#1C1C1C"/>
<path d="M27.7114 9.40332C27.7114 9.40332 27.7253 16.7109 27.7213 19.8876C27.7213 21.5115 27.3014 23.1658 26.0118 23.994C24.7222 24.8222 22.4244 24.806 21.113 23.9819C19.8016 23.1577 19.4867 21.5846 19.4847 20.0358C19.4847 17.194 19.4847 9.40332 19.4847 9.40332H16.7114C16.7114 9.40332 16.7273 16.9362 16.7293 20.1474C16.7293 23.99 18.7102 26.4522 22.4026 26.9008C26.2139 27.3616 29.9102 25.827 30.3738 21.2781C30.3738 17.397 30.3738 9.40332 30.3738 9.40332H27.7114Z" fill="#0175E4"/>
<path d="M14.6587 15.0596C14.3378 13.1942 13.7376 11.4404 12.24 10.2285C10.8848 9.09548 9.18116 8.49198 7.43237 8.52546C5.74266 8.58027 4.52044 8.99436 3.23285 10.0925C3.12191 10.1859 2.78516 10.5147 2.78516 10.5147L2.77327 0H0L0.0198091 26.0534H1.91752L2.52566 24.259C6.10318 28.0812 11.2516 26.4492 13.1631 23.3963C13.956 22.1575 14.4671 20.7521 14.6587 19.2838C14.7886 17.8789 14.7886 16.4645 14.6587 15.0596ZM11.5071 20.589C10.8494 22.7183 9.01512 24.4214 6.95101 24.2428C6.13795 24.1669 5.34922 23.9184 4.63506 23.513C3.9209 23.1076 3.29696 22.5542 2.80299 21.8881L2.76337 21.6709V12.7983C2.76337 12.7983 3.00702 12.5771 3.49433 12.2056C7.15108 9.41657 11.2595 11.144 11.8617 15.7843C12.0916 17.393 11.9705 19.034 11.5071 20.589Z" fill="#0175E4"/>
<path d="M81.1223 14.0597C85.3793 14.0597 88.8479 17.6627 88.8479 22.0898C88.8479 26.517 85.3832 30.12 81.1223 30.12C76.8614 30.12 73.3968 26.517 73.3968 22.0898C73.3968 17.6627 76.8594 14.0597 81.1223 14.0597ZM81.1223 9.18799C74.2327 9.18799 68.6426 14.965 68.6426 22.0898C68.6426 29.2147 74.2268 34.9917 81.1223 34.9917C88.0179 34.9917 93.602 29.2147 93.602 22.0898C93.602 14.965 88.0159 9.18799 81.1223 9.18799Z" fill="#1C1C1C"/>
<path d="M34.9035 34.7906H37.6966L48.0984 9.37256H45.3053L39.9073 22.5627L34.7074 9.37256H31.9302L38.4929 26.0195L34.9035 34.7906Z" fill="#0175E4"/>
</svg>
