<svg width="108" height="24" viewBox="0 0 108 24" fill="none" xmlns="http://www.w3.org/2000/svg">
<path d="M76.508 22.2058L72.79 22.2148L68.8052 15.4515H65.8978L65.9171 22.2199H62.5664V5.83624C62.5664 5.83624 68.4456 5.73314 71.1649 5.92516C73.4111 6.08367 74.7875 7.62243 75.1599 8.77584C75.5324 9.92926 75.3558 11.7992 75.062 12.6614C74.7682 13.5236 73.9988 14.4321 72.8196 14.9476L72.4768 15.0765L76.508 22.2058ZM70.6068 12.383C71.7886 12.3508 72.4446 11.7386 72.4613 10.6394C72.4781 9.6161 71.8054 8.94467 70.6571 8.92792C70.1841 8.92147 65.9055 8.91374 65.9055 8.91374V12.3933L70.6068 12.383Z" fill="#36373C"/>
<path d="M78.2734 5.83398H90.3386V8.88958H81.5391V12.3859H88.1503V15.466H81.5391V19.1466H90.3386V22.219H78.2734V5.83398Z" fill="#36373C"/>
<path d="M107.997 22.1928H104.474L103.495 19.7017L96.1084 19.6901L95.0967 22.1877H91.6094C91.6094 22.1877 93.9471 16.467 95.0812 13.6292C96.0401 11.2347 98.2025 5.79883 98.2025 5.79883H101.449C101.449 5.79883 102.427 8.2616 102.802 9.27842C103.083 10.0349 103.455 10.7824 103.762 11.5414C105.144 14.9605 107.868 21.8127 107.868 21.8127L107.997 22.1928ZM97.401 16.4116H102.288L99.9166 10.2334L97.401 16.4116Z" fill="#36373C"/>
<path d="M36.1434 12.2828L41.6643 5.70508L45.3282 5.81075L38.9077 13.4852L46.6221 22.2009H42.2829L36.1434 15.2185V22.2009H32.8906V5.80818L36.1614 5.8056L36.1434 12.2828Z" fill="#36373C"/>
<path d="M18.0274 5.9707C18.0274 5.9707 18.0365 10.6102 18.0339 12.627C18.0339 13.658 17.7607 14.7083 16.9217 15.2341C16.0827 15.7599 14.5878 15.7496 13.7347 15.2264C12.8815 14.7032 12.6766 13.7044 12.6753 12.7211C12.6753 10.9169 12.6753 5.9707 12.6753 5.9707H10.8711C10.8711 5.9707 10.8814 10.7532 10.8827 12.792C10.8827 15.2316 12.1714 16.7948 14.5736 17.0796C17.0532 17.3722 19.4579 16.3979 19.7595 13.5098C19.7595 11.0457 19.7595 5.9707 19.7595 5.9707H18.0274Z" fill="#258DEC"/>
<path d="M9.53665 9.56114C9.32788 8.37679 8.93739 7.26332 7.9631 6.49394C7.08141 5.77459 5.97306 5.39144 4.83534 5.41269C3.73605 5.44749 2.9409 5.71039 2.10322 6.4076C2.03105 6.46688 1.81196 6.67566 1.81196 6.67566L1.80423 0H0L0.0128874 16.5409H1.2475L1.64314 15.4017C3.9706 17.8284 7.32002 16.7922 8.56365 14.854C9.07945 14.0675 9.41197 13.1752 9.53665 12.243C9.62115 11.351 9.62115 10.4531 9.53665 9.56114ZM7.48627 13.0717C7.05841 14.4235 5.86504 15.5048 4.52218 15.3914C3.99322 15.3432 3.48009 15.1854 3.01547 14.928C2.55085 14.6707 2.14493 14.3193 1.82356 13.8964L1.79779 13.7586V8.12548C1.79779 8.12548 1.9563 7.98501 2.27333 7.74917C4.65234 5.97845 7.32518 7.07516 7.71696 10.0212C7.86653 11.0426 7.78775 12.0844 7.48627 13.0717Z" fill="#258DEC"/>
<path d="M52.7753 8.92695C55.5448 8.92695 57.8014 11.2145 57.8014 14.0252C57.8014 16.8359 55.5474 19.1234 52.7753 19.1234C50.0032 19.1234 47.7492 16.8359 47.7492 14.0252C47.7492 11.2145 50.0019 8.92695 52.7753 8.92695ZM52.7753 5.83398C48.2931 5.83398 44.6562 9.50173 44.6562 14.0252C44.6562 18.5487 48.2892 22.2164 52.7753 22.2164C57.2614 22.2164 60.8943 18.5487 60.8943 14.0252C60.8943 9.50173 57.2601 5.83398 52.7753 5.83398Z" fill="#36373C"/>
<path d="M22.7078 22.0868H24.5249L31.2921 5.94922H29.475L25.9632 14.3234L22.5802 5.94922H20.7734L25.043 16.5181L22.7078 22.0868Z" fill="#258DEC"/>
</svg>
