<svg width="64" height="64" viewBox="0 0 64 64" fill="none" xmlns="http://www.w3.org/2000/svg">
<path d="M54.5317 54.5304H45.0489V39.6813C45.0489 36.1398 44.9851 31.5813 40.1168 31.5813C35.1782 31.5813 34.4214 35.4389 34.4214 39.4226V54.5304H24.9387V23.9922H34.0398V28.1644H34.1675C35.0784 26.6067 36.3948 25.3254 37.9765 24.4569C39.5581 23.5883 41.3457 23.165 43.1489 23.2322C52.7593 23.2322 54.5317 29.5535 54.5317 37.778V54.5304ZM14.2393 19.8169C13.1506 19.8172 12.0864 19.4947 11.1811 18.8901C10.2758 18.2855 9.5701 17.4261 9.15329 16.4204C8.73647 15.4148 8.62725 14.3081 8.83944 13.2403C9.05162 12.1726 9.57568 11.1918 10.3453 10.4219C11.115 9.65203 12.0957 9.12768 13.1633 8.91519C14.231 8.7027 15.3377 8.8116 16.3435 9.22812C17.3493 9.64464 18.2089 10.3501 18.8138 11.2552C19.4186 12.1603 19.7414 13.2245 19.7414 14.3131C19.7416 15.0358 19.5995 15.7514 19.3231 16.4192C19.0467 17.0869 18.6414 17.6937 18.1305 18.2048C17.6195 18.7159 17.0129 19.1213 16.3452 19.3979C15.6776 19.6745 14.9619 19.8169 14.2393 19.8169ZM18.9798 54.5304H9.48751V23.9922H18.9798V54.5304ZM59.2594 0.000399177H4.723C3.48446 -0.0132296 2.29119 0.46553 1.40554 1.33143C0.519877 2.19733 0.0143177 3.37948 0 4.61802L0 59.3844C0.0147401 60.6229 0.520381 61.805 1.4059 62.6711C2.29142 63.5371 3.48444 64.0164 4.723 64.0036H59.2594C60.5004 64.0189 61.6967 63.5411 62.5856 62.675C63.4744 61.8088 63.9832 60.6253 64 59.3844V4.61802C63.9836 3.37708 63.475 2.19347 62.5859 1.32752C61.6969 0.461574 60.5004 -0.0157993 59.2594 0.000399177Z" fill="#0A66C2"/>
</svg>
