<svg width="64" height="64" viewBox="0 0 64 64" fill="none" xmlns="http://www.w3.org/2000/svg">
<path fill-rule="evenodd" clip-rule="evenodd" d="M63.705 32.7189C63.7076 30.5249 63.513 28.335 63.1233 26.1758H32.9844V38.5508H50.2027C49.845 40.5065 49.0947 42.3693 47.997 44.027C46.8994 45.6846 45.4772 47.1026 43.8163 48.1953V56.2213H54.166C60.2149 50.6516 63.705 42.4508 63.705 32.7129V32.7189Z" fill="#4285F4"/>
<path fill-rule="evenodd" clip-rule="evenodd" d="M32.9921 63.9843C41.6299 63.9843 48.8723 61.1181 54.1647 56.2326L43.8241 48.2217C40.9609 50.1415 37.296 51.2747 32.9921 51.2747C24.6587 51.2747 17.6062 45.6478 15.0896 38.0859H4.40234V46.3741C7.06467 51.6742 11.1485 56.1294 16.1973 59.2419C21.2461 62.3545 27.061 64.0017 32.9921 63.9994V63.9843Z" fill="#34A853"/>
<path fill-rule="evenodd" clip-rule="evenodd" d="M15.0901 38.0712C13.7519 34.129 13.7519 29.8554 15.0901 25.9132V17.625H4.40283C2.16523 22.0837 1 27.0035 1 31.9922C1 36.9809 2.16523 41.9007 4.40283 46.3595L15.0901 38.0712Z" fill="#FBBC05"/>
<path fill-rule="evenodd" clip-rule="evenodd" d="M32.9921 12.7247C37.6878 12.7247 41.9072 14.3371 45.2225 17.5077L54.3968 8.33341C48.8573 3.17062 41.6149 2.34343e-06 32.9921 2.34343e-06C27.061 -0.00226783 21.2461 1.64491 16.1973 4.75744C11.1485 7.86997 7.06467 12.3252 4.40234 17.6252L15.0896 25.9195C17.6062 18.3576 24.6587 12.7307 32.9921 12.7307V12.7247Z" fill="#EA4335"/>
</svg>
