<svg width="64" height="64" viewBox="0 0 64 64" fill="none" xmlns="http://www.w3.org/2000/svg">
<path d="M49.5254 33.9975C49.4526 25.8998 56.1393 22.0119 56.4269 21.8279C52.6733 16.3259 46.8108 15.5591 44.7366 15.4709C39.7368 14.9533 35.0017 18.404 32.4826 18.404C29.9636 18.404 26.0489 15.5514 21.9195 15.6357C16.475 15.7201 11.4753 18.7874 8.68018 23.6491C3.03631 33.4454 7.23087 47.9577 12.7406 55.8982C15.4245 59.786 18.626 64.1531 22.832 63.9959C26.8924 63.8387 28.4261 61.3772 33.3261 61.3772C38.2262 61.3772 39.6026 63.9959 43.8931 63.9307C48.2525 63.8387 51.0207 59.9509 53.6817 56.0631C55.5865 53.2531 57.0802 50.1855 58.1178 46.9531C58.0181 46.9224 49.6059 43.7094 49.5254 33.9975Z" fill="#B0B2B0"/>
<path d="M41.4622 10.2142C43.7014 7.53028 45.2082 3.7498 44.7941 0C41.5772 0.122693 37.6741 2.15096 35.3736 4.84254C33.2955 7.25039 31.4781 11.0884 31.9727 14.7538C35.5538 15.026 39.2307 12.9249 41.4622 10.2142Z" fill="#B0B2B0"/>
</svg>
