<svg width="100" height="100" viewBox="0 0 100 100" fill="none" xmlns="http://www.w3.org/2000/svg">
<circle cx="50" cy="50" r="49.5" fill="white" stroke="#DDDDDD"/>
<path d="M38.6562 38.25H41.6562V53.6406C41.6562 55.349 41.276 56.7708 40.5156 57.9062C39.7552 59.0417 38.7448 59.8958 37.4844 60.4688C36.2344 61.0312 34.875 61.3125 33.4062 61.3125C31.8646 61.3125 30.4688 61.0312 29.2188 60.4688C27.9792 59.8958 26.9948 59.0417 26.2656 57.9062C25.5469 56.7708 25.1875 55.349 25.1875 53.6406V38.25H28.1719V53.6406C28.1719 54.8281 28.3906 55.8073 28.8281 56.5781C29.2656 57.349 29.875 57.9219 30.6562 58.2969C31.4479 58.6719 32.3646 58.8594 33.4062 58.8594C34.4583 58.8594 35.375 58.6719 36.1562 58.2969C36.9479 57.9219 37.5625 57.349 38 56.5781C38.4375 55.8073 38.6562 54.8281 38.6562 53.6406V38.25ZM46.3906 38.25H53.9219C55.6302 38.25 57.0729 38.5104 58.25 39.0312C59.4375 39.5521 60.3385 40.3229 60.9531 41.3438C61.5781 42.3542 61.8906 43.599 61.8906 45.0781C61.8906 46.1198 61.6771 47.0729 61.25 47.9375C60.8333 48.7917 60.2292 49.5208 59.4375 50.125C58.6562 50.7188 57.7188 51.1615 56.625 51.4531L55.7812 51.7812H48.7031L48.6719 49.3281H54.0156C55.099 49.3281 56 49.1406 56.7188 48.7656C57.4375 48.3802 57.9792 47.8646 58.3438 47.2188C58.7083 46.5729 58.8906 45.8594 58.8906 45.0781C58.8906 44.2031 58.7188 43.4375 58.375 42.7812C58.0312 42.125 57.4896 41.6198 56.75 41.2656C56.0208 40.901 55.0781 40.7188 53.9219 40.7188H49.4062V61H46.3906V38.25ZM59.6875 61L54.1562 50.6875L57.2969 50.6719L62.9062 60.8125V61H59.6875ZM79.9062 58.5469V61H68.5312V58.5469H79.9062ZM69.125 38.25V61H66.1094V38.25H69.125Z" fill="black"/>
</svg>
