<svg width="36" height="37" viewBox="0 0 36 37" fill="none" xmlns="http://www.w3.org/2000/svg">
<circle cx="18" cy="18.5" r="17.5" stroke="#DDDDDD"/>
<path d="M18 11.9415C20.1362 11.9415 20.3889 11.9498 21.2326 11.988C22.0124 12.0236 22.4361 12.1538 22.7179 12.2633C23.0913 12.4083 23.3579 12.582 23.638 12.8616C23.918 13.1416 24.0913 13.4082 24.2363 13.7816C24.3457 14.0634 24.476 14.4872 24.5116 15.267C24.5502 16.1106 24.558 16.3638 24.558 18.4996C24.558 20.6354 24.5498 20.8885 24.5116 21.7321C24.476 22.5119 24.3457 22.9357 24.2363 23.2175C24.0913 23.5909 23.9176 23.8575 23.638 24.1376C23.3579 24.4176 23.0913 24.5909 22.7179 24.7359C22.4361 24.8453 22.0124 24.9755 21.2326 25.0112C20.3889 25.0498 20.1362 25.0576 18 25.0576C15.8638 25.0576 15.6106 25.0494 14.7674 25.0112C13.9876 24.9755 13.5639 24.8453 13.2821 24.7359C12.9087 24.5909 12.6421 24.4172 12.362 24.1376C12.082 23.8575 11.9087 23.5909 11.7637 23.2175C11.6543 22.9357 11.524 22.5119 11.4884 21.7321C11.4498 20.8885 11.442 20.6354 11.442 18.4996C11.442 16.3638 11.4502 16.1106 11.4884 15.267C11.524 14.4872 11.6543 14.0634 11.7637 13.7816C11.9087 13.4082 12.0824 13.1416 12.362 12.8616C12.6421 12.5815 12.9087 12.4083 13.2821 12.2633C13.5639 12.1538 13.9876 12.0236 14.7674 11.988C15.6111 11.9493 15.8642 11.9415 18 11.9415ZM18 10.5C15.8273 10.5 15.5551 10.5091 14.7014 10.5482C13.85 10.5868 13.2682 10.7223 12.7593 10.9199C12.2331 11.1244 11.7871 11.3979 11.3425 11.8425C10.8979 12.2871 10.6244 12.7335 10.4199 13.2593C10.2223 13.7682 10.0868 14.3496 10.0482 15.2014C10.0091 16.0546 10 16.3273 10 18.5C10 20.6727 10.0091 20.9449 10.0482 21.7986C10.0868 22.65 10.2223 23.2318 10.4199 23.7407C10.6244 24.2669 10.8979 24.7129 11.3425 25.1575C11.7871 25.6021 12.2335 25.8756 12.7593 26.0801C13.2682 26.2777 13.8496 26.4132 14.7014 26.4518C15.5546 26.4909 15.8273 26.5 18 26.5C20.1727 26.5 20.4449 26.4909 21.2986 26.4518C22.15 26.4132 22.7318 26.2777 23.2407 26.0801C23.7669 25.8756 24.2129 25.6021 24.6575 25.1575C25.1021 24.7129 25.3756 24.2665 25.5801 23.7407C25.7777 23.2318 25.9132 22.6504 25.9518 21.7986C25.9909 20.9454 26 20.6727 26 18.5C26 16.3273 25.9909 16.0551 25.9518 15.2014C25.9132 14.35 25.7777 13.7682 25.5801 13.2593C25.3756 12.7331 25.1021 12.2871 24.6575 11.8425C24.2129 11.3979 23.7665 11.1244 23.2407 10.9199C22.7318 10.7223 22.1504 10.5868 21.2986 10.5482C20.4454 10.5091 20.1727 10.5 18 10.5Z" fill="#999999"/>
<path d="M18.0058 14.3925C15.7371 14.3925 13.8975 16.2317 13.8975 18.5008C13.8975 20.7699 15.7367 22.6091 18.0058 22.6091C20.2749 22.6091 22.1141 20.7699 22.1141 18.5008C22.1141 16.2317 20.2749 14.3925 18.0058 14.3925ZM18.0058 21.1672C16.533 21.1672 15.339 19.9731 15.339 18.5004C15.339 17.0276 16.533 15.8335 18.0058 15.8335C19.4786 15.8335 20.6726 17.0276 20.6726 18.5004C20.6726 19.9731 19.4786 21.1672 18.0058 21.1672Z" fill="#999999"/>
<path d="M22.2686 15.1893C22.7988 15.1893 23.2286 14.7595 23.2286 14.2293C23.2286 13.6991 22.7988 13.2693 22.2686 13.2693C21.7384 13.2693 21.3086 13.6991 21.3086 14.2293C21.3086 14.7595 21.7384 15.1893 22.2686 15.1893Z" fill="#999999"/>
</svg>
