<svg width="36" height="37" viewBox="0 0 36 37" fill="none" xmlns="http://www.w3.org/2000/svg">
<circle cx="18" cy="18.5" r="17.5" stroke="#DDDDDD"/>
<path d="M15.1701 12.0184C15.1701 12.857 14.5594 13.5368 13.5553 13.5368C12.6107 13.5355 12 12.857 12 12.0184C12 11.1798 12.6301 10.5 13.5954 10.5C14.5607 10.5 15.1507 11.1588 15.1701 12.0184ZM12.0789 24.5004V14.7337H15.0718V24.5004H12.0789Z" fill="#999999"/>
<path d="M16.8641 17.8494C16.8641 16.6315 16.8253 15.6131 16.7852 14.7338H19.3847L19.5231 16.0921H19.5826C19.976 15.453 20.9413 14.5146 22.5561 14.5146C24.5255 14.5146 26.0019 15.8533 26.0019 18.7287V24.5005H23.009V19.0883C23.009 17.8297 22.5755 16.9714 21.4925 16.9714C20.6657 16.9714 20.174 17.5502 19.9566 18.1092C19.8777 18.3087 19.8583 18.5883 19.8583 18.8678V24.4992H16.8654V17.8481L16.8641 17.8494Z" fill="#999999"/>
</svg>
