<svg width="32" height="32" viewBox="0 0 32 32" fill="none" xmlns="http://www.w3.org/2000/svg">
<path fill-rule="evenodd" clip-rule="evenodd" d="M29.7123 2.63789C29.7123 2.19606 29.3541 1.83789 28.9123 1.83789H2.69993C2.2581 1.83789 1.89993 2.19606 1.89993 2.63789V22.3251C1.89993 22.3251 1.89992 22.3251 1.89991 22.3251C1.89991 22.3251 1.8999 22.3251 1.8999 22.3251V29.2287C1.8999 29.9984 2.88044 30.324 3.34093 29.7073L7.22274 24.5085C7.37376 24.3062 7.61136 24.1871 7.86377 24.1871H28.9123C29.3541 24.1871 29.7123 23.8289 29.7123 23.3871V2.63789Z" fill="white"/>
<path d="M7.22274 24.5085L6.42146 23.9102L7.22274 24.5085ZM3.34093 29.7073L4.14221 30.3056L3.34093 29.7073ZM2.69993 2.83789H28.9123V0.837891H2.69993V2.83789ZM2.89993 22.3251V2.63789H0.899927V22.3251H2.89993ZM2.8999 29.2287V22.3251H0.899902V29.2287H2.8999ZM6.42146 23.9102L2.53965 29.109L4.14221 30.3056L8.02402 25.1067L6.42146 23.9102ZM28.9123 23.1871H7.86377V25.1871H28.9123V23.1871ZM28.7123 2.63789V23.3871H30.7123V2.63789H28.7123ZM28.9123 25.1871C29.9064 25.1871 30.7123 24.3812 30.7123 23.3871H28.7123C28.7123 23.2766 28.8018 23.1871 28.9123 23.1871V25.1871ZM8.02402 25.1067C7.98627 25.1573 7.92687 25.1871 7.86377 25.1871V23.1871C7.29585 23.1871 6.76124 23.4551 6.42146 23.9102L8.02402 25.1067ZM0.899902 29.2287C0.899902 30.9605 3.1061 31.6933 4.14221 30.3056L2.53965 29.109C2.55705 29.0857 2.59619 29.0537 2.65017 29.0385C2.69693 29.0253 2.73565 29.0298 2.76295 29.0389C2.79024 29.048 2.82398 29.0675 2.85356 29.106C2.88771 29.1505 2.8999 29.1996 2.8999 29.2287H0.899902ZM1.89991 21.3251C1.34719 21.3251 0.899902 21.7732 0.899902 22.3251H2.8999C2.8999 22.877 2.45262 23.3251 1.89991 23.3251V21.3251ZM0.899927 22.3251C0.899927 21.7728 1.34764 21.3251 1.89991 21.3251V23.3251C2.45221 23.3251 2.89993 22.8774 2.89993 22.3251H0.899927ZM28.9123 2.83789C28.8018 2.83789 28.7123 2.74835 28.7123 2.63789H30.7123C30.7123 1.64378 29.9064 0.837891 28.9123 0.837891V2.83789ZM2.69993 0.837891C1.70581 0.837891 0.899927 1.64378 0.899927 2.63789H2.89993C2.89993 2.74835 2.81038 2.83789 2.69993 2.83789V0.837891Z" fill="black"/>
<circle cx="9.72181" cy="13.0128" r="1.86243" fill="black"/>
<circle cx="15.3087" cy="13.0128" r="1.86243" fill="black"/>
<circle cx="20.8966" cy="13.0128" r="1.86243" fill="black"/>
</svg>
