<svg width="26" height="26" viewBox="0 0 26 26" fill="none" xmlns="http://www.w3.org/2000/svg">
<path d="M6.71813 3.15349C9.07372 1.67621 11.8912 1.11894 14.6318 1.58821C17.3724 2.05748 19.8439 3.52038 21.5738 5.69722C23.3037 7.87405 24.1706 10.6121 24.0088 13.3879C23.847 16.1637 22.6678 18.7824 20.6967 20.7435C18.7256 22.7046 16.1008 23.8704 13.3242 24.0181C10.5477 24.1658 7.81408 23.2849 5.64609 21.5439C3.4781 19.8029 2.02782 17.324 1.57253 14.581C1.11723 11.8381 1.68886 9.02352 3.17813 6.67549" fill="white"/>
<path d="M6.71813 3.15349C9.07372 1.67621 11.8912 1.11894 14.6318 1.58821C17.3724 2.05748 19.8439 3.52038 21.5738 5.69722C23.3037 7.87405 24.1706 10.6121 24.0088 13.3879C23.847 16.1637 22.6678 18.7824 20.6967 20.7435C18.7256 22.7046 16.1008 23.8704 13.3242 24.0181C10.5477 24.1658 7.81408 23.2849 5.64609 21.5439C3.4781 19.803 2.02782 17.324 1.57253 14.581C1.11723 11.8381 1.68886 9.02352 3.17813 6.67549" stroke="black" stroke-width="2" stroke-miterlimit="10"/>
<path d="M4 9.39941L3.7942 6.39941L1 6.56089" stroke="black" stroke-width="2" stroke-miterlimit="10"/>
<path d="M12.4004 6.39941V13.5994H19.6004" fill="white"/>
<path d="M12.4004 6.39941V13.5994H19.6004" stroke="black" stroke-width="2" stroke-miterlimit="10"/>
</svg>
