<svg width="33" height="33" viewBox="0 0 33 33" fill="none" xmlns="http://www.w3.org/2000/svg">
<path d="M8.62385 3.87165C11.7646 1.90194 15.5212 1.15891 19.1754 1.78461C22.8295 2.41031 26.1249 4.36083 28.4314 7.26328C30.7379 10.1657 31.8938 13.8165 31.6781 17.5175C31.4623 21.2186 29.8901 24.7103 27.2619 27.325C24.6338 29.9398 21.1341 31.4943 17.432 31.6911C13.7299 31.888 10.0851 30.7135 7.19446 28.3922C4.30381 26.0709 2.37011 22.7657 1.76305 19.1084C1.15598 15.4511 1.91816 11.6984 3.90385 8.56765" fill="white"/>
<path d="M8.62385 3.87165C11.7646 1.90194 15.5212 1.15891 19.1754 1.78461C22.8295 2.41031 26.1249 4.36083 28.4314 7.26328C30.7379 10.1657 31.8938 13.8165 31.6781 17.5175C31.4623 21.2186 29.8901 24.7103 27.2619 27.325C24.6338 29.9398 21.1341 31.4943 17.432 31.6911C13.7299 31.888 10.0851 30.7135 7.19446 28.3922C4.30381 26.0709 2.37011 22.7657 1.76305 19.1084C1.15598 15.4511 1.91816 11.6984 3.90385 8.56765" stroke="black" stroke-width="2" stroke-miterlimit="10"/>
<path d="M5 12.1992L4.72559 8.19922L1 8.41452" stroke="black" stroke-width="2" stroke-miterlimit="10"/>
<path d="M16.2002 8.19922V17.7992H25.8002" fill="white"/>
<path d="M16.2002 8.19922V17.7992H25.8002" stroke="black" stroke-width="2" stroke-miterlimit="10"/>
</svg>
