<svg width="24" height="24" viewBox="0 0 24 24" fill="none" xmlns="http://www.w3.org/2000/svg">
<path fill-rule="evenodd" clip-rule="evenodd" d="M22.2841 2.17866C22.2841 1.73683 21.9259 1.37866 21.4841 1.37866H2.2248C1.78298 1.37866 1.4248 1.73684 1.4248 2.17866V18.1405C1.4248 18.1405 1.42482 18.1406 1.42485 18.1406C1.42487 18.1406 1.42489 18.1406 1.42489 18.1406V21.3195C1.42489 22.0892 2.40543 22.4149 2.86592 21.7981L5.35696 18.4619C5.50797 18.2597 5.74558 18.1406 5.99798 18.1406H21.4841C21.9259 18.1406 22.2841 17.7824 22.2841 17.3406V2.17866Z" fill="white"/>
<path d="M5.35696 18.4619L4.55568 17.8636L5.35696 18.4619ZM2.86592 21.7981L2.06464 21.1999L2.86592 21.7981ZM2.2248 2.37866H21.4841V0.378662H2.2248V2.37866ZM2.4248 18.1405V2.17866H0.424805V18.1405H2.4248ZM2.42489 21.3195V18.1406H0.424893V21.3195H2.42489ZM4.55568 17.8636L2.06464 21.1999L3.6672 22.3964L6.15824 19.0602L4.55568 17.8636ZM21.4841 17.1406H5.99798V19.1406H21.4841V17.1406ZM21.2841 2.17866V17.3406H23.2841V2.17866H21.2841ZM21.4841 19.1406C22.4782 19.1406 23.2841 18.3347 23.2841 17.3406H21.2841C21.2841 17.2301 21.3736 17.1406 21.4841 17.1406V19.1406ZM6.15824 19.0602C6.12048 19.1108 6.06108 19.1406 5.99798 19.1406V17.1406C5.43007 17.1406 4.89546 17.4086 4.55568 17.8636L6.15824 19.0602ZM0.424893 21.3195C0.424893 23.0513 2.6311 23.7841 3.6672 22.3964L2.06464 21.1999C2.08204 21.1765 2.12119 21.1445 2.17516 21.1293C2.22193 21.1161 2.26064 21.1206 2.28794 21.1297C2.31523 21.1388 2.34897 21.1583 2.37855 21.1968C2.4127 21.2413 2.42489 21.2904 2.42489 21.3195H0.424893ZM1.42485 19.1406C0.875369 19.1406 0.424893 18.6956 0.424893 18.1406H2.42489C2.42489 17.5855 1.97438 17.1406 1.42485 17.1406V19.1406ZM0.424805 18.1405C0.424805 18.6928 0.87254 19.1406 1.42485 19.1406V17.1406C1.97711 17.1406 2.4248 17.5883 2.4248 18.1405H0.424805ZM21.4841 2.37866C21.3736 2.37866 21.2841 2.28912 21.2841 2.17866H23.2841C23.2841 1.18455 22.4782 0.378662 21.4841 0.378662V2.37866ZM2.2248 0.378662C1.23069 0.378662 0.424805 1.18455 0.424805 2.17866H2.4248C2.4248 2.28912 2.33526 2.37866 2.2248 2.37866V0.378662Z" fill="black"/>
<circle cx="7.29136" cy="9.75986" r="1.39682" fill="black"/>
<circle cx="11.4818" cy="9.75986" r="1.39682" fill="black"/>
<circle cx="15.6722" cy="9.75986" r="1.39682" fill="black"/>
</svg>
