<svg width="20" height="20" viewBox="0 0 20 20" fill="none" xmlns="http://www.w3.org/2000/svg">
<g clip-path="url(#clip0_420_2869)">
<path d="M17.0999 8.89121C17.6334 9.47699 17.6334 10.5335 17.0999 11.1192C15.7584 12.5941 13.0832 15 10.004 15C6.92484 15 4.24973 12.5837 2.90005 11.1088C2.36665 10.523 2.36665 9.47699 2.90005 8.89121C4.24165 7.41632 6.91676 5 10.004 5C13.0913 5 15.7584 7.41632 17.0999 8.88075V8.89121Z" stroke="#1D1D1B" stroke-width="1.4" stroke-linejoin="round"/>
<path d="M10 12.5C11.3807 12.5 12.5 11.3807 12.5 10C12.5 8.61929 11.3807 7.5 10 7.5C8.61929 7.5 7.5 8.61929 7.5 10C7.5 11.3807 8.61929 12.5 10 12.5Z" stroke="#1D1D1B" stroke-width="1.4" stroke-linejoin="round"/>
</g>
<defs>
<clipPath id="clip0_420_2869">
<rect width="20" height="20" fill="white"/>
</clipPath>
</defs>
</svg>
