<svg width="48" height="48" viewBox="0 0 48 48" fill="none" xmlns="http://www.w3.org/2000/svg">
<path d="M40.8962 40.8953H33.7846V29.7591C33.7846 27.1032 33.7367 23.6845 30.0857 23.6845C26.382 23.6845 25.8144 26.5775 25.8144 29.5651V40.8953H18.7028V17.993H25.5282V21.122H25.624C26.3072 19.9538 27.2944 18.9929 28.4806 18.3415C29.6667 17.6901 31.0074 17.3727 32.3596 17.4231C39.567 17.4231 40.8962 22.1637 40.8962 28.3318V40.8953ZM10.6788 14.8617C9.86237 14.862 9.06423 14.6201 8.38529 14.1667C7.70636 13.7133 7.17713 13.0687 6.86454 12.3145C6.55195 11.5604 6.47004 10.7304 6.62917 9.92965C6.7883 9.12889 7.18132 8.39332 7.75852 7.81595C8.33572 7.23857 9.07119 6.84534 9.87189 6.68598C10.6726 6.52662 11.5026 6.60829 12.2569 6.92066C13.0111 7.23303 13.6559 7.76207 14.1095 8.44088C14.5631 9.11968 14.8052 9.91775 14.8052 10.7342C14.8053 11.2761 14.6987 11.8129 14.4914 12.3136C14.2841 12.8144 13.9802 13.2694 13.597 13.6527C13.2138 14.036 12.7589 14.3401 12.2582 14.5475C11.7574 14.755 11.2208 14.8617 10.6788 14.8617ZM14.234 40.8953H7.1152V17.993H14.234V40.8953ZM44.4418 0.000299364H3.54203C2.61318 -0.0099216 1.71829 0.349126 1.05409 0.998509C0.389884 1.64789 0.0107376 2.53446 0 3.4633L0 44.5355C0.0110544 45.4644 0.390262 46.3509 1.05436 47.0004C1.71846 47.6499 2.61316 48.0093 3.54203 47.9997H44.4418C45.3725 48.0112 46.2697 47.6529 46.9363 47.0033C47.6029 46.3538 47.9844 45.4662 47.997 44.5355V3.4633C47.9847 2.53265 47.6033 1.645 46.9366 0.99558C46.2698 0.346159 45.3725 -0.0118487 44.4418 0.000299364Z" fill="#0A66C2"/>
</svg>
