<svg width="16" height="16" viewBox="0 0 16 16" fill="none" xmlns="http://www.w3.org/2000/svg">
<path fill-rule="evenodd" clip-rule="evenodd" d="M15 1.74238C15 1.30056 14.6418 0.942383 14.2 0.942383H1.8C1.35817 0.942383 1 1.30056 1 1.74238V11.2549V12.1924V13.5338C1 14.3035 1.98054 14.6292 2.44103 14.0124L3.56004 12.5138C3.71106 12.3115 3.94866 12.1924 4.20107 12.1924H14.2C14.6418 12.1924 15 11.8342 15 11.3924V1.74238Z" fill="white"/>
<path d="M3.56004 12.5138L3.96068 12.8129L3.56004 12.5138ZM1.8 1.44238H14.2V0.442383H1.8V1.44238ZM1.5 11.2549V1.74238H0.5V11.2549H1.5ZM1.5 12.1924V11.2549H0.5V12.1924H1.5ZM1.5 13.5338V12.1924H0.5V13.5338H1.5ZM3.1594 12.2146L2.04038 13.7133L2.84167 14.3116L3.96068 12.8129L3.1594 12.2146ZM14.2 11.6924H4.20107V12.6924H14.2V11.6924ZM14.5 1.74238V11.3924H15.5V1.74238H14.5ZM0.5 13.5338C0.5 14.7845 2.09337 15.3138 2.84167 14.3116L2.04038 13.7133C1.8677 13.9446 1.5 13.8224 1.5 13.5338H0.5ZM14.2 12.6924C14.918 12.6924 15.5 12.1104 15.5 11.3924H14.5C14.5 11.5581 14.3657 11.6924 14.2 11.6924V12.6924ZM14.2 1.44238C14.3657 1.44238 14.5 1.5767 14.5 1.74238H15.5C15.5 1.02441 14.918 0.442383 14.2 0.442383V1.44238ZM3.96068 12.8129C4.01731 12.7371 4.10642 12.6924 4.20107 12.6924V11.6924C3.7909 11.6924 3.4048 11.886 3.1594 12.2146L3.96068 12.8129ZM1.8 0.442383C1.08203 0.442383 0.5 1.02441 0.5 1.74238H1.5C1.5 1.5767 1.63431 1.44238 1.8 1.44238V0.442383Z" fill="black"/>
<circle cx="4.9375" cy="6.56738" r="0.9375" fill="black"/>
<circle cx="7.75" cy="6.56738" r="0.9375" fill="black"/>
<circle cx="10.5625" cy="6.56738" r="0.9375" fill="black"/>
</svg>
