<svg width="24" height="24" viewBox="0 0 24 24" fill="none" xmlns="http://www.w3.org/2000/svg">
<g id="icon_reload">
<path id="Vector" d="M5 8.40727C6.02616 6.76733 7.53177 5.51721 9.29286 4.84291C11.0539 4.16861 12.9764 4.10616 14.7742 4.66484C16.572 5.22352 18.1491 6.37349 19.2708 7.94365C20.3926 9.51382 20.999 11.4203 21 13.3794" stroke="black" stroke-width="1.4" stroke-linecap="round" stroke-linejoin="round"/>
<path id="Vector_2" d="M23 11.3589L20.9957 14.3897L18 12.2173" stroke="black" stroke-width="1.4" stroke-linecap="round" stroke-linejoin="round"/>
<path id="Vector_3" d="M19 17.7969C18.0385 19.2551 16.6272 20.3669 14.9761 20.9667C13.325 21.5666 11.5225 21.6225 9.83673 21.126C8.151 20.6296 6.67223 19.6074 5.62054 18.2115C4.56885 16.8157 4.00047 15.1209 4 13.3794" stroke="black" stroke-width="1.4" stroke-linecap="round" stroke-linejoin="round"/>
<path id="Vector_4" d="M1 15.3999L3.40401 12.3691L7 14.5415" stroke="black" stroke-width="1.4" stroke-linecap="round" stroke-linejoin="round"/>
</g>
</svg>
