<svg width="48" height="48" viewBox="0 0 48 48" fill="none" xmlns="http://www.w3.org/2000/svg">
<path d="M37.1441 25.4981C37.0894 19.4248 42.1045 16.509 42.3202 16.3709C39.5049 12.2444 35.1081 11.6693 33.5524 11.6032C29.8026 11.215 26.2512 13.803 24.362 13.803C22.4727 13.803 19.5367 11.6635 16.4396 11.7268C12.3563 11.7901 8.60646 14.0906 6.51014 17.7368C2.27723 25.084 5.42315 35.9682 9.55541 41.9236C11.5683 44.8395 13.9695 48.1148 17.124 47.9969C20.1693 47.879 21.3196 46.0329 24.9946 46.0329C28.6696 46.0329 29.702 47.9969 32.9198 47.9481C36.1894 47.879 38.2656 44.9632 40.2612 42.0473C41.6898 39.9398 42.8102 37.6391 43.5883 35.2148C43.5136 35.1918 37.2045 32.7821 37.1441 25.4981Z" fill="#B0B2B0"/>
<path d="M31.0967 7.66064C32.776 5.64771 33.9061 2.81235 33.5956 0C31.1829 0.0920197 28.2556 1.61322 26.5302 3.6319C24.9716 5.43779 23.6086 8.31628 23.9795 11.0654C26.6653 11.2695 29.4231 9.6937 31.0967 7.66064Z" fill="#B0B2B0"/>
</svg>
