<svg width="20" height="20" viewBox="0 0 20 20" fill="none" xmlns="http://www.w3.org/2000/svg">
<path d="M7.33325 1.6665H4.33325C3.78097 1.6665 3.33325 2.11422 3.33325 2.6665V17.3332C3.33325 17.8855 3.78097 18.3332 4.33325 18.3332H7.33325C7.88554 18.3332 8.33325 17.8855 8.33325 17.3332V2.6665C8.33325 2.11422 7.88554 1.6665 7.33325 1.6665Z" fill="black"/>
<path d="M15.6665 1.6665H12.6665C12.1142 1.6665 11.6665 2.11422 11.6665 2.6665V17.3332C11.6665 17.8855 12.1142 18.3332 12.6665 18.3332H15.6665C16.2188 18.3332 16.6665 17.8855 16.6665 17.3332V2.6665C16.6665 2.11422 16.2188 1.6665 15.6665 1.6665Z" fill="black"/>
</svg>
