<svg width="24" height="25" viewBox="0 0 24 25" fill="none" xmlns="http://www.w3.org/2000/svg">
<g id="icon-14-question">
<path id="Ellipse 39 (Stroke)" fill-rule="evenodd" clip-rule="evenodd" d="M11.9993 19.9307C16.3808 19.9307 19.9327 16.3789 19.9327 11.9974C19.9327 7.61594 16.3808 4.06406 11.9993 4.06406C7.61789 4.06406 4.06602 7.61594 4.06602 11.9974C4.06602 16.3789 7.61789 19.9307 11.9993 19.9307ZM11.9993 21.3307C17.154 21.3307 21.3327 17.1521 21.3327 11.9974C21.3327 6.84274 17.154 2.66406 11.9993 2.66406C6.84469 2.66406 2.66602 6.84274 2.66602 11.9974C2.66602 17.1521 6.84469 21.3307 11.9993 21.3307Z" fill="#999999"/>
<path id="Ellipse 29 (Stroke)" fill-rule="evenodd" clip-rule="evenodd" d="M12.0001 8.26719C11.0829 8.26719 10.3668 8.98984 10.3668 9.84773H8.9668C8.9668 8.18661 10.3401 6.86719 12.0001 6.86719C13.6602 6.86719 15.0335 8.18661 15.0335 9.84773C15.0335 11.2683 14.0292 12.4389 12.7001 12.7482V14.5672H11.3001V11.4283H12.0001C12.9174 11.4283 13.6335 10.7056 13.6335 9.84773C13.6335 8.98984 12.9174 8.26719 12.0001 8.26719Z" fill="#999999"/>
<path id="Rectangle 3464166" d="M11.3008 15.7344H12.7008V17.1344H11.3008V15.7344Z" fill="#999999"/>
</g>
</svg>
