<svg width="20" height="20" viewBox="0 0 20 20" fill="none" xmlns="http://www.w3.org/2000/svg">
<path fill-rule="evenodd" clip-rule="evenodd" d="M18.0197 3.54609C18.0197 3.10427 17.6616 2.74609 17.2197 2.74609H2.78062C2.33879 2.74609 1.98062 3.10427 1.98062 3.54609V14.5608C1.98062 14.5608 1.98059 14.5608 1.98054 14.5608C1.9805 14.5608 1.98047 14.5609 1.98047 14.5609V17.5225C1.98047 18.2922 2.961 18.6179 3.42149 18.0011L4.9485 15.956C5.09951 15.7538 5.33712 15.6347 5.58952 15.6347H17.2197C17.6616 15.6347 18.0197 15.2765 18.0197 14.8347V3.54609Z" fill="white"/>
<path d="M4.9485 15.956L5.5094 16.3748L4.9485 15.956ZM2.78062 3.44609H17.2197V2.04609H2.78062V3.44609ZM2.68062 14.5608V3.54609H1.28062V14.5608H2.68062ZM2.68047 17.5225V14.5609H1.28047V17.5225H2.68047ZM4.3876 15.5372L2.8606 17.5823L3.98239 18.4199L5.5094 16.3748L4.3876 15.5372ZM17.2197 14.9347H5.58952V16.3347H17.2197V14.9347ZM17.3197 3.54609V14.8347H18.7197V3.54609H17.3197ZM17.2197 16.3347C18.0482 16.3347 18.7197 15.6631 18.7197 14.8347H17.3197C17.3197 14.8899 17.275 14.9347 17.2197 14.9347V16.3347ZM5.5094 16.3748C5.52827 16.3496 5.55797 16.3347 5.58952 16.3347V14.9347C5.11626 14.9347 4.67075 15.158 4.3876 15.5372L5.5094 16.3748ZM1.28047 17.5225C1.28047 18.9657 3.11897 19.5763 3.98239 18.4199L2.8606 17.5823C2.83824 17.6123 2.82136 17.6184 2.81214 17.621C2.79787 17.6251 2.77524 17.6261 2.74895 17.6174C2.72265 17.6087 2.70518 17.5943 2.69615 17.5825C2.69032 17.5749 2.68047 17.5599 2.68047 17.5225H1.28047ZM1.98054 13.8608C1.59576 13.8608 1.28047 14.1724 1.28047 14.5609H2.68047C2.68047 14.9493 2.36524 15.2608 1.98054 15.2608V13.8608ZM1.28062 14.5608C1.28062 14.1742 1.59399 13.8608 1.98054 13.8608V15.2608C2.36718 15.2608 2.68062 14.9474 2.68062 14.5608H1.28062ZM17.2197 3.44609C17.275 3.44609 17.3197 3.49086 17.3197 3.54609H18.7197C18.7197 2.71767 18.0482 2.04609 17.2197 2.04609V3.44609ZM2.78062 2.04609C1.95219 2.04609 1.28062 2.71767 1.28062 3.54609H2.68062C2.68062 3.49087 2.72539 3.44609 2.78062 3.44609V2.04609Z" fill="black"/>
<circle cx="6.49006" cy="9.19075" r="1.07405" fill="black"/>
<circle cx="9.71272" cy="9.19075" r="1.07405" fill="black"/>
<circle cx="12.9334" cy="9.19075" r="1.07405" fill="black"/>
</svg>
