<svg width="92" height="24" viewBox="0 0 92 24" fill="none" xmlns="http://www.w3.org/2000/svg">
<path d="M9.99095 12.4315L17.3921 5.40771H12.3815L5.1543 12.4315L17.059 24H22.1621L9.99095 12.4315Z" fill="white"/>
<path d="M29.3382 5.19922V7.51C32.739 7.51 34.8113 9.33816 34.8113 12.446C34.8113 15.5539 32.739 17.4332 29.3382 17.4332V19.6928C35.5033 19.6928 39.4889 16.8555 39.4889 12.446C39.4889 8.03651 35.5033 5.19922 29.3382 5.19922ZM29.3382 5.19922C23.173 5.19922 19.1875 8.04383 19.1875 12.4314C19.1875 16.819 23.173 19.6928 29.3382 19.6928V17.4332H29.2827C25.8818 17.4332 23.8095 15.5429 23.8095 12.446C23.8095 9.34913 25.8818 7.51 29.2827 7.51H29.3382V5.19922Z" fill="white"/>
<path d="M50.491 19.4296H54.8503V17.3821H53.148C50.3319 17.3821 49.3216 16.4351 49.3216 13.9671V7.51005H54.8503V5.40768H49.3216V0H44.9105V5.40768H41.21V7.51005H44.9105V15.2285C44.9105 17.9598 46.8755 19.4296 50.491 19.4296Z" fill="white"/>
<path d="M83.2813 19.4297H91.9999V10.5558C91.9999 7.1408 89.4095 5.40771 84.2287 5.40771H83.2702V7.6015C85.4906 7.70753 87.4186 8.18285 87.4186 10.49V11.2797H83.2813V13.3273H87.4815V17.3273H83.2813V19.4297ZM80.2542 19.4297H83.2813V17.3273H82.4339C80.8907 17.3273 79.1367 17.3273 79.1367 15.4991C79.1367 13.5028 80.987 13.3456 82.8039 13.3456H83.2813V11.298H82.0601C76.6943 11.298 74.5146 12.5595 74.5146 15.6052C74.5146 18.0732 76.587 19.437 80.2542 19.437V19.4297ZM83.2813 5.40771H75.8617V7.6015H83.2998L83.2813 5.40771Z" fill="white"/>
<path d="M63.6725 5.40771C59.7906 5.40771 58.5176 6.24867 58.5176 8.76786V19.4297H62.9287V9.55762C62.9287 7.61247 65.8521 7.61247 67.1806 7.61247H72.3355L74.6743 5.41868L63.6725 5.40771Z" fill="white"/>
<path d="M4.35928 19.4296V0H0V19.4296H4.35928Z" fill="white"/>
</svg>
