<svg width="96" height="20" viewBox="0 0 96 20" fill="none" xmlns="http://www.w3.org/2000/svg">
<path d="M68.0058 19.9855L64.7009 19.9936L61.1589 13.9068H58.5745L58.5917 19.9982H55.6133V5.25339C55.6133 5.25339 60.8393 5.16061 63.2564 5.33342C65.253 5.47608 66.4765 6.86091 66.8075 7.89895C67.1386 8.93699 66.9817 10.6199 66.7205 11.3958C66.4593 12.1717 65.7754 12.9894 64.7272 13.4533L64.4225 13.5693L68.0058 19.9855ZM62.7603 11.1453C63.8108 11.1163 64.3939 10.5654 64.4088 9.57606C64.4237 8.65516 63.8257 8.05089 62.805 8.03581C62.3846 8.03001 58.5814 8.02305 58.5814 8.02305V11.1546L62.7603 11.1453Z" fill="#1C1C1C"/>
<path d="M69.5781 5.25H80.3027V7.99994H72.4809V11.1465H78.3576V13.9185H72.4809V17.231H80.3027V19.996H69.5781V5.25Z" fill="#1C1C1C"/>
<path d="M95.9964 19.9729H92.8645L91.995 17.7309L85.4288 17.7205L84.5295 19.9682H81.4297C81.4297 19.9682 83.5077 14.8198 84.5158 12.2658C85.3681 10.1109 87.2903 5.21875 87.2903 5.21875H90.1759C90.1759 5.21875 91.0454 7.43517 91.3787 8.35027C91.6285 9.03109 91.9595 9.70379 92.2322 10.3869C93.4602 13.4639 95.8819 19.6307 95.8819 19.6307L95.9964 19.9729ZM86.5778 14.7699H90.9217L88.8139 9.2097L86.5778 14.7699Z" fill="#1C1C1C"/>
<path d="M32.1296 11.0545L37.0371 5.13477L40.2939 5.22987L34.5868 12.1366L41.444 19.9805H37.587L32.1296 13.6966V19.9805H29.2383V5.22755L32.1457 5.22523L32.1296 11.0545Z" fill="#1C1C1C"/>
<path d="M16.0253 5.37305C16.0253 5.37305 16.0333 9.54841 16.031 11.3635C16.031 12.2914 15.7881 13.2367 15.0424 13.7099C14.2966 14.1831 12.9678 14.1738 12.2095 13.7029C11.4511 13.232 11.269 12.3331 11.2678 11.4482C11.2678 9.82445 11.2678 5.37305 11.2678 5.37305H9.66406C9.66406 5.37305 9.67323 9.67715 9.67437 11.512C9.67437 13.7075 10.8199 15.1144 12.9552 15.3707C15.1592 15.634 17.2968 14.7572 17.5649 12.158C17.5649 9.94043 17.5649 5.37305 17.5649 5.37305H16.0253Z" fill="#258DEC"/>
<path d="M8.47702 8.60473C8.29144 7.53885 7.94435 6.53677 7.07831 5.84435C6.29459 5.19696 5.30939 4.85213 4.29808 4.87126C3.32093 4.90257 2.61413 5.13918 1.86953 5.76664C1.80538 5.82 1.61063 6.00789 1.61063 6.00789L1.60376 0H0L0.0114554 14.8863H1.10889L1.46057 13.8611C3.52942 16.045 6.50669 15.1125 7.61214 13.3681C8.07062 12.6603 8.36619 11.8573 8.47702 11.0183C8.55213 10.2156 8.55213 9.40747 8.47702 8.60473ZM6.65446 11.7641C6.27414 12.9807 5.21337 13.9538 4.01971 13.8518C3.54953 13.8084 3.09341 13.6664 2.68042 13.4348C2.26742 13.2032 1.9066 12.887 1.62094 12.5064L1.59803 12.3823V7.31269C1.59803 7.31269 1.73894 7.18627 2.02074 6.97402C4.13541 5.38042 6.51127 6.36743 6.85952 9.01879C6.99247 9.93798 6.92244 10.8756 6.65446 11.7641Z" fill="#258DEC"/>
<path d="M46.9122 8.03358C49.374 8.03358 51.3799 10.0923 51.3799 12.6218C51.3799 15.1514 49.3763 17.2101 46.9122 17.2101C44.4482 17.2101 42.4446 15.1514 42.4446 12.6218C42.4446 10.0923 44.447 8.03358 46.9122 8.03358ZM46.9122 5.25C42.928 5.25 39.6953 8.55086 39.6953 12.6218C39.6953 16.6928 42.9246 19.9937 46.9122 19.9937C50.8999 19.9937 54.1292 16.6928 54.1292 12.6218C54.1292 8.55086 50.8987 5.25 46.9122 5.25Z" fill="#1C1C1C"/>
<path d="M20.1843 19.8788H21.7995L27.8148 5.35547H26.1996L23.0779 12.892L20.0709 5.35547H18.4648L22.26 14.8672L20.1843 19.8788Z" fill="#258DEC"/>
</svg>
