<svg width="20" height="20" viewBox="0 0 20 20" fill="none" xmlns="http://www.w3.org/2000/svg">
<rect width="20" height="20" fill="#258DEC"/>
<g clip-path="url(#clip0_1628_900)">
<path d="M9.99992 16.6668C13.6818 16.6668 16.6666 13.6821 16.6666 10.0002C16.6666 6.31826 13.6818 3.3335 9.99992 3.3335C6.31802 3.3335 3.33325 6.31826 3.33325 10.0002C3.33325 13.6821 6.31802 16.6668 9.99992 16.6668Z" stroke="white" stroke-linecap="round" stroke-linejoin="round"/>
<path d="M3.33325 10H16.6666" stroke="white" stroke-linecap="round" stroke-linejoin="round"/>
<path d="M9.99992 16.6668C11.4727 16.6668 12.6666 13.6821 12.6666 10.0002C12.6666 6.31826 11.4727 3.3335 9.99992 3.3335C8.52715 3.3335 7.33325 6.31826 7.33325 10.0002C7.33325 13.6821 8.52715 16.6668 9.99992 16.6668Z" stroke="white" stroke-linecap="round" stroke-linejoin="round"/>
<path d="M5.28589 5.38086C6.49232 6.58729 8.15899 7.33349 9.99992 7.33349C11.8409 7.33349 13.5076 6.58729 14.714 5.38086" stroke="white" stroke-linecap="round" stroke-linejoin="round"/>
<path d="M14.714 14.6196C13.5076 13.4132 11.8409 12.667 9.99992 12.667C8.15899 12.667 6.49232 13.4132 5.28589 14.6196" stroke="white" stroke-linecap="round" stroke-linejoin="round"/>
</g>
<defs>
<clipPath id="clip0_1628_900">
<rect width="16" height="16" fill="white" transform="translate(2 2)"/>
</clipPath>
</defs>
</svg>
