<svg width="80" height="80" viewBox="0 0 80 80" fill="none" xmlns="http://www.w3.org/2000/svg">
<rect width="80" height="80" fill="#F6F6F6"/>
<rect x="35.75" y="30.75" width="20.5" height="28.5" fill="#F6F6F6" stroke="#999999" stroke-width="1.5"/>
<rect x="22.75" y="22.75" width="24.5" height="36.5" fill="#F6F6F6" stroke="#999999" stroke-width="1.5"/>
<rect x="31.75" y="47.75" width="6.5" height="11.5" fill="#F6F6F6" stroke="#999999" stroke-width="1.5"/>
<rect x="26" y="26" width="3" height="3" fill="#999999"/>
<rect x="26" y="31" width="3" height="3" fill="#999999"/>
<rect x="26" y="36" width="3" height="3" fill="#999999"/>
<rect x="26" y="41" width="3" height="3" fill="#999999"/>
<rect x="36" y="26" width="3" height="3" fill="#999999"/>
<rect x="36" y="31" width="3" height="3" fill="#999999"/>
<rect x="36" y="36" width="3" height="3" fill="#999999"/>
<rect x="36" y="41" width="3" height="3" fill="#999999"/>
<rect x="31" y="26" width="3" height="3" fill="#999999"/>
<rect x="31" y="31" width="3" height="3" fill="#999999"/>
<rect x="31" y="36" width="3" height="3" fill="#999999"/>
<rect x="31" y="41" width="3" height="3" fill="#999999"/>
<rect x="41" y="26" width="3" height="3" fill="#999999"/>
<rect x="50" y="36" width="3" height="3" fill="#999999"/>
<rect x="41" y="31" width="3" height="3" fill="#999999"/>
<rect x="50" y="41" width="3" height="3" fill="#999999"/>
<rect x="41" y="36" width="3" height="3" fill="#999999"/>
<rect x="50" y="46" width="3" height="3" fill="#999999"/>
<rect x="50" y="51" width="3" height="3" fill="#999999"/>
<rect x="41" y="41" width="3" height="3" fill="#999999"/>
</svg>
