<svg width="80" height="80" viewBox="0 0 80 80" fill="none" xmlns="http://www.w3.org/2000/svg">
<circle cx="40" cy="40" r="39.5" fill="white" stroke="#DDDDDD"/>
<path d="M30.1421 31.1377H32.3921V42.6807C32.3921 43.9619 32.1069 45.0283 31.5366 45.8799C30.9663 46.7314 30.2085 47.3721 29.2632 47.8018C28.3257 48.2236 27.3062 48.4346 26.2046 48.4346C25.0483 48.4346 24.0015 48.2236 23.064 47.8018C22.1343 47.3721 21.396 46.7314 20.8491 45.8799C20.3101 45.0283 20.0405 43.9619 20.0405 42.6807V31.1377H22.2788V42.6807C22.2788 43.5713 22.4429 44.3057 22.771 44.8838C23.0991 45.4619 23.5562 45.8916 24.1421 46.1729C24.7358 46.4541 25.4233 46.5947 26.2046 46.5947C26.9937 46.5947 27.6812 46.4541 28.2671 46.1729C28.8608 45.8916 29.3218 45.4619 29.6499 44.8838C29.978 44.3057 30.1421 43.5713 30.1421 42.6807V31.1377ZM35.9429 31.1377H41.5913C42.8726 31.1377 43.9546 31.333 44.8374 31.7236C45.728 32.1143 46.4038 32.6924 46.8647 33.458C47.3335 34.2158 47.5679 35.1494 47.5679 36.2588C47.5679 37.04 47.4077 37.7549 47.0874 38.4033C46.7749 39.0439 46.3218 39.5908 45.728 40.0439C45.1421 40.4893 44.439 40.8213 43.6187 41.04L42.9858 41.2861H37.6772L37.6538 39.4463H41.6616C42.4741 39.4463 43.1499 39.3057 43.689 39.0244C44.228 38.7354 44.6343 38.3486 44.9077 37.8643C45.1812 37.3799 45.3179 36.8447 45.3179 36.2588C45.3179 35.6025 45.189 35.0283 44.9312 34.5361C44.6733 34.0439 44.2671 33.665 43.7124 33.3994C43.1655 33.126 42.4585 32.9893 41.5913 32.9893H38.2046V48.2002H35.9429V31.1377ZM45.9155 48.2002L41.7671 40.4658L44.1226 40.4541L48.3296 48.0596V48.2002H45.9155ZM61.0796 46.3604V48.2002H52.5483V46.3604H61.0796ZM52.9937 31.1377V48.2002H50.7319V31.1377H52.9937Z" fill="black"/>
</svg>
