<svg width="32" height="32" viewBox="0 0 32 32" fill="none" xmlns="http://www.w3.org/2000/svg">
<rect x="2.66675" y="3.55566" width="25.7778" height="24.8889" fill="white"/>
<path d="M27.2641 27.2635H22.5231V19.8394C22.5231 18.0688 22.4911 15.7897 20.0571 15.7897C17.588 15.7897 17.2096 17.7183 17.2096 19.7101V27.2635H12.4686V11.9954H17.0188V14.0813H17.0827C17.5381 13.3026 18.1963 12.6619 18.9871 12.2277C19.7778 11.7934 20.6716 11.5818 21.5731 11.6154C26.378 11.6154 27.2641 14.7758 27.2641 18.8878V27.2635ZM7.11919 9.90783C6.57491 9.90799 6.04282 9.74673 5.5902 9.44447C5.13757 9.1422 4.78475 8.7125 4.57636 8.2097C4.36797 7.7069 4.31336 7.1536 4.41945 6.61976C4.52553 6.08593 4.78754 5.59555 5.17235 5.21063C5.55715 4.82572 6.04746 4.56356 6.58126 4.45732C7.11506 4.35108 7.66838 4.40553 8.17124 4.61377C8.6741 4.82202 9.10391 5.17472 9.40631 5.62725C9.7087 6.07979 9.87011 6.61184 9.87011 7.15611C9.87021 7.51743 9.79914 7.87524 9.66094 8.20909C9.52274 8.54293 9.32012 8.84629 9.06466 9.10182C8.80921 9.35735 8.50591 9.56005 8.1721 9.69835C7.83829 9.83665 7.48051 9.90783 7.11919 9.90783ZM9.48932 27.2635H4.74346V11.9954H9.48932V27.2635ZM29.6279 0.000199576H2.36135C1.74212 -0.0066144 1.14553 0.232751 0.702725 0.665673C0.259923 1.09859 0.0071584 1.68964 0 2.30887L0 29.6904C0.0073696 30.3096 0.260174 30.9006 0.702907 31.3336C1.14564 31.7666 1.74211 32.0062 2.36135 31.9998H29.6279C30.2483 32.0075 30.8465 31.7686 31.2909 31.3355C31.7353 30.9025 31.9896 30.3108 31.998 29.6904V2.30887C31.9898 1.68844 31.7355 1.09667 31.291 0.66372C30.8466 0.230773 30.2483 -0.00789916 29.6279 0.000199576Z" fill="#0A66C2"/>
</svg>
