<svg width="32" height="32" viewBox="0 0 32 32" fill="none" xmlns="http://www.w3.org/2000/svg">
<g clip-path="url(#clip0_1839_1778)">
<path d="M6.80102 0H25.1951C28.9507 0 31.998 3.04933 31.998 6.80298V25.197C31.998 28.9527 28.9487 32 25.1951 32H6.80102C3.04538 32 -0.00195312 28.9507 -0.00195312 25.197V6.80298C-0.00195312 3.04933 3.04738 0 6.80102 0Z" fill="#1977F3"/>
<path d="M13.6781 32H18.1981V20.579H22.3839L22.8181 16.2691C22.8181 16.2691 22.9102 16.057 22.452 16.057H18.1981V12.8056C18.1981 12.8056 18.01 10.3465 20.4591 10.3465H22.9582V6.54282C22.9582 6.54282 21.8817 6.06461 19.2806 6.09062C19.2806 6.09062 16.9836 6.06261 15.1868 7.77936C15.1868 7.77936 13.6781 9.12995 13.6781 10.6626V16.055H9.39624V20.575H13.6781V31.996V32Z" fill="white"/>
</g>
<defs>
<clipPath id="clip0_1839_1778">
<rect width="32" height="32" fill="white" transform="translate(-0.00195312)"/>
</clipPath>
</defs>
</svg>
