<svg width="30" height="30" viewBox="0 0 30 30" fill="none" xmlns="http://www.w3.org/2000/svg">
<mask id="mask0_2226_316" style="mask-type:alpha" maskUnits="userSpaceOnUse" x="0" y="0" width="30" height="30">
<circle cx="15" cy="15" r="15" fill="#2867B2"/>
</mask>
<g mask="url(#mask0_2226_316)">
<path d="M30 23.4281C30 27.0577 27.0778 30 23.4726 30H6.5274C2.92216 30 0 27.0577 0 23.4281V6.57189C0 2.94229 2.92216 0 6.5274 0H23.4698C27.075 0 29.9972 2.94229 29.9972 6.57189L30 23.4281Z" fill="white"/>
<path d="M11.2726 6.06229C10.315 6.10747 9.66088 6.26083 9.08938 6.48475C8.49771 6.71533 7.99623 7.02457 7.49726 7.52551C6.99775 8.02681 6.69103 8.52919 6.46207 9.12139C6.24049 9.69433 6.09019 10.3488 6.04806 11.3069C6.00594 12.2671 5.9964 12.5732 6.00108 15.0173C6.00576 17.461 6.01656 17.7677 6.06228 18.728C6.10801 19.6854 6.26083 20.3392 6.48475 20.911C6.71569 21.5027 7.02458 22.004 7.5257 22.5031C8.02665 23.0022 8.52939 23.3088 9.12196 23.5379C9.69436 23.7593 10.349 23.91 11.307 23.9519C12.267 23.9942 12.5735 24.0036 15.0168 23.9989C17.4613 23.9942 17.7678 23.9834 18.7278 23.9379C19.6854 23.8922 20.3388 23.7388 20.911 23.5154C21.5027 23.2839 22.0042 22.9756 22.5031 22.4745C23.0021 21.9735 23.3088 21.4708 23.5378 20.8783C23.7594 20.3059 23.9102 19.6512 23.9518 18.6938C23.9937 17.7333 24.0036 17.4264 23.9989 14.9829C23.9943 12.539 23.9833 12.2329 23.9377 11.2731C23.8922 10.315 23.7388 9.66139 23.5153 9.08935C23.284 8.49769 22.9754 7.99675 22.4745 7.49725C21.9736 6.99829 21.4708 6.69103 20.8782 6.46261C20.3055 6.24103 19.6512 6.09001 18.6932 6.04861C17.7334 6.00577 17.4271 5.99641 14.9828 6.00109C12.5391 6.00577 12.2328 6.01621 11.2728 6.06229M11.3777 22.3321C10.5002 22.2939 10.0238 22.1481 9.70624 22.0259C9.28576 21.8632 8.9857 21.6681 8.66979 21.3547C8.35461 21.0401 8.15895 20.7409 7.99479 20.3213C7.87148 20.0038 7.72298 19.5279 7.68194 18.6504C7.6373 17.7018 7.62704 17.4172 7.62272 15.014C7.61804 12.6116 7.62686 12.3268 7.66826 11.3775C7.70588 10.5007 7.85258 10.0235 7.97445 9.70639C8.13717 9.28537 8.33157 8.98585 8.64567 8.66995C8.96032 8.35423 9.25948 8.15911 9.67942 7.99495C9.99677 7.87093 10.4725 7.72369 11.3497 7.68211C12.2988 7.63711 12.5832 7.62757 14.9857 7.62289C17.3887 7.61821 17.6735 7.62667 18.6228 7.66843C19.4996 7.70659 19.9768 7.85185 20.2938 7.97461C20.7146 8.13733 21.0147 8.33119 21.3302 8.64583C21.6458 8.96047 21.8414 9.25909 22.0056 9.67993C22.1294 9.99637 22.2769 10.4728 22.3183 11.3496C22.3634 12.2987 22.3737 12.5833 22.378 14.986C22.3827 17.3891 22.3739 17.6737 22.3323 18.6225C22.2941 19.5 22.1485 19.9766 22.0261 20.2945C21.8634 20.7146 21.6688 21.0147 21.3545 21.3306C21.0402 21.6452 20.7411 21.8414 20.3208 22.0056C20.0042 22.1292 19.5277 22.2768 18.6511 22.3184C17.7019 22.3631 17.4175 22.3733 15.0141 22.3776C12.6117 22.3823 12.3273 22.3733 11.3779 22.3321M18.7146 10.1891C18.7157 10.7851 19.2004 11.2677 19.7964 11.2666C20.3928 11.2655 20.8754 10.7812 20.8745 10.185C20.8732 9.58903 20.3886 9.10609 19.7923 9.10717C19.1959 9.10825 18.7134 9.59299 18.7144 10.189M10.3789 15.0088C10.3838 17.5612 12.4569 19.6258 15.0087 19.6208C17.5608 19.6157 19.6265 17.5434 19.6217 14.991C19.6166 12.4395 17.5433 10.3738 14.9909 10.3787C12.439 10.3837 10.3739 12.457 10.3789 15.0088ZM12 15.0056C11.9971 13.349 13.338 12.0032 14.9942 12.0003C16.6507 11.9971 17.9968 13.3373 18 14.9942C18.0033 16.6511 16.6624 17.9966 15.0055 17.9999C13.3491 18.0031 12.0031 16.6627 12 15.0058" fill="#222222"/>
</g>
</svg>
