<svg width="32" height="32" viewBox="0 0 32 32" fill="none" xmlns="http://www.w3.org/2000/svg">
<path d="M32 24.99C32 28.8616 28.883 32 25.0374 32H6.96256C3.11698 32 0 28.8616 0 24.99V7.01002C0 3.13844 3.11698 0 6.96256 0H25.0344C28.88 0 31.997 3.13844 31.997 7.01002L32 24.99Z" fill="url(#paint0_radial_1839_1765)"/>
<path d="M20.7966 4.94629H11.2036C7.91955 4.94629 5.25732 7.61406 5.25732 10.9049V21.1627C5.25732 24.4536 7.91955 27.1213 11.2036 27.1213H20.7966C24.0806 27.1213 26.7429 24.4536 26.7429 21.1627V10.9049C26.7429 7.61406 24.0806 4.94629 20.7966 4.94629Z" stroke="white" stroke-width="1.77778" stroke-miterlimit="10"/>
<path d="M21.2747 16.0002C21.2112 18.9207 18.9132 21.2864 15.9995 21.2864C15.3068 21.2864 14.6209 21.1496 13.9809 20.884C13.3409 20.6183 12.7595 20.2289 12.2697 19.738C11.7799 19.2472 11.3914 18.6644 11.1264 18.0231C10.8614 17.3817 10.725 16.6944 10.7251 16.0002C10.7251 13.0797 13.0881 10.6294 15.9995 10.714C19.5469 10.8181 21.3382 13.0917 21.2747 16.0002Z" stroke="white" stroke-width="1.77778" stroke-miterlimit="10"/>
<path d="M22.4975 10.9469C23.3147 10.9469 23.9771 10.2831 23.9771 9.46417C23.9771 8.64529 23.3147 7.98145 22.4975 7.98145C21.6803 7.98145 21.0178 8.64529 21.0178 9.46417C21.0178 10.2831 21.6803 10.9469 22.4975 10.9469Z" fill="white"/>
<defs>
<radialGradient id="paint0_radial_1839_1765" cx="0" cy="0" r="1" gradientUnits="userSpaceOnUse" gradientTransform="translate(9.30011 31.9214) scale(32.2593 32.3265)">
<stop stop-color="#FFD775"/>
<stop offset="0.25" stop-color="#F3A553"/>
<stop offset="0.38" stop-color="#F15C3C"/>
<stop offset="0.7" stop-color="#C32E87"/>
<stop offset="0.95" stop-color="#6765AE"/>
<stop offset="0.99" stop-color="#5C6CB3"/>
</radialGradient>
</defs>
</svg>
