<svg width="32" height="32" viewBox="0 0 32 32" fill="none" xmlns="http://www.w3.org/2000/svg">
<path d="M6.80102 0H25.1951C28.9507 0 31.998 3.04933 31.998 6.80298V25.197C31.998 28.9527 28.9487 32 25.1951 32H6.80102C3.04538 32 -0.00195312 28.9507 -0.00195312 25.197V6.80298C-0.00195312 3.04933 3.04738 0 6.80102 0Z" fill="black"/>
<g clip-path="url(#clip0_1839_1773)">
<path d="M24.1003 23.7682L17.691 14.6305L24.2688 7.11108H22.8323L17.051 13.7195L13.1812 8.2035L12.4153 7.11108H7.10913L7.87624 8.2035L14.1071 17.085L7.28136 24.8889H8.71663L14.746 17.9972L18.7953 23.7682L19.5819 24.8889H24.8869L24.1003 23.7682ZM20.1157 23.7682L15.4789 17.1586L14.84 16.2476L9.19668 8.2035H11.862L16.3193 14.5569L16.9581 15.4679L22.7798 23.7682H20.1157Z" fill="white"/>
</g>
<defs>
<clipPath id="clip0_1839_1773">
<rect width="17.7778" height="17.7778" fill="white" transform="translate(7.10913 7.11108)"/>
</clipPath>
</defs>
</svg>
