<svg width="30" height="30" viewBox="0 0 30 30" fill="none" xmlns="http://www.w3.org/2000/svg">
<circle cx="15" cy="15" r="15" fill="white"/>
<path d="M11.3543 13.0277H8.26266V22.9559H11.3543V13.0277Z" fill="#222222"/>
<path fill-rule="evenodd" clip-rule="evenodd" d="M11.617 9.83179C11.617 10.8434 10.8073 11.6636 9.8085 11.6636C8.80973 11.6636 8 10.8434 8 9.83179C8 8.82015 8.80973 8 9.8085 8C10.8073 8 11.617 8.82015 11.617 9.83179Z" fill="#222222"/>
<path fill-rule="evenodd" clip-rule="evenodd" d="M19.7243 12.6617C17.6297 12.6617 16.7363 13.7597 16.477 14.1647V13.0277H13.3853V22.9559H16.477V17.0929C16.477 17.0929 16.7447 15.3492 18.1985 15.3492C19.6524 15.3492 19.9066 16.9505 19.9066 17.4013V22.9983H22.9983V17.0929C22.9983 15.2052 22.2923 12.66 19.7226 12.66L19.7243 12.6617Z" fill="#222222"/>
</svg>
