<svg width="36" height="36" viewBox="0 0 36 36" fill="none" xmlns="http://www.w3.org/2000/svg">
<circle cx="18" cy="18" r="17.5" stroke="#444444"/>
<path d="M18 11.4415C20.1362 11.4415 20.3889 11.4498 21.2326 11.488C22.0124 11.5236 22.4361 11.6538 22.7179 11.7633C23.0913 11.9083 23.3579 12.082 23.638 12.3616C23.918 12.6416 24.0913 12.9082 24.2363 13.2816C24.3457 13.5634 24.476 13.9872 24.5116 14.767C24.5502 15.6106 24.558 15.8638 24.558 17.9996C24.558 20.1354 24.5498 20.3885 24.5116 21.2321C24.476 22.0119 24.3457 22.4357 24.2363 22.7175C24.0913 23.0909 23.9176 23.3575 23.638 23.6376C23.3579 23.9176 23.0913 24.0909 22.7179 24.2359C22.4361 24.3453 22.0124 24.4755 21.2326 24.5112C20.3889 24.5498 20.1362 24.5576 18 24.5576C15.8638 24.5576 15.6106 24.5494 14.7674 24.5112C13.9876 24.4755 13.5639 24.3453 13.2821 24.2359C12.9087 24.0909 12.6421 23.9172 12.362 23.6376C12.082 23.3575 11.9087 23.0909 11.7637 22.7175C11.6543 22.4357 11.524 22.0119 11.4884 21.2321C11.4498 20.3885 11.442 20.1354 11.442 17.9996C11.442 15.8638 11.4502 15.6106 11.4884 14.767C11.524 13.9872 11.6543 13.5634 11.7637 13.2816C11.9087 12.9082 12.0824 12.6416 12.362 12.3616C12.6421 12.0815 12.9087 11.9083 13.2821 11.7633C13.5639 11.6538 13.9876 11.5236 14.7674 11.488C15.6111 11.4493 15.8642 11.4415 18 11.4415ZM18 10C15.8273 10 15.5551 10.0091 14.7014 10.0482C13.85 10.0868 13.2682 10.2223 12.7593 10.4199C12.2331 10.6244 11.7871 10.8979 11.3425 11.3425C10.8979 11.7871 10.6244 12.2335 10.4199 12.7593C10.2223 13.2682 10.0868 13.8496 10.0482 14.7014C10.0091 15.5546 10 15.8273 10 18C10 20.1727 10.0091 20.4449 10.0482 21.2986C10.0868 22.15 10.2223 22.7318 10.4199 23.2407C10.6244 23.7669 10.8979 24.2129 11.3425 24.6575C11.7871 25.1021 12.2335 25.3756 12.7593 25.5801C13.2682 25.7777 13.8496 25.9132 14.7014 25.9518C15.5546 25.9909 15.8273 26 18 26C20.1727 26 20.4449 25.9909 21.2986 25.9518C22.15 25.9132 22.7318 25.7777 23.2407 25.5801C23.7669 25.3756 24.2129 25.1021 24.6575 24.6575C25.1021 24.2129 25.3756 23.7665 25.5801 23.2407C25.7777 22.7318 25.9132 22.1504 25.9518 21.2986C25.9909 20.4454 26 20.1727 26 18C26 15.8273 25.9909 15.5551 25.9518 14.7014C25.9132 13.85 25.7777 13.2682 25.5801 12.7593C25.3756 12.2331 25.1021 11.7871 24.6575 11.3425C24.2129 10.8979 23.7665 10.6244 23.2407 10.4199C22.7318 10.2223 22.1504 10.0868 21.2986 10.0482C20.4454 10.0091 20.1727 10 18 10Z" fill="white"/>
<path d="M18.0068 13.8926C15.7381 13.8926 13.8984 15.7318 13.8984 18.0009C13.8984 20.27 15.7377 22.1092 18.0068 22.1092C20.2759 22.1092 22.1151 20.27 22.1151 18.0009C22.1151 15.7318 20.2759 13.8926 18.0068 13.8926ZM18.0068 20.6673C16.534 20.6673 15.34 19.4733 15.34 18.0005C15.34 16.5277 16.534 15.3337 18.0068 15.3337C19.4796 15.3337 20.6736 16.5277 20.6736 18.0005C20.6736 19.4733 19.4796 20.6673 18.0068 20.6673Z" fill="white"/>
<path d="M22.2686 14.6895C22.7988 14.6895 23.2286 14.2597 23.2286 13.7295C23.2286 13.1993 22.7988 12.7695 22.2686 12.7695C21.7384 12.7695 21.3086 13.1993 21.3086 13.7295C21.3086 14.2597 21.7384 14.6895 22.2686 14.6895Z" fill="white"/>
</svg>
