<svg width="32" height="32" viewBox="0 0 32 32" fill="none" xmlns="http://www.w3.org/2000/svg">
<path d="M32 24.99C32 28.8616 28.883 32 25.0374 32H6.96256C3.11698 32 0 28.8616 0 24.99V7.01002C0 3.13844 3.11698 0 6.96256 0H25.0344C28.88 0 31.997 3.13844 31.997 7.01002L32 24.99Z" fill="#0A66C2"/>
<path fill-rule="evenodd" clip-rule="evenodd" d="M22.6518 26H27V18.3055C27 14.5279 26.1873 11.6245 21.7806 11.6245C20.9537 11.5937 20.1341 11.7881 19.4088 12.187C18.6836 12.5859 18.08 13.1745 17.6623 13.8899H17.6037V11.9736H13.4305V26H17.7787V19.0609C17.7787 17.2311 18.1257 15.4593 20.3902 15.4593C22.6225 15.4593 22.6518 17.5531 22.6518 19.1797V26ZM7.12214 9.63017C7.53725 9.90785 8.02525 10.056 8.52442 10.0558C8.8558 10.0558 9.18394 9.99045 9.49009 9.8634C9.79623 9.73635 10.0744 9.55014 10.3087 9.31539C10.543 9.08064 10.7288 8.80196 10.8555 8.49526C10.9823 8.18856 11.0475 7.85986 11.0474 7.52792C11.0474 7.02791 10.8994 6.53914 10.622 6.12341C10.3447 5.70768 9.95048 5.38367 9.4893 5.19236C9.02811 5.00105 8.52064 4.95103 8.03107 5.04863C7.54151 5.14623 7.09183 5.38706 6.73891 5.74067C6.386 6.09428 6.1457 6.54478 6.0484 7.0352C5.95111 7.52562 6.00119 8.03392 6.19232 8.49582C6.38344 8.95773 6.70702 9.35248 7.12214 9.63017ZM6.34557 26H10.6981V11.9736H6.34557V26Z" fill="white"/>
</svg>
