<svg width="24" height="24" viewBox="0 0 24 24" fill="none" xmlns="http://www.w3.org/2000/svg">
<g id="Frame">
<path id="Vector" d="M4.97386 6.97017C4.98917 6.81678 5.11823 6.69995 5.27238 6.69995H18.7273C18.8815 6.69995 19.0105 6.81678 19.0258 6.97017L20.6222 22.9701C20.6398 23.1467 20.5012 23.2999 20.3237 23.2999H3.67601C3.49855 23.2999 3.35987 23.1467 3.37749 22.9701L4.97386 6.97017Z" stroke="black" stroke-width="1.4"/>
<path id="Vector_2" d="M8.4082 14.5716L11.2092 16.9111C11.6421 17.2726 12.2882 17.2049 12.6366 16.7614L16.0409 12.4287" stroke="black" stroke-width="1.4"/>
<path id="Vector_3" d="M7.71484 6.85742C7.71484 6.71457 7.71484 5.82887 7.71484 3.4289C7.71484 1.02894 10.3522 0.857422 12.3302 0.857422C14.3083 0.857422 16.2863 1.71459 16.2863 3.42885C16.2863 5.14311 16.2863 6.57168 16.2863 6.85742" stroke="black" stroke-width="1.4"/>
</g>
</svg>
