<svg width="32" height="32" viewBox="0 0 32 32" fill="none" xmlns="http://www.w3.org/2000/svg">
<line x1="2" y1="29.8" x2="30" y2="29.8" stroke="black" stroke-width="2"/>
<path d="M10.6436 26.6311L3 28.0245L4.39338 20.3765" stroke="black" stroke-width="2" stroke-linecap="round" stroke-linejoin="round"/>
<path d="M10.6437 26.6313L28.7176 8.55736C28.807 8.47063 28.8781 8.36684 28.9266 8.25214C28.9751 8.13743 29.0001 8.01415 29.0001 7.8896C29.0001 7.76506 28.9751 7.64178 28.9266 7.52707C28.8781 7.41237 28.807 7.30858 28.7176 7.22185L23.7807 2.30718C23.694 2.21779 23.5902 2.14672 23.4755 2.09819C23.3608 2.04966 23.2375 2.02466 23.1129 2.02466C22.9884 2.02466 22.8651 2.04966 22.7504 2.09819C22.6357 2.14672 22.5319 2.21779 22.4452 2.30718L4.39355 20.3766L10.6437 26.6313Z" stroke="black" stroke-width="2" stroke-linecap="round" stroke-linejoin="round"/>
<path d="M20.7441 4.02563L26.9988 10.2758" stroke="black" stroke-width="2" stroke-linecap="round" stroke-linejoin="round"/>
</svg>
