<svg width="48" height="48" viewBox="0 0 48 48" fill="none" xmlns="http://www.w3.org/2000/svg">
<path fill-rule="evenodd" clip-rule="evenodd" d="M47.7786 24.5402C47.7806 22.8946 47.6346 21.2522 47.3423 19.6328H24.7383V28.914H37.652C37.3837 30.3808 36.8209 31.7779 35.9977 33.0211C35.1745 34.2643 34.1078 35.3278 32.8622 36.1473V42.1668H40.6244C45.1611 37.9896 47.7786 31.839 47.7786 24.5356V24.5402Z" fill="#4285F4"/>
<path fill-rule="evenodd" clip-rule="evenodd" d="M24.7449 47.9901C31.2233 47.9901 36.655 45.8404 40.6243 42.1763L32.8688 36.1682C30.7215 37.608 27.9728 38.4579 24.7449 38.4579C18.4949 38.4579 13.2056 34.2378 11.3181 28.5664H3.30273V34.7825C5.29947 38.7575 8.36229 42.0989 12.1489 44.4333C15.9355 46.7677 20.2966 48.0031 24.7449 48.0014V47.9901Z" fill="#34A853"/>
<path fill-rule="evenodd" clip-rule="evenodd" d="M11.3175 28.5543C10.3139 25.5977 10.3139 22.3925 11.3175 19.4358V13.2197H3.30211C1.62392 16.5638 0.75 20.2536 0.75 23.9951C0.75 27.7366 1.62392 31.4264 3.30211 34.7704L11.3175 28.5543Z" fill="#FBBC05"/>
<path fill-rule="evenodd" clip-rule="evenodd" d="M24.7449 9.54441C28.2667 9.54441 31.4312 10.7537 33.9177 13.1317L40.7984 6.251C36.6437 2.37893 31.212 0.00097832 24.7449 0.00097832C20.2966 -0.000724298 15.9355 1.23465 12.1489 3.56903C8.36229 5.90342 5.29947 9.24483 3.30273 13.2198L11.3181 19.4405C13.2056 13.7691 18.4949 9.54893 24.7449 9.54893V9.54441Z" fill="#EA4335"/>
</svg>
