<svg width="20" height="20" viewBox="0 0 20 20" fill="none" xmlns="http://www.w3.org/2000/svg">
<circle cx="10" cy="10" r="9.5" fill="white" stroke="#AAAAAA"/>
<path d="M11.2812 4.625L11.0547 12.5859H9.3125L9.08594 4.625H11.2812ZM9.02344 15.0391C9.02344 14.7318 9.1276 14.474 9.33594 14.2656C9.54948 14.0521 9.83594 13.9453 10.1953 13.9453C10.5547 13.9453 10.8385 14.0521 11.0469 14.2656C11.2604 14.474 11.3672 14.7318 11.3672 15.0391C11.3672 15.3411 11.2604 15.5964 11.0469 15.8047C10.8385 16.013 10.5547 16.1172 10.1953 16.1172C9.83594 16.1172 9.54948 16.013 9.33594 15.8047C9.1276 15.5964 9.02344 15.3411 9.02344 15.0391Z" fill="#AAAAAA"/>
</svg>
