<svg width="24" height="24" viewBox="0 0 24 24" fill="none" xmlns="http://www.w3.org/2000/svg">
<g id="icon-14-question">
<path id="Ellipse 39 (Stroke)" fill-rule="evenodd" clip-rule="evenodd" d="M11.9993 19.9307C16.3808 19.9307 19.9327 16.3789 19.9327 11.9974C19.9327 7.61594 16.3808 4.06406 11.9993 4.06406C7.61789 4.06406 4.06602 7.61594 4.06602 11.9974C4.06602 16.3789 7.61789 19.9307 11.9993 19.9307ZM11.9993 21.3307C17.154 21.3307 21.3327 17.1521 21.3327 11.9974C21.3327 6.84274 17.154 2.66406 11.9993 2.66406C6.84469 2.66406 2.66602 6.84274 2.66602 11.9974C2.66602 17.1521 6.84469 21.3307 11.9993 21.3307Z" fill="#999999"/>
<path id="Vector 134" d="M16 11L11.7647 15L8 11" stroke="#999999" stroke-width="1.4" stroke-linecap="round"/>
</g>
</svg>
