<svg width="56" height="56" viewBox="0 0 56 56" fill="none" xmlns="http://www.w3.org/2000/svg">
<path d="M49.274 20.5085C48.114 22.3047 46.4474 23.7164 44.485 24.5653C42.5226 25.4142 40.3525 25.6621 38.2493 25.2776C36.146 24.8931 34.204 23.8935 32.6688 22.4052C31.1337 20.9169 30.0744 19.0068 29.6249 16.9164C29.1754 14.8261 29.3559 12.6494 30.1436 10.6616C30.9312 8.67382 32.2907 6.96429 34.05 5.74921C35.8094 4.53412 37.8895 3.86806 40.0274 3.83526C42.1653 3.80246 44.2649 4.4044 46.0607 5.56495C48.4664 7.12216 50.156 9.57034 50.7584 12.3721C51.3609 15.1738 50.827 18.1001 49.274 20.5085Z" fill="#0175E4" stroke="black" stroke-width="2" stroke-miterlimit="10"/>
<path d="M48.8603 21.1011V40.4435C48.8501 40.8718 48.6733 41.2793 48.3675 41.5793C48.0616 41.8794 47.6508 42.0483 47.2224 42.0502H4.63787C4.20943 42.0483 3.79863 41.8794 3.49279 41.5793C3.18694 41.2793 3.01015 40.8718 3 40.4435V12.5998C3 12.1654 3.17256 11.7488 3.47972 11.4416C3.78688 11.1345 4.20348 10.9619 4.63787 10.9619H30.0326" stroke="black" stroke-width="2" stroke-linecap="round" stroke-linejoin="round"/>
<path d="M15.0186 50.2305H36.8412" stroke="black" stroke-width="2" stroke-linecap="round" stroke-linejoin="round"/>
<path d="M3 36.6836H48.8603" stroke="black" stroke-width="2" stroke-linecap="round" stroke-linejoin="round"/>
<path d="M20.6035 42.0811V50.2314" stroke="black" stroke-width="2" stroke-linecap="round" stroke-linejoin="round"/>
<path d="M31.2485 42.2129V50.2306" stroke="black" stroke-width="2" stroke-linecap="round" stroke-linejoin="round"/>
<path d="M34.6499 13.6142L39.0331 17.9975L45.7406 11.29" stroke="white" stroke-width="2" stroke-linecap="round" stroke-linejoin="round"/>
</svg>
