<svg width="132" height="52" viewBox="0 0 132 52" fill="none" xmlns="http://www.w3.org/2000/svg">
<path d="M20.0374 35.3119C20.0374 35.5358 19.9799 35.8137 19.9799 36.0839L20.5855 35.4702L23.2301 33.1543H24.6061L21.1374 36.2035L24.9357 39.6426H23.3796L20.6967 37.0913C20.4416 36.8884 20.202 36.6664 19.9799 36.4274C19.9936 36.5198 20.0128 36.6113 20.0374 36.7014V39.6426H18.9336V33.1504H20.0374V35.3119Z" fill="#6D6C6C"/>
<path d="M29.7805 37.3075C29.7942 37.619 29.7169 37.9276 29.5582 38.1953C29.5038 38.3331 29.4221 38.4583 29.3179 38.5632C29.2138 38.6681 29.0895 38.7504 28.9526 38.8051C28.6921 38.9796 28.3877 39.076 28.0749 39.0831V39.7508C28.5665 39.7557 29.0545 39.6653 29.5122 39.4845C29.9244 39.2979 30.2705 38.9897 30.5049 38.6006C30.7455 38.1978 30.8776 37.7388 30.8882 37.2689C30.8661 36.922 30.7898 36.5807 30.662 36.2577C30.5242 35.9379 30.3173 35.6531 30.0564 35.4239C29.8018 35.1957 29.5011 35.0258 29.1749 34.926C28.8193 34.8123 28.448 34.7563 28.0749 34.76V35.4239C28.3054 35.4192 28.533 35.4765 28.7341 35.5899C28.9554 35.6537 29.1494 35.7894 29.2861 35.9759C29.4436 36.137 29.5731 36.3236 29.6693 36.5278C29.7377 36.7796 29.775 37.0389 29.7805 37.2998V37.3075ZM28.0749 39.0985C27.8412 39.1046 27.6086 39.0636 27.3908 38.9781C27.173 38.8927 26.9743 38.7643 26.8063 38.6006C26.6387 38.4238 26.5085 38.2147 26.4235 37.9858C26.3385 37.7569 26.3005 37.513 26.3118 37.2689C26.3192 36.9359 26.4144 36.6108 26.5878 36.3271C26.6431 36.1849 26.7273 36.0559 26.8348 35.9483C26.9424 35.8406 27.071 35.7567 27.2125 35.7018C27.4744 35.5272 27.7801 35.4309 28.0941 35.4239V34.76C27.6025 34.754 27.1148 34.8485 26.6606 35.038C26.2442 35.2442 25.8995 35.5725 25.6718 35.9797C25.4132 36.3527 25.279 36.7987 25.2885 37.2535C25.2717 37.7104 25.4066 38.16 25.6718 38.5311C25.8926 38.9398 26.2305 39.272 26.6415 39.4845C27.0769 39.6697 27.5447 39.7655 28.0174 39.7662H28.0749V39.0985Z" fill="#6D6C6C"/>
<path d="M32.8082 34.8524L32.8619 35.6862C33.024 35.4136 33.2505 35.1856 33.5211 35.0223C33.7845 34.8566 34.0928 34.7783 34.4027 34.7984C34.5883 34.7866 34.7747 34.8048 34.9546 34.8524V35.7016C34.8131 35.6452 34.6649 35.6076 34.5138 35.5897C34.1973 35.5797 33.8867 35.6777 33.6323 35.8676C33.3788 36.0184 33.1851 36.253 33.0842 36.5315C33.0189 36.8231 32.9817 37.1204 32.973 37.4192V39.6386H31.9267V36.7553C31.9267 36.3115 31.9267 35.7016 31.873 34.8679L32.8082 34.8524Z" fill="#6D6C6C"/>
<path d="M37.8183 35.4236H37.8719C38.1372 35.4133 38.4008 35.4704 38.6385 35.5895C38.8011 35.7421 38.9487 35.9101 39.0792 36.0913C39.1856 36.3192 39.2604 36.5608 39.3015 36.8092H37.8183V37.4731H40.2942C40.3069 37.0029 40.2328 36.5343 40.0757 36.0913C39.9191 35.6919 39.6533 35.3452 39.3092 35.0916C38.8925 34.8448 38.4119 34.7292 37.9294 34.7597H37.8221V35.4236H37.8183ZM37.8183 39.7504V38.9785C37.9402 39.0259 38.0711 39.0457 38.2015 39.0364C38.4804 39.0257 38.7576 38.9882 39.0294 38.9244C39.3305 38.8383 39.6241 38.7273 39.9071 38.5925V39.4224C39.7121 39.5113 39.511 39.5862 39.3054 39.6462C39.0831 39.7003 38.9221 39.7003 38.7534 39.7582H37.8183V39.7504ZM36.3848 36.8092C36.4094 36.5489 36.5049 36.3005 36.6608 36.0913C36.7875 35.8696 36.9807 35.6939 37.2127 35.5895C37.3942 35.476 37.6047 35.4183 37.8183 35.4236V34.7597C37.4989 34.7552 37.1816 34.8115 36.8831 34.9256C36.5726 35.0248 36.2892 35.1953 36.0552 35.4236C35.8422 35.6461 35.6743 35.9083 35.5608 36.1955C35.3975 36.5021 35.3206 36.8478 35.3385 37.1952C35.3534 37.5553 35.4286 37.9102 35.5608 38.2451C35.6746 38.5687 35.8623 38.8609 36.1088 39.0981C36.3624 39.3279 36.6635 39.498 36.9904 39.596C37.2529 39.7059 37.534 39.7636 37.8183 39.7659V38.9939C37.5084 38.9576 37.2183 38.8223 36.9904 38.6079C36.8196 38.4739 36.6779 38.3062 36.5737 38.115C36.4696 37.9239 36.4053 37.7133 36.3848 37.4963H37.8183V36.8092H36.3848Z" fill="#6D6C6C"/>
<path d="M44.6443 37.3655C44.6701 37.647 44.6321 37.9308 44.5331 38.1954C44.4313 38.4431 44.2594 38.6552 44.0387 38.8052C43.8389 38.9256 43.6081 38.9834 43.3756 38.9712V39.693C43.5888 39.6539 43.7936 39.5781 43.9812 39.4691C44.3069 39.3465 44.5786 39.1112 44.7478 38.8052V39.639H45.6868C45.6868 39.4151 45.6293 39.253 45.6293 39.0831V37.0876C45.6421 36.8098 45.6241 36.5315 45.5756 36.2577C45.5772 36.0841 45.5392 35.9124 45.4645 35.756C45.3148 35.4406 45.0617 35.187 44.7478 35.038C44.3342 34.8481 43.8838 34.7532 43.4293 34.7601H43.3718V35.5321C43.706 35.5134 44.0364 35.6116 44.307 35.81C44.4261 35.9339 44.5175 36.0821 44.575 36.2445C44.6325 36.407 44.6548 36.5799 44.6405 36.7518C44.3881 36.7022 44.1308 36.6827 43.8739 36.6939C43.7058 36.6845 43.5372 36.7041 43.3756 36.7518V37.4157C43.6284 37.3693 43.8855 37.3512 44.1422 37.3616L44.6443 37.3655ZM43.3756 38.9712C43.3125 39.0171 43.2346 39.0377 43.1572 39.0291C42.9683 39.0233 42.7817 38.9855 42.6053 38.9172C42.4562 38.8588 42.3243 38.7631 42.222 38.6393C42.1517 38.5227 42.1134 38.3896 42.1108 38.2533C42.1108 37.8132 42.5516 37.4813 43.3756 37.4234V36.7557C43.1367 36.7445 42.8973 36.7626 42.6628 36.8097C42.3479 36.8523 42.0466 36.9657 41.7812 37.1416C41.5556 37.2276 41.3625 37.3829 41.2293 37.5855C41.0846 37.7759 41.0077 38.0097 41.0108 38.2494C41.0093 38.5315 41.107 38.805 41.2868 39.0214C41.3582 39.1444 41.4533 39.2519 41.5665 39.3374C41.6797 39.4229 41.8087 39.4847 41.946 39.5193C42.2634 39.6379 42.6003 39.6942 42.9387 39.6853H43.3756V38.9712ZM43.3756 34.7601V35.5321H43.2683C43.0092 35.5371 42.7517 35.5747 42.5018 35.644C42.2088 35.7055 41.9286 35.8178 41.6739 35.976L41.6202 35.204C42.1723 34.9457 42.7679 34.7951 43.3756 34.7601Z" fill="#6D6C6C"/>
<path d="M54.9927 33.9301H52.6815V39.6388H51.6352V33.9301H49.2129V33.1504H54.9927V33.9301Z" fill="#6D6C6C"/>
<path d="M56.5329 34.8524L56.5866 35.6861C56.7486 35.4121 56.9767 35.1838 57.2496 35.0222C57.5125 34.8555 57.8212 34.7771 58.1312 34.7983C58.3155 34.7897 58.5001 34.8079 58.6792 34.8524V35.7015C58.5378 35.6451 58.3896 35.6075 58.2385 35.5896C57.9066 35.589 57.5817 35.6856 57.3033 35.8675C57.0792 36.037 56.9077 36.2673 56.8089 36.5314C56.7174 36.8178 56.6797 37.1188 56.6977 37.4191V39.6386H55.705V36.7553C55.705 36.3114 55.705 35.7015 55.6514 34.8678L56.5329 34.8524Z" fill="#6D6C6C"/>
<path d="M62.7536 37.3656C62.762 37.6512 62.7057 37.935 62.5888 38.1954C62.5266 38.4489 62.3684 38.6678 62.1481 38.8053C61.9499 38.9262 61.7202 38.9841 61.4888 38.9713V39.693C61.6995 39.6578 61.9029 39.5874 62.0906 39.4846C62.4065 39.3458 62.6736 39.1145 62.8571 38.8207C62.8571 38.9867 62.7996 39.0986 62.7996 39.2646C62.7996 39.4306 62.8571 39.5425 62.8571 39.6506H63.7923C63.7476 39.4689 63.7282 39.2818 63.7348 39.0948C63.7438 38.9091 63.7257 38.7232 63.6812 38.5428V36.2578C63.6275 36.0339 63.6275 35.8718 63.5164 35.756C63.4591 35.5893 63.3647 35.4379 63.2405 35.3135C63.1163 35.189 62.9655 35.0949 62.7996 35.0381C62.4052 34.8478 61.9721 34.7527 61.5348 34.7602H61.4812V35.5321C61.7977 35.5128 62.1103 35.6117 62.3589 35.8101C62.4851 35.9309 62.5846 36.0773 62.6506 36.2396C62.7167 36.402 62.7479 36.5765 62.7421 36.7519C62.4895 36.7043 62.2324 36.6848 61.9756 36.694C61.8087 36.6845 61.6414 36.7041 61.4812 36.7519V37.4157C61.7157 37.3687 61.9551 37.3505 62.1941 37.3617L62.7536 37.3656ZM61.4888 38.9713C61.4218 39.0117 61.3446 39.0318 61.2665 39.0292C61.0777 39.023 60.8911 38.9852 60.7146 38.9172C60.566 38.8579 60.4343 38.7625 60.3313 38.6393C60.2774 38.5911 60.2346 38.5316 60.2062 38.4648C60.1777 38.3981 60.1641 38.3259 60.1665 38.2533C60.1665 37.8133 60.6073 37.4814 61.4888 37.4235V36.7557C61.2486 36.7446 61.008 36.7627 60.7721 36.8097C60.4406 36.8527 60.1219 36.9658 59.8369 37.1417C59.6299 37.258 59.4434 37.408 59.285 37.5856C59.1788 37.7907 59.1224 38.0182 59.1202 38.2495C59.1004 38.5253 59.1792 38.7991 59.3425 39.0214C59.5114 39.2465 59.7399 39.419 60.0017 39.5194C60.3189 39.6334 60.6538 39.6897 60.9906 39.6853H61.4888V38.9713ZM61.4888 34.7602V35.5321H61.3777C61.0986 35.5409 60.8212 35.5784 60.5498 35.6441C60.2799 35.7174 60.0218 35.8292 59.7832 35.976L59.7296 35.2041C60.283 34.9457 60.8799 34.7951 61.4888 34.7602Z" fill="#6D6C6C"/>
<path d="M67.4337 35.536C67.7061 35.5247 67.9748 35.6019 68.2003 35.756C68.4366 35.903 68.6266 36.1144 68.7484 36.3658C68.9048 36.6344 68.9819 36.9424 68.9707 37.2536C68.9771 37.7008 68.8202 38.1348 68.5299 38.4733C68.3919 38.6298 68.2225 38.7551 68.0329 38.8409C67.8433 38.9268 67.6378 38.9712 67.4299 38.9712V39.693C67.7201 39.6984 68.0058 39.6208 68.2539 39.4691C68.5644 39.3498 68.8317 39.1385 69.0205 38.8631V39.6351H70.0132V38.5852C69.9683 38.201 69.9491 37.8141 69.9557 37.4273V32.5986H68.9093V34.9801C68.9052 35.0104 68.9082 35.0413 68.9182 35.0701C68.9282 35.099 68.9449 35.125 68.9668 35.1461V35.59C68.7465 35.3455 68.4875 35.1394 68.2003 34.9801C67.9604 34.8675 67.6984 34.8107 67.4337 34.8142V35.536ZM67.4337 38.9712H67.3762C67.1675 38.9769 66.9602 38.9351 66.7697 38.8489C66.5792 38.7627 66.4106 38.6343 66.2762 38.4733C65.9859 38.1348 65.8291 37.7008 65.8355 37.2536C65.8228 36.9428 65.8986 36.6347 66.0539 36.3658C66.1784 36.1151 66.3695 35.904 66.6059 35.756C66.8505 35.5935 67.1413 35.5163 67.4337 35.536V34.8142C67.3226 34.8142 67.2651 34.7601 67.1578 34.7601C66.835 34.7733 66.5177 34.848 66.2226 34.9801C65.93 35.0794 65.6665 35.2506 65.456 35.4781C65.241 35.6997 65.0716 35.9621 64.9578 36.25C64.851 36.5711 64.7954 36.9072 64.793 37.2459C64.7942 37.704 64.8881 38.1571 65.0689 38.5775C65.2852 38.9073 65.5655 39.1896 65.893 39.4074C66.2841 39.611 66.7218 39.7068 67.1616 39.6853H67.4376L67.4337 38.9712Z" fill="#6D6C6C"/>
<path d="M73.5432 35.4243H73.5891C73.8386 35.4127 74.0865 35.4701 74.3059 35.5903C74.4966 35.7127 74.6493 35.8865 74.7466 36.0921C74.8756 36.3102 74.9505 36.5565 74.9651 36.81H73.5355V37.4739H76.0115C75.9957 37.0059 75.9223 36.5418 75.793 36.0921C75.6377 35.6918 75.3716 35.3449 75.0264 35.0924C74.5899 34.846 74.0925 34.7308 73.593 34.7604H73.5393V35.4243H73.5432ZM73.5432 39.7512V38.9792C73.6463 39.0266 73.7598 39.0465 73.8728 39.0371C74.1696 39.0299 74.465 38.9924 74.7543 38.9252C75.038 38.8387 75.3137 38.7276 75.5783 38.5932V39.4231C75.39 39.5305 75.1854 39.6061 74.9728 39.647C74.808 39.701 74.6432 39.701 74.4247 39.7589H73.5432V39.7512ZM72.1097 36.81C72.1077 36.544 72.2064 36.2873 72.3857 36.0921C72.4912 35.8746 72.6649 35.6982 72.8801 35.5903C73.085 35.4829 73.3122 35.426 73.5432 35.4243V34.7604C73.2238 34.756 72.9065 34.8123 72.608 34.9264C72.2979 35.0265 72.0146 35.1968 71.7801 35.4243C71.55 35.6447 71.3628 35.9066 71.2282 36.1963C71.1137 36.5166 71.0591 36.8556 71.0672 37.196C71.064 37.5524 71.1184 37.907 71.2282 38.2458C71.3671 38.5515 71.5534 38.8329 71.7801 39.0796C72.0536 39.3099 72.3723 39.4795 72.7153 39.5775C72.9744 39.698 73.2579 39.7561 73.5432 39.7473V38.9753C73.1649 38.9269 72.8135 38.753 72.5442 38.4811C72.275 38.2093 72.1032 37.8549 72.056 37.4739H73.5432V36.81H72.1097Z" fill="#6D6C6C"/>
<path d="M79.4334 36.8672H76.624V37.589H79.4334V36.8672Z" fill="#6D6C6C"/>
<path d="M81.5229 33.1504H80.4766V39.6349H81.5229V33.1504Z" fill="#6D6C6C"/>
<path d="M84.1097 35.648C84.3356 35.3567 84.6275 35.1242 84.9609 34.9697C85.2943 34.8153 85.6595 34.7434 86.0261 34.7602C86.4027 34.7682 86.775 34.8427 87.1261 34.9802C87.3671 35.1398 87.5732 35.3473 87.7317 35.5901C87.8635 35.849 87.9393 36.1332 87.954 36.4238C88.0018 36.7534 88.0197 37.0867 88.0076 37.4196V39.639H87.015V36.6978C86.9613 36.5898 86.9613 36.4238 86.9076 36.3118C86.8878 36.1967 86.8432 36.0873 86.777 35.9913C86.7108 35.8953 86.6246 35.815 86.5244 35.756C86.3062 35.5867 86.0319 35.5079 85.7578 35.536C85.4439 35.5436 85.1384 35.6399 84.8763 35.8139C84.6057 35.9717 84.4065 36.2291 84.3205 36.5319C84.2753 36.6776 84.2382 36.8258 84.2094 36.9757V39.639H83.2205V37.3231C83.2205 37.0491 83.163 36.7712 83.163 36.5512V35.8139C83.1703 35.4978 83.1524 35.1815 83.1094 34.8683H84.0982L84.1097 35.648Z" fill="#6D6C6C"/>
<path d="M91.8177 39.6387H90.6065L88.625 34.8525H89.725L90.8365 37.6432C90.8902 37.7513 90.9438 37.9172 91.0013 38.0292C91.045 38.1624 91.1001 38.2916 91.1661 38.4152C91.1661 38.5811 91.2198 38.6892 91.2198 38.8012C91.2734 38.6892 91.2734 38.5811 91.3309 38.4692C91.3884 38.3573 91.4421 38.1913 91.4957 38.0253L92.7529 34.8525H93.7456L91.8177 39.6387Z" fill="#6D6C6C"/>
<path d="M96.5509 35.4235H96.6084C96.8566 35.4124 97.1031 35.4698 97.3213 35.5895C97.5141 35.7093 97.6674 35.8839 97.762 36.0912C97.8938 36.3084 97.9701 36.5551 97.9843 36.8092H96.5509V37.4731H99.0307C99.0242 36.9992 98.9306 36.5307 98.7547 36.0912C98.6193 35.6939 98.3698 35.346 98.038 35.0915C97.6031 34.8447 97.1067 34.7294 96.6084 34.7596H96.5509V35.4235ZM96.5509 39.7504V38.9784C96.6542 39.0251 96.7675 39.045 96.8805 39.0363C97.1774 39.0293 97.4727 38.9918 97.762 38.9244C98.0467 38.8372 98.3237 38.7262 98.5899 38.5924V39.4223C98.3972 39.5198 98.194 39.595 97.9843 39.6461C97.8157 39.7002 97.6011 39.7002 97.4324 39.7581H96.5509V39.7504ZM95.0523 36.8092C95.1001 36.5555 95.1922 36.3124 95.3244 36.0912C95.4647 35.8809 95.6542 35.7086 95.8763 35.5895C96.0773 35.4755 96.305 35.4182 96.5355 35.4235V34.7596C96.1991 34.7599 95.865 34.816 95.5467 34.9256C95.261 35.0389 95.0005 35.2081 94.7801 35.4235C94.5326 35.628 94.3424 35.8941 94.2282 36.1954C94.1105 36.515 94.0545 36.8544 94.0634 37.1951C94.0596 37.5519 94.1153 37.9068 94.2282 38.245C94.3643 38.5522 94.5509 38.8341 94.7801 39.0787C95.04 39.2973 95.3375 39.4661 95.6578 39.5767C95.9376 39.6917 96.2372 39.7495 96.5394 39.7465V38.9745C96.2136 38.9383 95.9063 38.8038 95.6578 38.5885C95.3287 38.3027 95.1136 37.9064 95.0523 37.4731H96.5355V36.8092H95.0523Z" fill="#6D6C6C"/>
<path d="M102.718 35.7016C102.366 35.5688 101.994 35.4932 101.618 35.4777C101.385 35.4667 101.154 35.5259 100.955 35.6476C100.883 35.6959 100.825 35.7623 100.787 35.8402C100.749 35.9181 100.731 36.0047 100.737 36.0915C100.729 36.1706 100.746 36.2502 100.785 36.3193C100.824 36.3884 100.884 36.4436 100.955 36.4774C101.23 36.6603 101.526 36.8093 101.837 36.9213C102.165 37.0755 102.478 37.2603 102.772 37.4733C102.875 37.5737 102.957 37.6936 103.013 37.8261C103.07 37.9586 103.1 38.101 103.101 38.2452C103.12 38.5204 103.043 38.7935 102.883 39.0172C102.691 39.2432 102.444 39.4149 102.166 39.5151C101.843 39.6794 101.482 39.7566 101.12 39.739C100.63 39.7328 100.146 39.6373 99.6903 39.4572V38.6389C99.9195 38.7523 100.158 38.8453 100.403 38.9169C100.603 38.9616 100.808 38.9797 101.013 38.9709C101.197 38.9795 101.382 38.9613 101.561 38.9169C101.688 38.8715 101.801 38.7944 101.89 38.693C101.939 38.6521 101.98 38.6016 102.009 38.5445C102.038 38.4875 102.055 38.425 102.059 38.361C102.052 38.2697 102.022 38.1816 101.974 38.1042C101.925 38.0269 101.858 37.9627 101.779 37.9172C101.618 37.8091 101.285 37.6971 100.901 37.4733C100.563 37.3401 100.247 37.1538 99.9663 36.9213C99.8635 36.8313 99.7806 36.7206 99.7232 36.5962C99.6657 36.4718 99.6349 36.3367 99.6328 36.1995C99.6404 35.9273 99.7169 35.6616 99.8551 35.4276C100.056 35.2245 100.301 35.0723 100.572 34.9837C100.884 34.8457 101.22 34.7709 101.561 34.7637C101.991 34.7872 102.416 34.861 102.829 34.9837L102.718 35.7016Z" fill="#6D6C6C"/>
<path d="M105.523 34.8527H106.957V35.5745H105.523V38.0139C105.523 38.1799 105.581 38.2918 105.581 38.3999C105.618 38.5592 105.716 38.6975 105.853 38.7859C106.015 38.8981 106.208 38.9561 106.405 38.9519C106.634 38.9505 106.861 38.8936 107.064 38.7859V39.5578C106.756 39.6236 106.443 39.6611 106.129 39.6698C105.765 39.709 105.399 39.6306 105.082 39.4459C104.95 39.3736 104.836 39.271 104.75 39.1463C104.664 39.0216 104.609 38.8783 104.588 38.728C104.515 38.3815 104.478 38.0284 104.477 37.6742V35.5899H103.266V34.8527H104.477V33.8183L105.523 33.4863V34.8527Z" fill="#6D6C6C"/>
<path d="M108.938 35.6479C109.033 35.4741 109.164 35.3227 109.322 35.2041C109.505 35.0607 109.709 34.9473 109.927 34.8682C110.161 34.8019 110.401 34.7656 110.644 34.7602C111.012 34.7497 111.375 34.8461 111.69 35.0381C111.958 35.1974 112.154 35.4545 112.238 35.756C112.423 35.4497 112.688 35.2011 113.005 35.0381C113.322 34.8538 113.682 34.7578 114.047 34.7602C114.457 34.7351 114.863 34.8522 115.197 35.0921C115.476 35.2911 115.673 35.5865 115.749 35.922C115.846 36.3208 115.882 36.732 115.856 37.1417V39.639H114.868V37.3231C114.88 36.9505 114.842 36.578 114.756 36.2153C114.712 36.0076 114.594 35.8235 114.423 35.6982C114.253 35.5729 114.043 35.5152 113.833 35.536C113.645 35.5508 113.46 35.5884 113.281 35.6479C113.121 35.7607 112.973 35.89 112.84 36.0339C112.718 36.1806 112.626 36.3497 112.568 36.5318C112.521 36.6548 112.502 36.7865 112.51 36.9178C112.459 37.1546 112.441 37.3977 112.457 37.6396V39.6351H111.464V37.1996C111.485 36.8626 111.448 36.5246 111.357 36.1999C111.313 35.9972 111.193 35.8191 111.023 35.702C110.863 35.5894 110.671 35.5312 110.475 35.536C110.204 35.5316 109.937 35.6081 109.709 35.756C109.483 35.895 109.314 36.1116 109.233 36.3659C109.114 36.6268 109.056 36.9123 109.065 37.1996V39.639H108.022V36.9757C108.022 36.0918 108.022 35.4318 107.965 34.8682H108.9L108.938 35.6479Z" fill="#6D6C6C"/>
<path d="M119.34 35.4237H119.394C119.643 35.4182 119.889 35.4752 120.111 35.5896C120.289 35.7254 120.439 35.8961 120.551 36.0914C120.683 36.3086 120.759 36.5552 120.774 36.8093H119.34V37.4732H121.763C121.775 37.003 121.701 36.5344 121.544 36.0914C121.409 35.6941 121.159 35.3462 120.827 35.0917C120.389 34.8514 119.893 34.7366 119.394 34.7598H119.34V35.4237ZM119.34 39.7505V38.9786C119.445 39.0258 119.559 39.0457 119.674 39.0365C119.969 39.0256 120.263 38.9881 120.551 38.9245C120.836 38.8374 121.113 38.7264 121.379 38.5926V39.4224C121.187 39.52 120.983 39.5951 120.774 39.6463C120.605 39.7003 120.39 39.7003 120.222 39.7582H119.34V39.7505ZM117.853 36.8093C117.902 36.5554 117.995 36.3123 118.129 36.0914C118.269 35.8811 118.459 35.7087 118.681 35.5896C118.879 35.4687 119.109 35.4108 119.34 35.4237V34.7598C119.003 34.7558 118.669 34.812 118.351 34.9257C118.066 35.039 117.805 35.2083 117.585 35.4237C117.337 35.6282 117.147 35.8943 117.033 36.1956C116.915 36.5152 116.859 36.8545 116.868 37.1953C116.864 37.5521 116.92 37.907 117.033 38.2452C117.149 38.5629 117.338 38.8486 117.585 39.0789C117.844 39.2983 118.142 39.4672 118.463 39.5768C118.742 39.6919 119.042 39.7496 119.344 39.7467V38.9747C119.018 38.9385 118.711 38.804 118.463 38.5887C118.292 38.4547 118.15 38.287 118.046 38.0958C117.942 37.9047 117.877 37.6941 117.857 37.4771H119.344V36.8093H117.853Z" fill="#6D6C6C"/>
<path d="M123.798 35.6473C124.013 35.3561 124.296 35.1227 124.622 34.9679C124.949 34.8131 125.308 34.7415 125.668 34.7596C126.045 34.7619 126.418 34.8366 126.768 34.9796C127.021 35.1239 127.23 35.3347 127.373 35.5894C127.521 35.8455 127.615 36.1292 127.649 36.4232C127.697 36.7528 127.715 37.0861 127.703 37.419V39.6384H126.714V37.473C126.73 37.2143 126.711 36.9545 126.657 36.7011C126.665 36.5701 126.647 36.4387 126.603 36.3151C126.541 36.0915 126.406 35.8956 126.22 35.7593C125.995 35.6044 125.726 35.5272 125.453 35.5393C125.139 35.5392 124.833 35.6362 124.576 35.8172C124.307 35.9763 124.109 36.2334 124.024 36.5351C123.955 36.6733 123.917 36.8247 123.913 36.979V39.6423H122.866V35.8133C122.82 35.5004 122.802 35.1838 122.813 34.8676H123.748L123.798 35.6473Z" fill="#6D6C6C"/>
<path d="M130.46 34.8527H131.893V35.5745H130.46V38.0139C130.46 38.1799 130.517 38.2918 130.517 38.3999C130.555 38.5601 130.654 38.6989 130.793 38.7859C130.954 38.8985 131.146 38.9566 131.341 38.9519C131.571 38.9505 131.797 38.8936 132 38.7859V39.5578C131.693 39.6236 131.38 39.6611 131.065 39.6698C130.702 39.709 130.335 39.6306 130.019 39.4459C129.887 39.3729 129.774 39.2701 129.688 39.1455C129.602 39.0209 129.546 38.878 129.524 38.728C129.452 38.3815 129.415 38.0284 129.413 37.6742V35.5899H128.202V34.8527H129.413V33.8183L130.46 33.4863V34.8527Z" fill="#6D6C6C"/>
<path d="M21.3025 43.7302C21.6236 43.745 21.932 43.8612 22.184 44.0622C22.295 44.156 22.3827 44.2746 22.4399 44.4087C22.4972 44.5428 22.5224 44.6885 22.5137 44.8341C22.528 44.9673 22.5105 45.102 22.4624 45.2269C22.4144 45.3518 22.3374 45.4633 22.2377 45.5521C22.0569 45.7287 21.8269 45.8459 21.5785 45.8879C21.4918 45.9269 21.3974 45.9454 21.3025 45.9419V46.7718C21.4151 46.7806 21.5281 46.7621 21.6321 46.7177C21.8753 46.7178 22.1171 46.6801 22.3489 46.6058C22.5473 46.5477 22.7341 46.4549 22.9008 46.3317C23.0416 46.2169 23.17 46.0875 23.284 45.9458C23.4298 45.7929 23.526 45.5991 23.56 45.3899C23.6265 45.2134 23.6628 45.0268 23.6673 44.838C23.6844 44.433 23.5473 44.0368 23.284 43.7302C23.0473 43.4167 22.7209 43.1837 22.3489 43.0625C22.184 43.0084 22.0729 43.0084 21.9081 42.9544C21.7433 42.9003 21.5248 42.8965 21.3025 42.8965V43.7302ZM20.0377 43.6723C20.3863 43.6541 20.7358 43.6735 21.0802 43.7302H21.2987V42.8965H18.999V49.381H20.0454V46.7756H21.3102V45.9458C21.0743 45.9928 20.8336 46.0109 20.5934 45.9998H20.0377V43.6723Z" fill="#6D6C6C"/>
<path d="M25.4303 44.6253L25.4878 45.459C25.6494 45.185 25.8759 44.9556 26.147 44.7912C26.4312 44.6286 26.7559 44.5522 27.0822 44.5712C27.2501 44.5626 27.4183 44.5808 27.5805 44.6253V45.459C27.4393 45.4017 27.291 45.364 27.1397 45.347C26.8231 45.3365 26.5123 45.4345 26.2582 45.625C26.1303 45.7043 26.0201 45.8094 25.9344 45.9335C25.8486 46.0577 25.7892 46.1984 25.7599 46.3467C25.6535 46.6104 25.5976 46.892 25.5951 47.1766V49.3922H24.5488V46.5127C24.5488 46.0688 24.5488 45.459 24.4951 44.6253H25.4303Z" fill="#6D6C6C"/>
<path d="M32.5325 47.0654C32.5178 47.3733 32.4423 47.6751 32.3102 47.9532C32.1495 48.2268 31.9228 48.4552 31.651 48.6171C31.3874 48.782 31.0793 48.8603 30.7695 48.8409V49.5627C31.2681 49.5776 31.762 49.4619 32.2029 49.2269C32.612 49.0465 32.9569 48.7449 33.1918 48.3623C33.4499 47.9877 33.584 47.5406 33.575 47.0847C33.586 46.7206 33.5097 46.3592 33.3527 46.031C33.22 45.7412 33.034 45.4792 32.8047 45.259C32.5483 44.9931 32.2251 44.8023 31.8695 44.707C31.5125 44.5933 31.14 44.5373 30.7656 44.5411V45.259C31.01 45.2366 31.2562 45.2751 31.4824 45.3709C31.6875 45.4659 31.8743 45.5965 32.0343 45.7569C32.1938 45.9058 32.3081 46.0972 32.3639 46.3089C32.4762 46.5503 32.5325 46.8143 32.5287 47.0808L32.5325 47.0654ZM30.7695 48.8409C30.5457 48.8495 30.3227 48.8114 30.1142 48.729C29.9058 48.6466 29.7166 48.5218 29.5583 48.3623C29.3907 48.1856 29.2605 47.9764 29.1755 47.7475C29.0906 47.5186 29.0526 47.2748 29.0639 47.0307C29.0588 46.703 29.1352 46.3792 29.2862 46.0889C29.4268 45.8258 29.6379 45.6078 29.8956 45.4597C30.1607 45.3017 30.4654 45.2239 30.7733 45.2358V44.5025C30.2769 44.4933 29.7859 44.6073 29.3437 44.8344C28.9314 45.0255 28.5885 45.3412 28.3625 45.7376C28.1057 46.1264 27.9688 46.583 27.9688 47.05C27.9688 47.5169 28.1057 47.9735 28.3625 48.3623C28.5943 48.7521 28.9395 49.0607 29.3513 49.2462C29.7933 49.4747 30.2843 49.59 30.781 49.582L30.7695 48.8409Z" fill="#6D6C6C"/>
<path d="M35.5601 45.4019C35.6571 45.2307 35.7875 45.081 35.9433 44.9619C36.134 44.8463 36.3372 44.753 36.5489 44.684C36.7929 44.5892 37.0548 44.551 37.3155 44.572C37.6601 44.5529 38.0034 44.6289 38.3081 44.792C38.5911 44.9497 38.8066 45.2066 38.9137 45.5138C39.0645 45.1983 39.3172 44.9438 39.6304 44.792C39.9735 44.6284 40.3514 44.5528 40.7304 44.572C41.14 44.5479 41.5456 44.6649 41.8803 44.904C42.1451 45.1084 42.3232 45.4063 42.3785 45.7377C42.4952 46.1122 42.5508 46.5032 42.5433 46.8956V49.3891H41.497V47.0732C41.5178 46.7031 41.4998 46.3317 41.4433 45.9654C41.3819 45.7665 41.2569 45.5935 41.0877 45.4735C40.9186 45.3534 40.7149 45.293 40.5081 45.3015C40.3113 45.2959 40.1178 45.3541 39.9562 45.4675C39.7603 45.5242 39.5864 45.6401 39.458 45.7994C39.347 45.9533 39.2556 46.1206 39.1858 46.2974C39.1382 46.4401 39.1187 46.5909 39.1284 46.7412C39.0729 46.9578 39.0548 47.1824 39.0747 47.4051V49.4007H38.0935V46.9651C38.0935 46.4633 38.036 46.1314 38.036 45.9654C37.9544 45.7681 37.8221 45.5963 37.6527 45.4675C37.4946 45.3471 37.2986 45.2882 37.1008 45.3015C36.8477 45.315 36.6017 45.3905 36.3841 45.5215C36.161 45.6839 35.9742 45.8916 35.836 46.1314C35.7174 46.3926 35.661 46.6781 35.6712 46.9651V49.4007H34.6785V46.7412C34.6777 46.0373 34.6406 45.3339 34.5674 44.6338H35.5064L35.5601 45.4019Z" fill="#6D6C6C"/>
<path d="M48.0017 47.0654C48.013 47.3766 47.9359 47.6846 47.7794 47.9532C47.6389 48.2242 47.4301 48.4532 47.1738 48.6171C46.9087 48.7752 46.604 48.8529 46.2961 48.841V49.5628C46.7921 49.5644 47.2817 49.4495 47.7258 49.2269C48.1349 49.0465 48.4798 48.7449 48.7146 48.3623C48.9344 47.973 49.0493 47.5326 49.0481 47.0847C49.0497 46.7269 48.994 46.3711 48.8833 46.031C48.7266 45.7408 48.5218 45.4797 48.2777 45.259C48.0417 44.9946 47.736 44.8032 47.3961 44.7071C47.0405 44.5934 46.6692 44.5373 46.2961 44.5411V45.259C46.5217 45.2417 46.748 45.2801 46.9554 45.371C47.3682 45.5632 47.6997 45.897 47.8906 46.3128C47.9573 46.5649 47.9946 46.8239 48.0017 47.0847V47.0654ZM46.2961 48.841C46.0624 48.8477 45.8296 48.8071 45.6117 48.7215C45.3938 48.636 45.1951 48.5073 45.0275 48.343C44.8599 48.1663 44.7297 47.9572 44.6447 47.7283C44.5598 47.4994 44.5218 47.2555 44.5331 47.0114C44.5545 46.6876 44.6283 46.3695 44.7515 46.0696C44.9169 45.8123 45.1452 45.6023 45.4146 45.4597C45.6782 45.2948 45.9863 45.2165 46.2961 45.2359V44.5025C45.7813 44.493 45.2716 44.6067 44.809 44.8345C44.4159 45.0513 44.0766 45.3548 43.8164 45.7222C43.5923 46.1279 43.4786 46.5859 43.4867 47.05C43.4859 47.4973 43.5994 47.9373 43.8164 48.3276C44.0778 48.693 44.417 48.9949 44.809 49.2115C45.2531 49.434 45.7426 49.549 46.2387 49.5473H46.2961V48.841Z" fill="#6D6C6C"/>
<path d="M51.5241 44.6258H53.0112V45.3476H51.5241V47.2312C51.5241 47.4551 51.5778 47.6751 51.5778 47.787C51.5638 47.9185 51.5836 48.0514 51.6352 48.173C51.6352 48.3428 51.7426 48.4509 51.9074 48.559C52.0655 48.6794 52.2615 48.7383 52.4593 48.725C52.6891 48.7237 52.9152 48.6667 53.1185 48.559V49.331C52.8151 49.4202 52.4991 49.458 52.1833 49.4429C51.8031 49.4723 51.4223 49.3948 51.0833 49.219C50.859 49.0611 50.7017 48.8242 50.6426 48.5551C50.573 48.2081 50.5358 47.8554 50.5314 47.5014V45.3399H49.2666V44.6181H50.5314V43.5644L51.5241 43.2324V44.6258Z" fill="#6D6C6C"/>
<path d="M54.9926 43.5173H53.8926V42.5215H54.9926V43.5173ZM54.9926 49.392H53.9999V44.6251H54.9926V49.392Z" fill="#6D6C6C"/>
<path d="M60.4957 47.0654C60.481 47.3733 60.4055 47.6751 60.2734 47.9532C60.1127 48.2268 59.886 48.4552 59.6142 48.6171C59.3506 48.782 59.0425 48.8603 58.7327 48.8409V49.5627C59.2313 49.5776 59.7252 49.4619 60.1661 49.2269C60.5779 49.0414 60.9232 48.7328 61.155 48.343C61.4131 47.9684 61.5473 47.5213 61.5383 47.0654C61.5504 46.7016 61.4755 46.3402 61.3198 46.0117C61.1843 45.7225 60.9972 45.4608 60.7679 45.2397C60.5115 44.9738 60.1883 44.783 59.8327 44.6877C59.4758 44.574 59.1032 44.518 58.7288 44.5218V45.2397C58.9732 45.2173 59.2194 45.2558 59.4456 45.3516C59.6507 45.4466 59.8375 45.5772 59.9975 45.7376C60.157 45.8865 60.2713 46.0779 60.3271 46.2896C60.4394 46.531 60.4957 46.795 60.4919 47.0615L60.4957 47.0654ZM58.7327 48.8409C58.5076 48.847 58.2836 48.8058 58.0752 48.7201C57.8667 48.6344 57.6781 48.506 57.5215 48.343C57.354 48.1663 57.2237 47.9571 57.1388 47.7282C57.0538 47.4993 57.0158 47.2555 57.0271 47.0114C57.0205 46.6835 57.0971 46.3594 57.2494 46.0696C57.3918 45.8141 57.6013 45.6031 57.855 45.4597C58.1203 45.3023 58.4249 45.2246 58.7327 45.2358V44.5025C58.2363 44.4933 57.7453 44.6073 57.3031 44.8344C56.8945 45.006 56.5621 45.3216 56.3679 45.7222C56.1151 46.109 55.9805 46.5619 55.9805 47.0249C55.9805 47.4879 56.1151 47.9408 56.3679 48.3276C56.5634 48.7263 56.8956 49.0402 57.3031 49.2115C57.745 49.44 58.236 49.5553 58.7327 49.5473V48.8409Z" fill="#6D6C6C"/>
<path d="M63.5239 45.4011C63.748 45.1234 64.0345 44.9033 64.3597 44.7591C64.6849 44.6148 65.0395 44.5504 65.3942 44.5712C65.7896 44.5488 66.1844 44.6244 66.5441 44.7913C66.7939 44.9154 67.0038 45.1081 67.1496 45.3471C67.2715 45.6082 67.3456 45.8893 67.3681 46.1769C67.4193 46.5075 67.4385 46.8423 67.4256 47.1766V49.3922H66.4329V46.5127C66.3793 46.3468 66.3793 46.2348 66.3218 46.0689C66.3022 45.9536 66.2577 45.8441 66.1914 45.7481C66.1252 45.652 66.0389 45.5718 65.9385 45.513C65.7057 45.3752 65.4419 45.2995 65.1719 45.293C64.8584 45.2993 64.5529 45.3942 64.2904 45.5671C64.0224 45.7287 63.8251 45.9866 63.7385 46.2889C63.6848 46.4548 63.6848 46.6208 63.6312 46.7868V49.3922H62.6385V47.0763C62.6385 46.7984 62.5848 46.5784 62.5848 46.3043V45.5825C62.591 45.2675 62.5718 44.9526 62.5273 44.6407H63.52L63.5239 45.4011Z" fill="#6D6C6C"/>
<path d="M76.0728 46.9572H74.6432V47.787H76.4599L77.2264 49.3927H78.4376L75.1912 42.9082H74.6393V43.6802C74.8 44.1779 75.0026 44.6608 75.2449 45.1237L76.0728 46.9572ZM74.6432 46.9572H73.1561L73.9839 45.1816C74.3135 44.4599 74.532 43.9619 74.6432 43.684V42.9121H74.0951L70.9561 49.3966H72.0561L72.8801 47.7909H74.6432V46.9572Z" fill="#6D6C6C"/>
<path d="M81.358 45.2931C81.6268 45.3067 81.889 45.3819 82.1245 45.5131C82.35 45.6739 82.5383 45.882 82.6765 46.1229C82.8318 46.3919 82.9076 46.6999 82.8949 47.0107C82.9151 47.304 82.8383 47.5958 82.6765 47.8406C82.6326 47.9758 82.5608 48.1001 82.4656 48.2053C82.3705 48.3104 82.2542 48.394 82.1245 48.4504C81.8998 48.6067 81.6308 48.6852 81.358 48.6743V49.3922C81.6669 49.4057 81.9743 49.3423 82.253 49.2076C82.5318 49.073 82.7733 48.8712 82.9562 48.6203V49.0641C82.9562 49.288 82.8987 49.4501 82.8987 49.62C82.8987 49.7898 82.8451 49.8979 82.7339 50.0059C82.6117 50.2431 82.4205 50.437 82.1859 50.5618C81.9264 50.6808 81.643 50.7376 81.358 50.7277V51.4997C81.7868 51.4666 82.2115 51.393 82.6266 51.2797C82.9405 51.1615 83.2227 50.9712 83.4507 50.7239C83.6177 50.4528 83.7297 50.151 83.7803 49.8361C83.88 49.4194 83.9175 48.9901 83.8914 48.5624V44.6253H82.9562V45.4591C82.802 45.1591 82.5485 44.9228 82.2395 44.7913C81.9625 44.6614 81.6632 44.5867 81.358 44.5713V45.2931ZM81.358 45.2931V44.5713H81.1395C80.7019 44.5723 80.2694 44.667 79.8709 44.8492C79.5152 45.0567 79.2284 45.3656 79.0468 45.737C78.8228 46.1426 78.7091 46.6006 78.7172 47.0647C78.7089 47.4947 78.8233 47.918 79.0468 48.2845C79.2015 48.661 79.4977 48.9607 79.8709 49.1182C80.2559 49.343 80.6945 49.4578 81.1395 49.4501C81.1932 49.4501 81.3043 49.3922 81.358 49.3922V48.6743H81.3043C81.0315 48.6852 80.7625 48.6067 80.5378 48.4504C80.3026 48.3269 80.1101 48.1345 79.9859 47.8985C79.878 47.6339 79.822 47.3508 79.821 47.0647C79.817 46.7432 79.8729 46.4237 79.9859 46.1229C80.1398 45.894 80.3257 45.6886 80.5378 45.5131C80.7938 45.3815 81.0747 45.3065 81.3618 45.2931H81.358ZM81.358 50.7239V51.4958H81.2545C80.9031 51.4903 80.5529 51.4528 80.2082 51.3839C79.855 51.3334 79.5055 51.2599 79.1618 51.1639L79.273 50.2761C79.4804 50.3834 79.7026 50.4588 79.9322 50.5C80.1364 50.6054 80.362 50.6622 80.5914 50.666C80.7901 50.7105 80.9937 50.7287 81.197 50.72L81.358 50.7239Z" fill="#6D6C6C"/>
<path d="M87.3603 45.2356H87.414C87.6626 45.2329 87.9082 45.2897 88.1307 45.4015C88.3032 45.5212 88.4526 45.6717 88.5715 45.8454C88.6777 46.0744 88.7513 46.3174 88.7899 46.5672H87.3603V47.2311H89.7826C89.7987 46.7779 89.7231 46.3261 89.5603 45.9033C89.4548 45.4922 89.2005 45.1356 88.8474 44.9036C88.4244 44.6206 87.9208 44.485 87.414 44.5176H87.3603V45.2356ZM87.3603 49.5045V48.7827H87.6899C87.9861 48.77 88.2809 48.7338 88.5715 48.6747C88.8596 48.6014 89.1367 48.4897 89.3955 48.3427V49.1726C89.2001 49.2629 88.9976 49.3365 88.7899 49.3926C88.6127 49.4579 88.4266 49.4957 88.238 49.5045C88.0195 49.5045 87.8547 49.5624 87.6363 49.5624C87.5251 49.5624 87.414 49.5624 87.3603 49.52V49.5045ZM85.8732 46.5672C85.9306 46.3146 86.0236 46.0716 86.1492 45.8454C86.2765 45.639 86.4698 45.4825 86.6972 45.4015C86.8979 45.2833 87.1281 45.2256 87.3603 45.2356V44.5022C87.0223 44.4979 86.6862 44.5541 86.3676 44.6682C86.0634 44.7786 85.7835 44.9477 85.5436 45.1661C85.3272 45.3859 85.1588 45.6489 85.0492 45.938C84.939 46.2597 84.882 46.5975 84.8805 46.9377C84.8731 47.2951 84.9302 47.6508 85.0492 47.9876C85.1651 48.3046 85.3528 48.59 85.5972 48.8213C85.8594 49.0386 86.1579 49.2072 86.4788 49.3193C86.7586 49.4334 87.0584 49.4898 87.3603 49.4852V48.7634C87.0377 48.7157 86.7335 48.5825 86.4788 48.3775C86.3073 48.2339 86.1655 48.0578 86.0616 47.8591C85.9577 47.6605 85.8937 47.4431 85.8732 47.2195H87.3603V46.5556L85.8732 46.5672Z" fill="#6D6C6C"/>
<path d="M91.817 45.4014C92.0373 45.1192 92.3231 44.8959 92.6492 44.7512C92.9754 44.6065 93.3319 44.5448 93.6874 44.5715C94.068 44.5472 94.4484 44.6231 94.7912 44.7915C95.0512 44.9 95.2654 45.0966 95.3968 45.3473C95.5109 45.6156 95.602 45.8932 95.6689 46.1772C95.6689 46.4551 95.7264 46.7871 95.7264 47.1769V49.3924H94.7337V47.2888C94.7337 46.9029 94.68 46.6211 94.68 46.5169C94.6897 46.3666 94.6702 46.2158 94.6226 46.073C94.5922 45.9548 94.5376 45.8443 94.4624 45.7486C94.3872 45.6529 94.2929 45.5741 94.1856 45.5172C93.9717 45.3781 93.7235 45.3019 93.4689 45.2972C93.1541 45.2952 92.8463 45.3909 92.5874 45.5712C92.3194 45.732 92.1232 45.9905 92.0393 46.293C91.9751 46.4516 91.9375 46.6199 91.9281 46.7909V49.3963H90.8818V46.3084C90.8886 46.0666 90.8706 45.8248 90.8281 45.5867V44.6449H91.7633L91.817 45.4014Z" fill="#6D6C6C"/>
<path d="M100.572 45.568C100.267 45.4049 99.9237 45.3288 99.5791 45.3479C99.2533 45.3353 98.9303 45.4113 98.6439 45.568C98.3689 45.6744 98.137 45.8699 97.9846 46.1238C97.8101 46.387 97.7143 46.6951 97.7087 47.0115C97.7104 47.2429 97.7669 47.4705 97.8735 47.6754C97.9477 47.8928 98.0804 48.0852 98.2567 48.2312C98.407 48.403 98.5964 48.5355 98.8087 48.6172C99.0586 48.6863 99.3161 48.7239 99.5752 48.7292C99.74 48.7292 99.9585 48.6751 100.127 48.6751C100.315 48.5933 100.498 48.5005 100.675 48.3972L100.786 49.2271C100.574 49.3094 100.353 49.3652 100.127 49.393C99.8917 49.4433 99.6508 49.4627 99.4104 49.4509C98.9185 49.4766 98.4278 49.3812 97.9808 49.173C97.5684 48.985 97.2222 48.6755 96.9881 48.2853C96.7582 47.9017 96.6437 47.4593 96.6585 47.0115C96.6502 46.5816 96.7646 46.1582 96.9881 45.7918C97.2584 45.4007 97.6217 45.0841 98.0449 44.871C98.4681 44.658 98.9376 44.5552 99.4104 44.5721C99.825 44.5592 100.238 44.6341 100.622 44.7921L100.572 45.568Z" fill="#6D6C6C"/>
<path d="M104.04 49.3387C103.818 49.8367 103.657 50.2265 103.542 50.4967C103.351 50.7452 103.13 50.9683 102.883 51.1606C102.567 51.3501 102.204 51.4464 101.836 51.4385C101.614 51.4186 101.394 51.3812 101.177 51.3266L101.231 50.6627C101.393 50.7018 101.559 50.72 101.725 50.7167C102.331 50.7167 102.718 50.3307 102.936 49.6089L100.844 44.6182H101.951L103.163 47.6674C103.296 47.9726 103.406 48.2874 103.492 48.6092C103.478 48.5144 103.497 48.4176 103.546 48.3352C103.584 48.1814 103.639 48.0325 103.711 47.8913L104.979 44.6182H105.968L104.04 49.3387Z" fill="#6D6C6C"/>
<path d="M10.3483 13.6237L18.0138 6.20898H12.8242L5.33887 13.6237L17.6688 25.8362H22.9542L10.3483 13.6237Z" fill="#666666"/>
<path d="M30.3863 5.98828V8.4277C33.9086 8.4277 36.0549 10.3576 36.0549 13.6385C36.0549 16.9193 33.9086 18.9033 30.3863 18.9033V21.2887C36.7717 21.2887 40.8995 18.2934 40.8995 13.6385C40.8995 8.98351 36.7717 5.98828 30.3863 5.98828ZM30.3863 5.98828C24.0009 5.98828 19.873 8.99123 19.873 13.623C19.873 18.2548 24.0009 21.2887 30.3863 21.2887V18.9033H30.3288C26.8065 18.9033 24.6602 16.9078 24.6602 13.6385C24.6602 10.3692 26.8065 8.4277 30.3288 8.4277H30.3863V5.98828Z" fill="#666666"/>
<path d="M52.2942 21.0112H56.8092V18.8497H55.0461C52.1294 18.8497 51.083 17.85 51.083 15.2446V8.4281H56.8092V6.2087H51.083V0.5H46.5144V6.2087H42.6816V8.4281H46.5144V16.5762C46.5144 19.4595 48.5496 21.0112 52.2942 21.0112Z" fill="#666666"/>
<path d="M86.2556 21.0114H95.2855V11.6436C95.2855 8.03855 92.6026 6.20898 87.2368 6.20898H86.2441V8.52489C88.5437 8.63682 90.5406 9.1386 90.5406 11.5742V12.4079H86.2556V14.5694H90.6057V18.792H86.2556V21.0114ZM83.1204 21.0114H86.2556V18.792H85.3779C83.7796 18.792 81.9629 18.792 81.9629 16.8621C81.9629 14.7547 83.8793 14.5887 85.7611 14.5887H86.2556V12.4272H84.9908C79.4333 12.4272 77.1758 13.7588 77.1758 16.9741C77.1758 19.5795 79.3221 21.0192 83.1204 21.0192V21.0114ZM86.2556 6.20898H78.5709V8.52489H86.2747L86.2556 6.20898Z" fill="#666666"/>
<path d="M65.9464 6.20898C61.9259 6.20898 60.6074 7.09675 60.6074 9.75617V21.0115H65.1761V10.5899C65.1761 8.53646 68.2039 8.53646 69.5799 8.53646H74.9189L77.3412 6.22056L65.9464 6.20898Z" fill="#666666"/>
<path d="M4.51498 21.0112V0.5H0V21.0112H4.51498Z" fill="#666666"/>
</svg>
