<svg width="36" height="36" viewBox="0 0 36 36" fill="none" xmlns="http://www.w3.org/2000/svg">
<circle cx="18" cy="18" r="17.5" stroke="#444444"/>
<path d="M15.1701 11.5184C15.1701 12.357 14.5594 13.0368 13.5553 13.0368C12.6107 13.0355 12 12.357 12 11.5184C12 10.6798 12.6301 10 13.5954 10C14.5607 10 15.1507 10.6588 15.1701 11.5184ZM12.0789 24.0004V14.2337H15.0718V24.0004H12.0789Z" fill="white"/>
<path d="M16.8641 17.3494C16.8641 16.1315 16.8253 15.1131 16.7852 14.2338H19.3847L19.5231 15.5921H19.5826C19.976 14.953 20.9413 14.0146 22.5561 14.0146C24.5255 14.0146 26.0019 15.3533 26.0019 18.2287V24.0005H23.009V18.5883C23.009 17.3297 22.5755 16.4714 21.4925 16.4714C20.6657 16.4714 20.174 17.0502 19.9566 17.6092C19.8777 17.8087 19.8583 18.0883 19.8583 18.3678V23.9992H16.8654V17.3481L16.8641 17.3494Z" fill="white"/>
</svg>
