<svg width="100" height="100" viewBox="0 0 100 100" fill="none" xmlns="http://www.w3.org/2000/svg">
<g mask="url(#mask0_2256_30951)">
<rect width="100" height="100" fill="#F8F8F8"/>
<path d="M28.7383 43.2031V56H27.042V43.2031H28.7383ZM33.1943 48.3799V56H31.5596V46.4902H33.1064L33.1943 48.3799ZM32.8604 50.8848L32.1045 50.8584C32.1104 50.208 32.1953 49.6074 32.3594 49.0566C32.5234 48.5 32.7666 48.0166 33.0889 47.6064C33.4111 47.1963 33.8125 46.8799 34.293 46.6572C34.7734 46.4287 35.3301 46.3145 35.9629 46.3145C36.4082 46.3145 36.8184 46.3789 37.1934 46.5078C37.5684 46.6309 37.8936 46.8271 38.1689 47.0967C38.4443 47.3662 38.6582 47.7119 38.8105 48.1338C38.9629 48.5557 39.0391 49.0654 39.0391 49.6631V56H37.4131V49.7422C37.4131 49.2441 37.3281 48.8457 37.1582 48.5469C36.9941 48.248 36.7598 48.0312 36.4551 47.8965C36.1504 47.7559 35.793 47.6855 35.3828 47.6855C34.9023 47.6855 34.501 47.7705 34.1787 47.9404C33.8564 48.1104 33.5986 48.3447 33.4053 48.6436C33.2119 48.9424 33.0713 49.2852 32.9834 49.6719C32.9014 50.0527 32.8604 50.457 32.8604 50.8848ZM39.0215 49.9883L37.9316 50.3223C37.9375 49.8008 38.0225 49.2998 38.1865 48.8193C38.3564 48.3389 38.5996 47.9111 38.916 47.5361C39.2383 47.1611 39.6338 46.8652 40.1025 46.6484C40.5713 46.4258 41.1074 46.3145 41.7109 46.3145C42.2207 46.3145 42.6719 46.3818 43.0645 46.5166C43.4629 46.6514 43.7969 46.8594 44.0664 47.1406C44.3418 47.416 44.5498 47.7705 44.6904 48.2041C44.8311 48.6377 44.9014 49.1533 44.9014 49.751V56H43.2666V49.7334C43.2666 49.2002 43.1816 48.7871 43.0117 48.4941C42.8477 48.1953 42.6133 47.9873 42.3086 47.8701C42.0098 47.7471 41.6523 47.6855 41.2363 47.6855C40.8789 47.6855 40.5625 47.7471 40.2871 47.8701C40.0117 47.9932 39.7803 48.1631 39.5928 48.3799C39.4053 48.5908 39.2617 48.834 39.1621 49.1094C39.0684 49.3848 39.0215 49.6777 39.0215 49.9883ZM52.9697 54.374V49.4785C52.9697 49.1035 52.8936 48.7783 52.7412 48.5029C52.5947 48.2217 52.3721 48.0049 52.0732 47.8525C51.7744 47.7002 51.4053 47.624 50.9658 47.624C50.5557 47.624 50.1953 47.6943 49.8848 47.835C49.5801 47.9756 49.3398 48.1602 49.1641 48.3887C48.9941 48.6172 48.9092 48.8633 48.9092 49.127H47.2832C47.2832 48.7871 47.3711 48.4502 47.5469 48.1162C47.7227 47.7822 47.9746 47.4805 48.3027 47.2109C48.6367 46.9355 49.0352 46.7188 49.498 46.5605C49.9668 46.3965 50.4883 46.3145 51.0625 46.3145C51.7539 46.3145 52.3633 46.4316 52.8906 46.666C53.4238 46.9004 53.8398 47.2549 54.1387 47.7295C54.4434 48.1982 54.5957 48.7871 54.5957 49.4961V53.9258C54.5957 54.2422 54.6221 54.5791 54.6748 54.9365C54.7334 55.2939 54.8184 55.6016 54.9297 55.8594V56H53.2334C53.1514 55.8125 53.0869 55.5635 53.04 55.2529C52.9932 54.9365 52.9697 54.6436 52.9697 54.374ZM53.251 50.2344L53.2686 51.377H51.625C51.1621 51.377 50.749 51.415 50.3857 51.4912C50.0225 51.5615 49.7178 51.6699 49.4717 51.8164C49.2256 51.9629 49.0381 52.1475 48.9092 52.3701C48.7803 52.5869 48.7158 52.8418 48.7158 53.1348C48.7158 53.4336 48.7832 53.7061 48.918 53.9521C49.0527 54.1982 49.2549 54.3945 49.5244 54.541C49.7998 54.6816 50.1367 54.752 50.5352 54.752C51.0332 54.752 51.4727 54.6465 51.8535 54.4355C52.2344 54.2246 52.5361 53.9668 52.7588 53.6621C52.9873 53.3574 53.1104 53.0615 53.1279 52.7744L53.8223 53.5566C53.7812 53.8027 53.6699 54.0752 53.4883 54.374C53.3066 54.6729 53.0635 54.96 52.7588 55.2354C52.46 55.5049 52.1025 55.7305 51.6865 55.9121C51.2764 56.0879 50.8135 56.1758 50.2979 56.1758C49.6533 56.1758 49.0879 56.0498 48.6016 55.7979C48.1211 55.5459 47.7461 55.209 47.4766 54.7871C47.2129 54.3594 47.0811 53.8818 47.0811 53.3545C47.0811 52.8447 47.1807 52.3965 47.3799 52.0098C47.5791 51.6172 47.8662 51.292 48.2412 51.0342C48.6162 50.7705 49.0674 50.5713 49.5947 50.4365C50.1221 50.3018 50.7109 50.2344 51.3613 50.2344H53.251ZM63.3145 46.4902H64.791V55.7979C64.791 56.6357 64.6211 57.3506 64.2812 57.9424C63.9414 58.5342 63.4668 58.9824 62.8574 59.2871C62.2539 59.5977 61.5566 59.7529 60.7656 59.7529C60.4375 59.7529 60.0508 59.7002 59.6055 59.5947C59.166 59.4951 58.7324 59.3223 58.3047 59.0762C57.8828 58.8359 57.5283 58.5107 57.2412 58.1006L58.0938 57.1338C58.4922 57.6143 58.9082 57.9482 59.3418 58.1357C59.7812 58.3232 60.2148 58.417 60.6426 58.417C61.1582 58.417 61.6035 58.3203 61.9785 58.127C62.3535 57.9336 62.6436 57.6465 62.8486 57.2656C63.0596 56.8906 63.165 56.4277 63.165 55.877V48.582L63.3145 46.4902ZM56.7666 51.3506V51.166C56.7666 50.4395 56.8516 49.7803 57.0215 49.1885C57.1973 48.5908 57.4463 48.0781 57.7686 47.6504C58.0967 47.2227 58.4922 46.8945 58.9551 46.666C59.418 46.4316 59.9395 46.3145 60.5195 46.3145C61.1172 46.3145 61.6387 46.4199 62.084 46.6309C62.5352 46.8359 62.916 47.1377 63.2266 47.5361C63.543 47.9287 63.792 48.4033 63.9736 48.96C64.1553 49.5166 64.2812 50.1465 64.3516 50.8496V51.6582C64.2871 52.3555 64.1611 52.9824 63.9736 53.5391C63.792 54.0957 63.543 54.5703 63.2266 54.9629C62.916 55.3555 62.5352 55.6572 62.084 55.8682C61.6328 56.0732 61.1055 56.1758 60.502 56.1758C59.9336 56.1758 59.418 56.0557 58.9551 55.8154C58.498 55.5752 58.1055 55.2383 57.7773 54.8047C57.4492 54.3711 57.1973 53.8613 57.0215 53.2754C56.8516 52.6836 56.7666 52.042 56.7666 51.3506ZM58.3926 51.166V51.3506C58.3926 51.8252 58.4395 52.2705 58.5332 52.6865C58.6328 53.1025 58.7822 53.4688 58.9814 53.7852C59.1865 54.1016 59.4473 54.3506 59.7637 54.5322C60.0801 54.708 60.458 54.7959 60.8975 54.7959C61.4365 54.7959 61.8818 54.6816 62.2334 54.4531C62.585 54.2246 62.8633 53.9229 63.0684 53.5479C63.2793 53.1729 63.4434 52.7656 63.5605 52.3262V50.208C63.4961 49.8857 63.3965 49.5752 63.2617 49.2764C63.1328 48.9717 62.9629 48.7021 62.752 48.4678C62.5469 48.2275 62.292 48.0371 61.9873 47.8965C61.6826 47.7559 61.3252 47.6855 60.915 47.6855C60.4697 47.6855 60.0859 47.7793 59.7637 47.9668C59.4473 48.1484 59.1865 48.4004 58.9814 48.7227C58.7822 49.0391 58.6328 49.4082 58.5332 49.8301C58.4395 50.2461 58.3926 50.6914 58.3926 51.166ZM71.207 56.1758C70.5449 56.1758 69.9443 56.0645 69.4053 55.8418C68.8721 55.6133 68.4121 55.2939 68.0254 54.8838C67.6445 54.4736 67.3516 53.9873 67.1465 53.4248C66.9414 52.8623 66.8389 52.2471 66.8389 51.5791V51.21C66.8389 50.4365 66.9531 49.748 67.1816 49.1445C67.4102 48.5352 67.7207 48.0195 68.1133 47.5977C68.5059 47.1758 68.9512 46.8564 69.4492 46.6396C69.9473 46.4229 70.4629 46.3145 70.9961 46.3145C71.6758 46.3145 72.2617 46.4316 72.7539 46.666C73.252 46.9004 73.6592 47.2285 73.9756 47.6504C74.292 48.0664 74.5264 48.5586 74.6787 49.127C74.8311 49.6895 74.9072 50.3047 74.9072 50.9727V51.7021H67.8057V50.375H73.2812V50.252C73.2578 49.8301 73.1699 49.4199 73.0176 49.0215C72.8711 48.623 72.6367 48.2949 72.3145 48.0371C71.9922 47.7793 71.5527 47.6504 70.9961 47.6504C70.627 47.6504 70.2871 47.7295 69.9766 47.8877C69.666 48.04 69.3994 48.2686 69.1768 48.5732C68.9541 48.8779 68.7812 49.25 68.6582 49.6895C68.5352 50.1289 68.4736 50.6357 68.4736 51.21V51.5791C68.4736 52.0303 68.5352 52.4551 68.6582 52.8535C68.7871 53.2461 68.9717 53.5918 69.2119 53.8906C69.458 54.1895 69.7539 54.4238 70.0996 54.5938C70.4512 54.7637 70.8496 54.8486 71.2949 54.8486C71.8691 54.8486 72.3555 54.7314 72.7539 54.4971C73.1523 54.2627 73.501 53.9492 73.7998 53.5566L74.7842 54.3389C74.5791 54.6494 74.3184 54.9453 74.002 55.2266C73.6855 55.5078 73.2959 55.7363 72.833 55.9121C72.376 56.0879 71.834 56.1758 71.207 56.1758Z" fill="#999999"/>
</g>
</svg>
